<?xml version="1.0" encoding="utf-8"?>
<!-- Generator: Adobe Illustrator 16.0.3, SVG Export Plug-In . SVG Version: 6.00 Build 0)  -->
<!DOCTYPE svg PUBLIC "-//W3C//DTD SVG 1.1//EN" "http://www.w3.org/Graphics/SVG/1.1/DTD/svg11.dtd">
<svg version="1.1" id="Слой_1" xmlns="http://www.w3.org/2000/svg" xmlns:xlink="http://www.w3.org/1999/xlink" x="0px" y="0px"
	 width="65.17px" height="72.968px" viewBox="0 0 65.17 72.968" enable-background="new 0 0 65.17 72.968" xml:space="preserve">
<path fill-rule="evenodd" clip-rule="evenodd" fill="#54A1D6" d="M65.239,22.138c0,0,0.156-1.857-0.281-2.809
	c-0.507-1.102-1.621-1.965-1.621-1.965L35.465,0.737c0,0-1.273-0.749-2.506-0.771c-1.152-0.02-2.915,0.932-2.915,0.932L2.98,16.878
	c0,0-1.576,0.934-2.316,1.913c-0.693,0.92-0.556,2.941-0.556,2.941L0.23,51.267c0,0-0.036,1.938,0.421,3
	c0.474,1.102,1.52,1.893,1.52,1.893l27.751,16.223c0,0,2.195,0.646,3.277,0.646c0.976,0,3.277-0.729,3.277-0.729L62.69,56.726
	c0,0,1.848-0.791,2.264-1.805c0.471-1.141,0.244-2.848,0.244-2.848L65.239,22.138z"/>
<path opacity="0.2" fill-rule="evenodd" clip-rule="evenodd" d="M32.518,0c-1.112,0.165-2.474,0.899-2.474,0.899L2.98,16.878
	c0,0-1.576,0.934-2.316,1.913c-0.693,0.92-0.556,2.941-0.556,2.941L0.23,51.267c0,0-0.036,1.938,0.421,3
	c0.474,1.102,1.52,1.893,1.52,1.893l27.751,16.223c0,0,1.469,0.43,2.596,0.586V0z"/>
<path fill-rule="evenodd" clip-rule="evenodd" fill="#F24942" d="M56.798,24.132c-1.922-0.811-3.846-1.616-5.769-2.423
	c-1.88-0.789-3.76-1.574-5.637-2.367c-0.848-0.359-1.684-0.451-2.571-0.088c-4.487,1.843-8.975,3.673-13.466,5.508
	c-0.016,0.006-0.03,0.008-0.044,0.013c-7.499,3.078-15.004,6.137-22.508,9.208c-1.457,0.594-1.946,1.77-1.354,3.221
	c2.337,5.719,4.673,11.438,7.01,17.158c0.062,0.142,0.119,0.293,0.197,0.43c0.595,1.063,1.771,1.406,3.041,0.892
	c7.429-3.037,14.856-6.083,22.295-9.099c0.025-0.011,0.045-0.027,0.072-0.04c4.479-1.828,8.955-3.664,13.441-5.482
	c0.962-0.392,1.585-1.025,1.977-1.966c1.589-3.806,3.193-7.604,4.786-11.409C58.874,26.237,58.255,24.747,56.798,24.132z
	 M52.791,30.83c-0.868,1.958-3.115,2.862-5.07,2.035c-1.942-0.819-2.875-3.124-2.044-5.063c0.832-1.953,3.108-2.865,5.063-2.032
	C52.696,26.602,53.633,28.917,52.791,30.83z"/>
<path fill="#A52F2F" d="M50.268,26.529c1.556,0.654,2.291,2.452,1.637,4.01c-0.65,1.558-2.449,2.293-4.009,1.639
	c-1.558-0.655-2.291-2.452-1.639-4.01C46.911,26.611,48.71,25.875,50.268,26.529 M50.653,25.61
	c-2.067-0.869-4.447,0.104-5.317,2.172c-0.868,2.069,0.105,4.448,2.174,5.315c2.067,0.868,4.447-0.104,5.317-2.172
	C53.694,28.858,52.721,26.478,50.653,25.61L50.653,25.61z"/>
<path opacity="0.2" d="M53.589,29.308c-0.548-0.065-1.019-0.025-1.447,0.069c-0.003,0.376-0.076,0.755-0.225,1.124
	c0.392-0.203,0.896-0.281,1.552-0.203c1.079,0.128,2.149,0.592,3.186,1.237c0.131-0.311,0.26-0.62,0.391-0.93
	C55.938,29.933,54.778,29.449,53.589,29.308z"/>
<path fill="#E5E5E6" d="M63.542,35.083l-0.615-0.649c-2.425-2.567-5.746-6.078-9.338-6.505c-1.432-0.171-2.471,0.208-3.08,1.132
	c-0.516,0.776-0.656,1.9-0.552,3.212c0.347-0.103,0.669-0.264,0.958-0.481c-0.038-0.907,0.082-1.663,0.426-2.18
	c0.391-0.591,1.086-0.817,2.128-0.694c3.237,0.387,6.414,3.747,8.73,6.2l0.62,0.655c0.818,0.857,1.61,1.748,2.399,2.64l-0.002-0.003
	l0.002-1.482C64.049,35.633,65.249,36.965,63.542,35.083z"/>
<path fill="#F28F26" d="M52.337,40.441C52.337,40.441,52.336,40.441,52.337,40.441C52.323,40.407,52.318,40.407,52.337,40.441z"/>
<path fill="#F28F26" d="M51.551,38.466"/>
<path fill="#E5E5E6" d="M53.589,27.928c-0.28-0.034-0.533-0.029-0.781-0.021c0.117,0.319,0.184,0.653,0.213,0.992
	c0.146,0.003,0.285-0.002,0.448,0.018c1.216,0.146,2.418,0.707,3.57,1.483c0.131-0.313,0.262-0.623,0.393-0.934
	C56.21,28.668,54.917,28.084,53.589,27.928z"/>
<rect x="9.95" y="31.227" transform="matrix(0.9258 -0.378 0.378 0.9258 -12.3609 13.3641)" opacity="0.25" fill-rule="evenodd" clip-rule="evenodd" fill="#A52F2F" width="35.816" height="13.877"/>
<g>
	<path fill="#FFFFFF" d="M11.229,40.344l2.479-1.013c0.856-0.35,1.565-0.451,2.13-0.302c0.565,0.146,0.979,0.547,1.243,1.19
		c0.203,0.498,0.232,0.937,0.091,1.318c-0.14,0.381-0.446,0.695-0.919,0.939c0.61-0.18,1.134-0.162,1.569,0.053
		c0.435,0.213,0.776,0.625,1.024,1.231c0.304,0.739,0.299,1.369-0.011,1.885c-0.311,0.517-0.969,0.979-1.976,1.394l-2.482,1.012
		L11.229,40.344z M13.194,40.955l0.73,1.787l1.011-0.413c0.385-0.156,0.631-0.336,0.738-0.54c0.105-0.205,0.095-0.465-0.034-0.78
		s-0.307-0.511-0.531-0.588c-0.225-0.072-0.527-0.031-0.905,0.12L13.194,40.955z M14.419,43.955l0.93,2.279l1.011-0.412
		c0.486-0.2,0.791-0.418,0.919-0.665c0.125-0.244,0.104-0.57-0.062-0.979c-0.171-0.418-0.394-0.673-0.67-0.774
		c-0.279-0.097-0.649-0.054-1.117,0.141L14.419,43.955z"/>
	<path fill="#FFFFFF" d="M22.767,40.382c0.163-0.029,0.324-0.014,0.482,0.051c0.155,0.068,0.382,0.23,0.676,0.487l2.523,2.202
		l-1.672,0.684l-1.722-1.568c-0.049-0.043-0.116-0.105-0.202-0.183c-0.508-0.47-0.946-0.627-1.313-0.479l-0.486,0.196l1.244,3.046
		l-1.521,0.619l-3.146-7.697l2.197-0.896c0.99-0.405,1.771-0.522,2.347-0.345c0.573,0.173,1.023,0.655,1.346,1.447
		c0.217,0.529,0.259,1.002,0.129,1.421C23.52,39.783,23.226,40.122,22.767,40.382z M19.675,38.396l0.858,2.099l0.716-0.292
		c0.417-0.172,0.682-0.373,0.795-0.612c0.114-0.235,0.094-0.541-0.059-0.917c-0.153-0.374-0.352-0.604-0.597-0.695
		c-0.245-0.086-0.577-0.045-0.997,0.125L19.675,38.396z"/>
	<path fill="#FFFFFF" d="M25.551,34.504l1.86-0.761l5.225,6.849l-1.521,0.623l-1.253-1.711l-2.036,0.832l0.313,2.094l-1.52,0.619
		L25.551,34.504z M27.047,35.515l0.571,3.443l1.438-0.586L27.047,35.515z"/>
	<path fill="#FFFFFF" d="M30.274,32.574l1.635-0.668l4.43,4.718l-2.285-5.595l1.341-0.547l3.146,7.7l-1.623,0.661l-4.441-4.712
		l2.284,5.593l-1.341,0.548L30.274,32.574z"/>
	<path fill="#FFFFFF" d="M36.726,29.937l1.626-0.665c1.258-0.514,2.287-0.583,3.088-0.21c0.798,0.374,1.476,1.241,2.03,2.602
		c0.558,1.366,0.683,2.462,0.377,3.29c-0.308,0.831-1.091,1.504-2.35,2.017l-1.624,0.665L36.726,29.937z M38.807,30.688l2.023,4.956
		l0.412-0.169c0.599-0.246,0.948-0.606,1.049-1.089c0.101-0.477-0.033-1.172-0.404-2.076c-0.364-0.896-0.752-1.48-1.162-1.752
		c-0.406-0.27-0.908-0.283-1.507-0.039L38.807,30.688z"/>
</g>
<path fill="#E5E5E6" d="M56.818,47.367c-0.765-1.34-2.384-4.47-3.735-7.781c0.002,0.015,0.011,0.031,0.021,0.05
	c-0.21,0.318-0.469,0.577-0.767,0.806c1.659,3.962,3.577,7.348,3.611,7.419c1.822,3.197,3.809,6.32,5.865,9.387l0.859-0.511
	c0.005,0.007,0.01,0.014,0.015,0.021C60.627,53.687,58.638,50.562,56.818,47.367z"/>
</svg>
