<?xml version="1.0" encoding="utf-8"?>
<!-- Generator: Adobe Illustrator 16.0.3, SVG Export Plug-In . SVG Version: 6.00 Build 0)  -->
<!DOCTYPE svg PUBLIC "-//W3C//DTD SVG 1.1//EN" "http://www.w3.org/Graphics/SVG/1.1/DTD/svg11.dtd">
<svg version="1.1" id="Слой_1" xmlns="http://www.w3.org/2000/svg" xmlns:xlink="http://www.w3.org/1999/xlink" x="0px" y="0px"
	 width="65.17px" height="72.968px" viewBox="0 0 65.17 72.968" enable-background="new 0 0 65.17 72.968" xml:space="preserve">
<g>
	<g>
		<path fill-rule="evenodd" clip-rule="evenodd" fill="#54A1D6" d="M0.125,50.855c0,0-0.156,1.857,0.281,2.809
			c0.508,1.1,1.621,1.965,1.621,1.965l27.871,16.627c0,0,1.275,0.748,2.506,0.77c1.154,0.02,2.916-0.932,2.916-0.932l27.063-15.979
			c0,0,1.576-0.934,2.318-1.914c0.691-0.92,0.555-2.941,0.555-2.941l-0.121-29.531c0,0,0.035-1.938-0.424-3.002
			c-0.473-1.099-1.518-1.893-1.518-1.893L35.44,0.612c0,0-2.195-0.646-3.277-0.646c-0.975,0-3.275,0.728-3.275,0.728L2.673,16.268
			c0,0-1.848,0.793-2.264,1.805c-0.471,1.144-0.242,2.848-0.242,2.848L0.125,50.855z"/>
	</g>
	<path opacity="0.2" fill-rule="evenodd" clip-rule="evenodd" d="M0.407,53.664c0.506,1.102,1.621,1.965,1.621,1.965l27.871,16.627
		c0,0,1.273,0.75,2.506,0.77c0.09,0.002,0.182-0.004,0.277-0.012V0.001c-0.188-0.021-0.363-0.035-0.518-0.035
		c-0.975,0-3.277,0.729-3.277,0.729L2.674,16.268c0,0-1.848,0.793-2.266,1.805c-0.469,1.144-0.242,2.848-0.242,2.848L0.125,50.855
		C0.125,50.855-0.031,52.713,0.407,53.664z"/>
	<polygon fill-rule="evenodd" clip-rule="evenodd" fill="#F9A332" points="32.538,8.231 36.449,12.539 41.5,9.65 43.887,14.956 
		49.584,13.77 50.215,19.553 56,20.185 54.813,25.881 60.119,28.27 57.23,33.32 61.537,37.23 57.23,41.143 60.119,46.192 
		54.813,48.58 56,54.277 50.215,54.908 49.584,60.692 43.887,59.506 41.5,64.812 36.449,61.924 32.538,66.23 28.627,61.924 
		23.577,64.812 21.188,59.506 15.493,60.692 14.86,54.908 9.077,54.277 10.262,48.58 4.958,46.192 7.846,41.143 3.538,37.23 
		7.846,33.32 4.958,28.27 10.262,25.881 9.077,20.185 14.86,19.553 15.493,13.77 21.188,14.956 23.577,9.65 28.627,12.539 	"/>
	<polygon fill-rule="evenodd" clip-rule="evenodd" fill="#F9732B" points="32.538,12.964 35.811,16.569 40.037,14.152 
		42.034,18.592 46.802,17.599 47.329,22.438 52.17,22.967 51.177,27.734 55.617,29.732 53.2,33.959 56.804,37.23 53.2,40.504 
		55.617,44.729 51.177,46.729 52.17,51.494 47.329,52.023 46.802,56.863 42.034,55.871 40.037,60.31 35.811,57.893 32.538,61.498 
		29.266,57.893 25.04,60.31 23.041,55.871 18.275,56.863 17.746,52.023 12.906,51.494 13.898,46.729 9.459,44.729 11.876,40.504 
		8.271,37.23 11.876,33.959 9.459,29.732 13.898,27.734 12.906,22.967 17.746,22.438 18.275,17.599 23.041,18.592 25.04,14.152 
		29.266,16.569 	"/>
	<path fill-rule="evenodd" clip-rule="evenodd" fill="#E74B44" d="M65.649,50.419l-0.076-16.896H41.462
		c-0.329,0-0.64,0.02-0.938,0.048v16.826c0.299,0.028,0.609,0.048,0.938,0.048h24.192C65.652,50.439,65.649,50.419,65.649,50.419z"
		/>
	<path fill-rule="evenodd" clip-rule="evenodd" fill="#6D2020" d="M40.523,50.472V33.497h-0.475c-0.5,0-0.904,0.404-0.904,0.903
		v15.168c0,0.498,0.404,0.903,0.904,0.903H40.523z"/>
	<path fill-rule="evenodd" clip-rule="evenodd" fill="#D6BAA5" d="M30.832,50.391c-2.167,0-4.333-0.013-6.499,0.008
		c-0.694,0.008-1.223-0.208-1.551-0.833c-0.349-0.667-0.304-1.327,0.109-1.944c0.121-0.184,0.154-0.305,0.008-0.463
		c-0.033-0.035-0.059-0.078-0.079-0.121c-0.233-0.467-0.446-0.869-1.027-1.101c-0.725-0.288-1.037-1.372-0.753-2.202
		c0.135-0.396,0.414-0.742,0.624-1.115c0.048-0.087,0.1-0.184,0.11-0.279c0.012-0.117-0.028-0.24-0.025-0.359
		c0.017-0.42-0.105-0.717-0.456-1.028c-0.932-0.829-0.641-2.485,0.468-3.073c0.106-0.056,0.19-0.193,0.237-0.313
		c0.058-0.142,0.043-0.312,0.098-0.455c0.097-0.25,0.032-0.4-0.179-0.574c-0.863-0.707-0.881-2-0.015-2.703
		c0.238-0.194,0.604-0.325,0.914-0.328c2.249-0.027,4.5-0.015,6.75-0.016c0.747,0,1.526-0.773,1.526-1.523
		c0.003-2.214,0.006-4.428-0.001-6.643c-0.002-0.784,0.209-1.493,0.688-2.119c0.491-0.644,0.956-0.806,1.735-0.601
		c0.079,0.021,0.159,0.049,0.238,0.078c0.862,0.309,0.956,0.377,0.9,1.274c-0.135,2.151,0.303,4.236,0.675,6.329
		c0.034,0.188,0.182,0.396,0.337,0.513c1.428,1.062,2.865,2.114,4.313,3.149c0.376,0.27,0.55,0.552,0.547,1.047
		c-0.024,4.501-0.017,9.002-0.008,13.503c0.001,0.271-0.075,0.442-0.292,0.602c-0.697,0.511-1.359,1.085-2.25,1.24
		c-0.211,0.037-0.43,0.05-0.645,0.05C35.162,50.393,32.998,50.391,30.832,50.391z"/>
	<path fill-rule="evenodd" clip-rule="evenodd" fill="#FDDCBB" d="M33.328,48.627c0,0.979-0.793,1.771-1.772,1.771h-6.251
		c-0.979,0-1.772-0.793-1.772-1.771l0,0c0-0.979,0.794-1.772,1.772-1.772h6.251C32.535,46.854,33.328,47.647,33.328,48.627
		L33.328,48.627z"/>
	<path opacity="0.5" fill-rule="evenodd" clip-rule="evenodd" fill="#E0C3AA" d="M22.977,46.566V34.933
		c0-0.503,0.102-0.978,0.253-1.429c-0.138,0-0.276,0-0.414,0.002c-0.31,0.003-0.676,0.134-0.914,0.328
		c-0.866,0.703-0.849,1.996,0.015,2.703c0.211,0.174,0.275,0.324,0.179,0.574c-0.055,0.144-0.04,0.313-0.098,0.455
		c-0.047,0.119-0.131,0.257-0.237,0.313c-1.108,0.588-1.399,2.244-0.468,3.073c0.351,0.312,0.473,0.608,0.456,1.028
		c-0.003,0.119,0.037,0.242,0.025,0.359c-0.011,0.096-0.063,0.192-0.11,0.279c-0.21,0.373-0.489,0.719-0.624,1.115
		c-0.284,0.83,0.028,1.914,0.753,2.202c0.581,0.231,0.794,0.634,1.027,1.101c0.021,0.043,0.046,0.086,0.079,0.121
		c0.146,0.158,0.113,0.279-0.008,0.463c-0.413,0.617-0.458,1.277-0.109,1.944c0.328,0.625,0.856,0.841,1.551,0.833
		c0.184-0.002,0.367,0,0.551-0.002c0.001-0.037,0.011-0.071,0.011-0.108v-0.037C23.737,49.433,22.977,48.091,22.977,46.566z"/>
	<polygon opacity="0.2" fill-rule="evenodd" clip-rule="evenodd" points="65.622,33.525 40.526,33.525 40.526,41.906 65.662,41.906 
			"/>
	<path fill-rule="evenodd" clip-rule="evenodd" fill="#FDDCBB" d="M23.899,36.969h1.405h4.846h1.405
		c0.979,0,1.772-0.793,1.772-1.772s-0.793-1.772-1.772-1.772H30.15h-4.846h-1.405c-0.979,0-1.771,0.793-1.771,1.772
		S22.92,36.969,23.899,36.969z"/>
	<path fill-rule="evenodd" clip-rule="evenodd" fill="#FDDCBB" d="M23.242,41.338h1.044h1.044h4.163h1.044h1.044
		c0.979,0,1.772-0.793,1.772-1.771c0-0.979-0.793-1.772-1.772-1.772h-1.044h-1.044H25.33h-1.044h-1.044
		c-0.979,0-1.771,0.793-1.771,1.772C21.47,40.545,22.263,41.338,23.242,41.338z"/>
	<path fill-rule="evenodd" clip-rule="evenodd" fill="#FDDCBB" d="M31.581,42.512H30.82h-0.283h-0.761H25.33h-0.761h-0.283h-0.761
		c-0.979,0-1.771,0.793-1.771,1.771c0,0.979,0.793,1.773,1.771,1.773h0.761h0.283h0.761h4.446h0.761h0.283h0.761
		c0.979,0,1.772-0.794,1.772-1.773C33.353,43.305,32.56,42.512,31.581,42.512z"/>
	<path opacity="0.4" fill-rule="evenodd" clip-rule="evenodd" fill="#FDDCBB" d="M33.334,31.476c0.553,0,1-0.448,1-1v-7.548
		c-0.138-0.079-0.321-0.152-0.582-0.245c-0.079-0.028-0.159-0.057-0.238-0.078c-0.779-0.206-1.244-0.043-1.735,0.601
		c-0.479,0.626-0.689,1.335-0.688,2.119c0.006,1.966,0.003,3.933,0.001,5.898c0.175,0.152,0.397,0.253,0.647,0.253H33.334z"/>
</g>
</svg>
