<?xml version="1.0" encoding="utf-8"?>
<!-- Generator: Adobe Illustrator 16.0.3, SVG Export Plug-In . SVG Version: 6.00 Build 0)  -->
<!DOCTYPE svg PUBLIC "-//W3C//DTD SVG 1.1//EN" "http://www.w3.org/Graphics/SVG/1.1/DTD/svg11.dtd">
<svg version="1.1" id="Слой_1" xmlns="http://www.w3.org/2000/svg" xmlns:xlink="http://www.w3.org/1999/xlink" x="0px" y="0px"
	 width="61.574px" height="69.002px" viewBox="0 0 61.574 69.002" enable-background="new 0 0 61.574 69.002" xml:space="preserve">
<g>
	<path fill-rule="evenodd" clip-rule="evenodd" fill="#FFAF40" d="M0.124,48.062c0,0-0.148,1.754,0.265,2.65
		C0.867,51.753,1.92,52.57,1.92,52.57l26.322,15.703c0,0,1.203,0.707,2.366,0.727c1.088,0.02,2.753-0.881,2.753-0.881l25.561-15.09
		c0,0,1.485-0.881,2.188-1.809c0.654-0.867,0.524-2.775,0.524-2.775l-0.115-27.891c0,0,0.032-1.83-0.399-2.835
		c-0.445-1.037-1.434-1.788-1.434-1.788L33.476,0.61c0,0-2.072-0.61-3.095-0.61c-0.919,0-3.095,0.688-3.095,0.688L2.53,15.396
		c0,0-1.745,0.749-2.139,1.705c-0.443,1.079-0.229,2.688-0.229,2.688L0.124,48.062z"/>
	<path opacity="0.2" fill-rule="evenodd" clip-rule="evenodd" d="M0.475,50.712c0.479,1.041,1.531,1.857,1.531,1.857l26.321,15.701
		c0,0,1.204,0.709,2.367,0.729c0.085,0.002,0.173-0.004,0.262-0.012V0.034C30.779,0.014,30.612,0,30.467,0
		c-0.921,0-3.095,0.688-3.095,0.688L2.616,15.396c0,0-1.745,0.749-2.139,1.705c-0.445,1.079-0.229,2.688-0.229,2.688L0.21,48.062
		C0.21,48.062,0.062,49.816,0.475,50.712z"/>
	<path fill="#EFEEEC" d="M53.597,48.24c-0.015-3.34,0.01-6.682-0.013-10.02c0.013-1.764,0.013-3.525,0.003-5.292l-0.117-0.04
		c-1.042-0.322-1.92-0.995-2.869-1.511c-1.955-1.098-3.875-2.261-5.84-3.348c-0.796-0.426-1.692-0.952-1.9-1.911
		c-0.35-1.143,0.366-2.192,0.931-3.119c0.71-1.091,1.187-2.335,2.066-3.311l0.087-0.102c-7.732,0.004-15.461,0.006-23.192-0.002
		c-0.421,0.004-0.846,0.025-1.269,0.061c-2.506-0.144-5.028-0.007-7.543-0.061c-0.782,0.025-1.628-0.113-2.353,0.254
		c-0.774,0.409-1.295,1.254-1.252,2.14c-0.011,8.548,0.011,17.098-0.011,25.647c-0.022,0.879-0.028,1.893,0.689,2.523
		c0.794,0.883,2.067,0.666,3.124,0.688c4.578,0.004,9.154-0.008,13.732-0.008v0.035h23.755v-0.072
		c0.434-0.068,0.839-0.223,1.184-0.547C53.4,49.761,53.635,48.982,53.597,48.24z"/>
	<rect x="24.308" y="29.793" fill="#6D6B6A" width="20.48" height="1.155"/>
	<rect x="16.741" y="34.107" fill="#6D6B6A" width="28.047" height="1.154"/>
	<rect x="16.741" y="38.05" fill="#6D6B6A" width="28.047" height="1.156"/>
	<rect x="16.741" y="42.042" fill="#6D6B6A" width="28.047" height="1.154"/>
	<g>
		<path fill="#EFEEEC" d="M43.791,23c0.71-1.091,1.187-2.335,2.066-3.311c2.214,3.63,4.27,7.36,6.421,11.031
			c0.415,0.714,0.849,1.418,1.191,2.168c-1.042-0.322-1.92-0.995-2.869-1.511c-1.955-1.098-3.875-2.261-5.84-3.348
			c-0.796-0.426-1.692-0.952-1.9-1.911C42.511,24.977,43.227,23.927,43.791,23z"/>
	</g>
	<path opacity="0.1" enable-background="new    " d="M53.587,32.929l-0.117-0.04c-1.042-0.322-1.92-0.995-2.869-1.511
		c-1.955-1.098-3.875-2.261-5.84-3.348c-0.796-0.426-1.692-0.952-1.9-1.911c-0.35-1.143,0.366-2.192,0.931-3.119
		c0.71-1.091,1.187-2.335,2.066-3.311l0.087-0.102c-7.732,0.004-15.461,0.006-23.192-0.002c-0.421,0.004-0.846,0.025-1.269,0.061
		c-1.651-0.095-3.314-0.068-4.975-0.054l37.078,20.174c0-0.518-0.002-1.033-0.003-1.547C53.597,36.457,53.597,34.695,53.587,32.929z
		"/>
	<path fill="#DC4942" d="M15.261,32.539c0-0.816,0-1.636,0-2.471c-0.313,0-0.619,0-0.937,0c0-0.369,0-0.72,0-1.089
		c0.303,0,0.608,0,0.926,0c0-0.232,0-0.449,0-0.682c-0.307,0-0.613,0-0.928,0c0-0.374,0-0.729,0-1.102c0.314,0,0.623,0,0.94,0
		c0-1.877,0-3.739,0-5.61c0.059-0.004,0.107-0.009,0.153-0.009c0.968,0,1.933-0.014,2.898,0.003
		c1.056,0.019,1.981,0.357,2.679,1.187c0.55,0.654,0.755,1.433,0.734,2.271c-0.021,0.813-0.272,1.551-0.827,2.159
		c-0.548,0.604-1.238,0.954-2.038,1.038c-0.626,0.064-1.262,0.043-1.894,0.063c-0.061,0.001-0.124,0-0.195,0
		c0,0.229,0,0.442,0,0.673c1.362,0,2.719,0,4.085,0c0,0.367,0,0.718,0,1.086c-1.36,0-2.716,0-4.097,0c0,0.839,0,1.662,0,2.482
		C16.26,32.539,15.762,32.539,15.261,32.539z M16.771,27.184c0.458,0,0.905,0.019,1.348-0.008c0.265-0.015,0.542-0.059,0.781-0.163
		c0.793-0.343,1.194-0.987,1.29-1.825c0.12-1.063-0.444-2.07-1.578-2.313c-0.598-0.128-1.209-0.053-1.815-0.053
		c-0.006,0-0.015,0.011-0.025,0.02C16.771,24.279,16.771,25.718,16.771,27.184z"/>
</g>
</svg>
