<?xml version="1.0" encoding="utf-8"?>
<!-- Generator: Adobe Illustrator 16.0.3, SVG Export Plug-In . SVG Version: 6.00 Build 0)  -->
<!DOCTYPE svg PUBLIC "-//W3C//DTD SVG 1.1//EN" "http://www.w3.org/Graphics/SVG/1.1/DTD/svg11.dtd">
<svg version="1.1" id="Слой_1" xmlns="http://www.w3.org/2000/svg" xmlns:xlink="http://www.w3.org/1999/xlink" x="0px" y="0px"
	 width="65.17px" height="73.06px" viewBox="0 0 65.17 73.06" enable-background="new 0 0 65.17 73.06" xml:space="preserve">
<g>
	<path fill-rule="evenodd" clip-rule="evenodd" fill="#75D16B" d="M0.125,50.889c0,0-0.157,1.857,0.281,2.808
		c0.508,1.102,1.621,1.966,1.621,1.966l27.871,16.625c0,0,1.275,0.75,2.506,0.771c1.153,0.02,2.915-0.933,2.915-0.933l27.063-15.979
		c0,0,1.575-0.932,2.316-1.912c0.693-0.92,0.556-2.941,0.556-2.941l-0.121-29.531c0,0,0.035-1.938-0.424-3.002
		c-0.472-1.099-1.518-1.893-1.518-1.893L35.441,0.645c0,0-2.195-0.646-3.277-0.646c-0.975,0-3.276,0.729-3.276,0.729L2.674,16.301
		c0,0-1.848,0.792-2.265,1.805c-0.47,1.143-0.243,2.847-0.243,2.847L0.125,50.889z"/>
	<path opacity="0.2" fill-rule="evenodd" clip-rule="evenodd" d="M0.406,53.696c0.507,1.102,1.621,1.966,1.621,1.966l27.872,16.626
		c0,0,1.273,0.749,2.505,0.771c0.09,0.002,0.183-0.004,0.278-0.013V0.034c-0.188-0.021-0.364-0.036-0.519-0.036
		c-0.974,0-3.277,0.729-3.277,0.729L2.675,16.301c0,0-1.849,0.792-2.266,1.805c-0.471,1.143-0.243,2.847-0.243,2.847L0.125,50.889
		C0.125,50.889-0.031,52.746,0.406,53.696z"/>
	<polygon fill-rule="evenodd" clip-rule="evenodd" fill="#6D2020" points="10.521,45.383 7.933,37.022 17.268,34.327 33.374,35.195 
		58.552,36.628 59.407,39.777 58.486,44.026 57.568,45.451 46.678,45.594 	"/>
	<path fill-rule="evenodd" clip-rule="evenodd" fill="#5A5A5A" d="M15.934,50.147c-2.551-0.017-4.636-2.117-4.634-4.667
		c0.002-2.539,2.114-4.647,4.656-4.649c2.554-0.002,4.643,2.086,4.646,4.641C20.603,48.073,18.516,50.165,15.934,50.147z
		 M16.005,47.645c1.169-0.02,2.104-0.973,2.106-2.149c0.002-1.196-0.966-2.16-2.163-2.155c-1.205,0.006-2.135,0.959-2.128,2.184
		C13.826,46.723,14.795,47.663,16.005,47.645z"/>
	<path fill-rule="evenodd" clip-rule="evenodd" fill="#5A5A5A" d="M52.034,40.831c2.556-0.006,4.648,2.081,4.649,4.635
		c0.003,2.608-2.079,4.7-4.657,4.682c-2.573-0.019-4.62-2.083-4.62-4.661C47.406,42.922,49.479,40.836,52.034,40.831z
		 M54.212,45.498c0-1.185-0.989-2.162-2.18-2.156c-1.186,0.006-2.17,1.001-2.152,2.18c0.016,1.187,1.007,2.141,2.208,2.123
		C53.246,47.627,54.212,46.652,54.212,45.498z"/>
	<circle fill-rule="evenodd" clip-rule="evenodd" fill="#A8A7A5" cx="15.951" cy="45.489" r="2.711"/>
	<g>
		<circle fill-rule="evenodd" clip-rule="evenodd" fill="#A8A7A5" cx="52.045" cy="45.654" r="2.711"/>
		<path fill-rule="evenodd" clip-rule="evenodd" fill="#808183" d="M54.757,45.671c0,1.497-1.214,2.711-2.712,2.711
			c-1.497,0-2.711-1.214-2.711-2.711H54.757z"/>
	</g>
	<g>
		<circle fill-rule="evenodd" clip-rule="evenodd" fill="#A8A7A5" cx="15.951" cy="45.654" r="2.711"/>
		<path fill-rule="evenodd" clip-rule="evenodd" fill="#808183" d="M18.662,45.671c0,1.497-1.214,2.711-2.712,2.711
			c-1.497,0-2.711-1.214-2.711-2.711H18.662z"/>
	</g>
	<polygon fill-rule="evenodd" clip-rule="evenodd" fill="#91CCBA" points="37.522,27.544 38.922,36.463 52.859,36.065 
		50.851,32.414 46.104,28.092 	"/>
	<polygon fill-rule="evenodd" clip-rule="evenodd" fill="#C8E0CF" points="52.668,35.716 52.122,36.086 45.514,36.275 
		39.694,27.683 46.104,28.092 50.851,32.414 	"/>
	<path fill-rule="evenodd" clip-rule="evenodd" fill="#BA3535" d="M21.269,48.594c0.769-2.443,0.864-3.125,0.639-4.262
		c-0.299-1.494-1.046-2.713-2.252-3.639c-2.052-1.575-4.849-1.683-7.002-0.28c-1.066,0.694-1.854,1.634-2.319,2.817
		c-0.678,1.725-0.56,3.436,0.188,5.152c-1.17-0.832-2.313-1.66-3.357-2.599c-0.312-0.28-0.48-0.866-0.488-1.315
		c-0.102-5.98,0.015-11.958,0.408-17.928c0.102-1.562,0.8-2.206,2.363-2.207c8.801,0,17.603-0.008,26.403,0.011
		c0.865,0.002,1.761,0.052,2.591,0.275c2.538,0.684,5.053,1.457,7.572,2.215c0.215,0.064,0.407,0.255,0.575,0.423
		c2.327,2.318,4.643,4.649,6.98,6.957c0.256,0.252,0.622,0.448,0.971,0.542c1.427,0.384,2.865,0.718,4.302,1.07
		c1.469,0.359,2.083,1.099,2.097,2.618c0.021,2.211,0.009,4.421,0,6.632c-0.001,0.168-0.025,0.398-0.134,0.496
		c-1.039,0.947-2.098,1.871-3.236,2.879c1.125-3.791,0.494-6.236-1.994-8.025c-2.047-1.468-5.006-1.462-7.077,0.016
		c-1.09,0.777-1.862,1.793-2.294,3.061c-0.592,1.743-0.386,3.426,0.475,5.092C38.16,48.594,29.719,48.594,21.269,48.594z
		 M39.747,34.601c3.842,0,7.659,0,11.546,0c-0.113-0.144-0.194-0.268-0.297-0.371c-1.817-1.82-3.633-3.641-5.462-5.45
		c-0.158-0.156-0.397-0.319-0.602-0.322c-1.661-0.024-3.32-0.011-4.981-0.005c-0.056,0-0.112,0.036-0.204,0.067
		C39.747,30.532,39.747,32.546,39.747,34.601z"/>
	<path fill-rule="evenodd" clip-rule="evenodd" fill="#F24942" d="M6.654,38.194H60.93c-0.077-1.351-0.702-2.029-2.088-2.368
		c-1.437-0.352-2.875-0.686-4.302-1.07c-0.349-0.094-0.715-0.29-0.971-0.542c-2.338-2.307-4.653-4.638-6.98-6.957
		c-0.168-0.167-0.36-0.359-0.575-0.423c-2.52-0.758-5.034-1.531-7.572-2.215c-0.83-0.223-1.726-0.273-2.591-0.275
		c-8.801-0.019-17.603-0.012-26.403-0.011c-1.563,0-2.262,0.645-2.363,2.207C6.828,30.423,6.691,34.309,6.654,38.194z
		 M39.747,28.521c0.092-0.031,0.148-0.067,0.204-0.067c1.661-0.006,3.32-0.019,4.981,0.005c0.204,0.003,0.443,0.167,0.602,0.322
		c1.829,1.809,3.645,3.63,5.462,5.45c0.103,0.103,0.184,0.227,0.297,0.371H39.747V28.521z"/>
	<path fill-rule="evenodd" clip-rule="evenodd" fill="#BA3535" d="M9.313,35.349c0,0.142,0.164,0.258,0.365,0.258h26.616
		c0.202,0,0.366-0.116,0.366-0.258V28.08c0-0.142-0.164-0.258-0.366-0.258H9.679c-0.201,0-0.365,0.116-0.365,0.258V35.349z"/>
</g>
</svg>
