<?xml version="1.0" encoding="utf-8"?>
<!-- Generator: Adobe Illustrator 16.0.3, SVG Export Plug-In . SVG Version: 6.00 Build 0)  -->
<!DOCTYPE svg PUBLIC "-//W3C//DTD SVG 1.1//EN" "http://www.w3.org/Graphics/SVG/1.1/DTD/svg11.dtd">
<svg version="1.1" id="Слой_1" xmlns="http://www.w3.org/2000/svg" xmlns:xlink="http://www.w3.org/1999/xlink" x="0px" y="0px"
	 width="61.574px" height="69.002px" viewBox="0 0 61.574 69.002" enable-background="new 0 0 61.574 69.002" xml:space="preserve">
<g>
	<g>
		<path fill-rule="evenodd" clip-rule="evenodd" fill="#A13B36" d="M61.548,20.993c0,0,0.147-1.752-0.266-2.648
			c-0.479-1.039-1.529-1.854-1.529-1.854L33.461,0.807c0,0-1.202-0.707-2.363-0.726c-1.087-0.019-2.75,0.879-2.75,0.879
			L2.817,16.033c0,0-1.484,0.879-2.185,1.805c-0.653,0.867-0.524,2.773-0.524,2.773L0.224,48.47c0,0-0.033,1.828,0.399,2.832
			c0.444,1.036,1.432,1.785,1.432,1.785l26.179,15.302c0,0,2.07,0.61,3.091,0.61c0.919,0,3.091-0.688,3.091-0.688l24.728-14.691
			c0,0,1.743-0.746,2.137-1.701c0.443-1.078,0.229-2.687,0.229-2.687L61.548,20.993z"/>
		<path fill-rule="evenodd" clip-rule="evenodd" fill="#A13B36" d="M61.548,20.993c0,0,0.147-1.752-0.266-2.648
			c-0.479-1.039-1.529-1.854-1.529-1.854L33.461,0.807c0,0-1.202-0.707-2.363-0.726c-1.087-0.019-2.75,0.879-2.75,0.879
			L2.817,16.033c0,0-1.484,0.879-2.185,1.805c-0.653,0.867-0.524,2.773-0.524,2.773L0.224,48.47c0,0-0.033,1.828,0.399,2.832
			c0.444,1.036,1.432,1.785,1.432,1.785l26.179,15.302c0,0,2.07,0.61,3.091,0.61c0.919,0,3.091-0.688,3.091-0.688l24.728-14.691
			c0,0,1.743-0.746,2.137-1.701c0.443-1.078,0.229-2.687,0.229-2.687L61.548,20.993z"/>
		<path fill-rule="evenodd" clip-rule="evenodd" fill="#D04A44" d="M61.283,18.265c-0.479-1.039-1.53-1.854-1.53-1.854L33.462,0.728
			c0,0-1.203-0.707-2.364-0.727c-0.084-0.001-0.172,0.003-0.261,0.012v68.875c0.177,0.02,0.344,0.033,0.487,0.033
			c0.92,0,3.091-0.688,3.091-0.688l24.729-14.69c0,0,1.742-0.748,2.136-1.703c0.444-1.078,0.229-2.686,0.229-2.686l0.039-28.24
			C61.548,20.914,61.695,19.162,61.283,18.265z"/>
	</g>
	<path fill-rule="evenodd" clip-rule="evenodd" fill="#A13B36" d="M61.548,20.993c0,0,0.147-1.752-0.266-2.648
		c-0.479-1.039-1.529-1.854-1.529-1.854L33.461,0.807c0,0-1.202-0.707-2.363-0.726c-1.087-0.019-2.75,0.879-2.75,0.879L2.817,16.033
		c0,0-1.484,0.879-2.185,1.805c-0.653,0.867-0.524,2.773-0.524,2.773L0.224,48.47c0,0-0.033,1.828,0.399,2.832
		c0.444,1.036,1.432,1.785,1.432,1.785l26.179,15.302c0,0,2.07,0.61,3.091,0.61c0.919,0,3.091-0.688,3.091-0.688l24.728-14.691
		c0,0,1.743-0.746,2.137-1.701c0.443-1.078,0.229-2.687,0.229-2.687L61.548,20.993z"/>
	<path fill-rule="evenodd" clip-rule="evenodd" fill="#C43737" d="M61.548,20.993c0,0,0.147-1.752-0.266-2.648
		c-0.479-1.039-1.529-1.854-1.529-1.854L33.461,0.807c0,0-1.202-0.707-2.363-0.726c-1.087-0.019-2.75,0.879-2.75,0.879L2.817,16.033
		c0,0-1.484,0.879-2.185,1.805c-0.653,0.867-0.524,2.773-0.524,2.773L0.224,48.47c0,0-0.033,1.828,0.399,2.832
		c0.444,1.036,1.432,1.785,1.432,1.785l26.179,15.302c0,0,2.07,0.61,3.091,0.61c0.919,0,3.091-0.688,3.091-0.688l24.728-14.691
		c0,0,1.743-0.746,2.137-1.701c0.443-1.078,0.229-2.687,0.229-2.687L61.548,20.993z"/>
	<path fill-rule="evenodd" clip-rule="evenodd" fill="#F24942" d="M61.283,18.265c-0.479-1.039-1.53-1.854-1.53-1.854L33.462,0.728
		c0,0-1.203-0.707-2.364-0.727c-0.084-0.001-0.172,0.003-0.261,0.012v68.875c0.177,0.02,0.344,0.033,0.487,0.033
		c0.92,0,3.091-0.688,3.091-0.688l24.729-14.69c0,0,1.742-0.748,2.136-1.703c0.444-1.078,0.229-2.686,0.229-2.686l0.039-28.24
		C61.548,20.914,61.695,19.162,61.283,18.265z"/>
	<g>
		<path fill="#FFFFFF" d="M39.103,50.374c-2.877,1.294-5.37,1.726-8.773,1.726c-7.959,0-14.958-5.705-14.958-15.102
			c0-9.781,7.143-18.267,17.93-18.267c8.486,0,14.527,5.801,14.527,13.855c0,7.048-3.932,11.458-9.109,11.458
			c-2.253,0-3.883-1.198-4.123-3.691H34.5c-1.534,2.398-3.644,3.691-6.232,3.691c-3.068,0-5.37-2.35-5.37-6.279
			c0-5.898,4.363-11.171,11.267-11.171c2.11,0,4.507,0.527,5.658,1.15l-1.438,8.917c-0.432,2.828-0.097,4.123,1.246,4.172
			c2.062,0.095,4.65-2.541,4.65-8.103c0-6.281-4.027-11.075-11.458-11.075c-7.384,0-13.76,5.706-13.76,14.911
			c0,8.055,5.081,12.561,12.226,12.561c2.444,0,5.081-0.527,6.999-1.486L39.103,50.374z M34.884,30.572
			c-0.384-0.095-0.911-0.191-1.486-0.191c-3.165,0-5.657,3.116-5.657,6.808c0,1.821,0.814,2.973,2.35,2.973
			c1.821,0,3.69-2.254,4.074-5.034L34.884,30.572z"/>
	</g>
</g>
</svg>
