<?xml version="1.0" encoding="utf-8"?>
<!-- Generator: Adobe Illustrator 16.0.3, SVG Export Plug-In . SVG Version: 6.00 Build 0)  -->
<!DOCTYPE svg PUBLIC "-//W3C//DTD SVG 1.1//EN" "http://www.w3.org/Graphics/SVG/1.1/DTD/svg11.dtd">
<svg version="1.1" id="Слой_1" xmlns="http://www.w3.org/2000/svg" xmlns:xlink="http://www.w3.org/1999/xlink" x="0px" y="0px"
	 width="65.17px" height="73.06px" viewBox="0 0 65.17 73.06" enable-background="new 0 0 65.17 73.06" xml:space="preserve">
<g>
	<g>
		<path fill-rule="evenodd" clip-rule="evenodd" fill="#FFAF40" d="M65.236,22.17c0,0,0.157-1.856-0.282-2.807
			c-0.508-1.102-1.621-1.965-1.621-1.965L35.463,0.772c0,0-1.274-0.749-2.506-0.771c-1.152-0.019-2.914,0.934-2.914,0.934
			L2.979,16.912c0,0-1.575,0.933-2.316,1.914c-0.693,0.918-0.555,2.94-0.555,2.94l0.119,29.53c0,0-0.032,1.938,0.425,3.003
			c0.472,1.099,1.518,1.892,1.518,1.892l27.751,16.221c0,0,2.194,0.646,3.276,0.646c0.975,0,3.275-0.729,3.275-0.729l26.214-15.572
			c0,0,1.849-0.793,2.265-1.805c0.47-1.143,0.244-2.848,0.244-2.848L65.236,22.17z"/>
		<path opacity="0.2" fill-rule="evenodd" clip-rule="evenodd" d="M32.681,0.022c-1.138,0.108-2.638,0.913-2.638,0.913L2.979,16.912
			c0,0-1.575,0.933-2.316,1.914c-0.693,0.918-0.555,2.94-0.555,2.94l0.119,29.53c0,0-0.032,1.938,0.425,3.003
			c0.472,1.099,1.518,1.892,1.518,1.892l27.751,16.221c0,0,1.617,0.476,2.76,0.609V0.022z"/>
	</g>
	<rect x="11.171" y="22.277" fill="#EFEEEC" width="44.475" height="32.476"/>
	<rect x="11.171" y="22.277" fill="#E94F35" width="44.475" height="9.241"/>
	<g>
		<path fill="#EFEEEC" d="M14.329,18.609c-0.616,0-1.115,0.406-1.115,0.906v5.523c0,0.5,0.499,0.906,1.115,0.906
			c0.615,0,1.113-0.406,1.113-0.906v-5.523C15.442,19.016,14.944,18.609,14.329,18.609z"/>
		<path fill="#EFEEEC" d="M20.591,18.609c-0.615,0-1.114,0.406-1.114,0.906v5.523c0,0.5,0.499,0.906,1.114,0.906
			s1.115-0.406,1.115-0.906v-5.523C21.706,19.016,21.206,18.609,20.591,18.609z"/>
		<path opacity="0.2" d="M13.214,22.277v2.762c0,0.5,0.499,0.906,1.115,0.906c0.615,0,1.113-0.406,1.113-0.906v-2.762H13.214z"/>
		<path opacity="0.2" d="M19.477,22.277v2.762c0,0.5,0.5,0.906,1.116,0.906c0.615,0,1.113-0.406,1.113-0.906v-2.762H19.477z"/>
		<path fill="#EFEEEC" d="M26.75,18.609c-0.616,0-1.115,0.406-1.115,0.906v5.523c0,0.5,0.499,0.906,1.115,0.906
			c0.615,0,1.113-0.406,1.113-0.906v-5.523C27.863,19.016,27.365,18.609,26.75,18.609z"/>
		<path fill="#EFEEEC" d="M33.012,18.609c-0.615,0-1.114,0.406-1.114,0.906v5.523c0,0.5,0.499,0.906,1.114,0.906
			s1.115-0.406,1.115-0.906v-5.523C34.127,19.016,33.627,18.609,33.012,18.609z"/>
		<path opacity="0.2" d="M25.635,22.277v2.762c0,0.5,0.499,0.906,1.115,0.906c0.615,0,1.113-0.406,1.113-0.906v-2.762H25.635z"/>
		<path opacity="0.2" d="M31.897,22.277v2.762c0,0.5,0.5,0.906,1.116,0.906c0.615,0,1.113-0.406,1.113-0.906v-2.762H31.897z"/>
		<path fill="#EFEEEC" d="M39.759,18.609c-0.616,0-1.115,0.406-1.115,0.906v5.523c0,0.5,0.499,0.906,1.115,0.906
			c0.615,0,1.113-0.406,1.113-0.906v-5.523C40.872,19.016,40.374,18.609,39.759,18.609z"/>
		<path fill="#EFEEEC" d="M46.021,18.609c-0.615,0-1.114,0.406-1.114,0.906v5.523c0,0.5,0.499,0.906,1.114,0.906
			s1.115-0.406,1.115-0.906v-5.523C47.136,19.016,46.636,18.609,46.021,18.609z"/>
		<path opacity="0.2" d="M38.644,22.277v2.762c0,0.5,0.499,0.906,1.115,0.906c0.615,0,1.113-0.406,1.113-0.906v-2.762H38.644z"/>
		<path opacity="0.2" d="M44.906,22.277v2.762c0,0.5,0.5,0.906,1.116,0.906c0.615,0,1.113-0.406,1.113-0.906v-2.762H44.906z"/>
		<path fill="#EFEEEC" d="M52.488,18.609c-0.615,0-1.114,0.406-1.114,0.906v5.523c0,0.5,0.499,0.906,1.114,0.906
			s1.115-0.406,1.115-0.906v-5.523C53.604,19.016,53.104,18.609,52.488,18.609z"/>
		<path opacity="0.2" d="M51.374,22.277v2.762c0,0.5,0.5,0.906,1.116,0.906c0.615,0,1.113-0.406,1.113-0.906v-2.762H51.374z"/>
	</g>
	<g>
		<path fill="#54596C" d="M22.304,48.32h-1.917l-0.332-2.197h-2.333l-0.329,2.197h-1.746l1.938-12.107h2.783L22.304,48.32z
			 M17.964,44.479h1.833l-0.918-6.122L17.964,44.479z"/>
		<path fill="#54596C" d="M25.678,43.494l-0.589,1.107v3.719h-1.903V36.213h1.903v5.274l2.489-5.274h1.904l-2.647,5.396l2.647,6.711
			h-1.955L25.678,43.494z"/>
		<path fill="#54596C" d="M30.348,36.213h1.899v10.378h2.163V36.213h1.938v10.412h0.831v3.32h-1.853V48.32h-4.979V36.213z"/>
		<path fill="#54596C" d="M40.171,48.32h-1.955V36.213h1.695v7.662l0.691-2.664l1.556-4.998h2.093V48.32h-1.713v-8.527l-0.776,2.975
			L40.171,48.32z"/>
		<path fill="#54596C" d="M45.254,48.32c0.189-0.449,0.208-0.883,0.208-1.471v-1.867c0-1.264,0.311-2.18,1.263-2.578
			c-0.847-0.398-1.247-1.211-1.247-2.455v-0.951c0-1.869,0.85-2.785,2.819-2.785h2.873V48.32h-1.903v-4.93h-0.657
			c-0.865,0-1.247,0.414-1.247,1.539v1.902c0,0.986-0.068,1.176-0.17,1.488H45.254z M48.35,37.942c-0.674,0-0.968,0.38-0.968,1.245
			v1.193c0,0.969,0.431,1.279,1.141,1.279h0.744v-3.718H48.35z"/>
	</g>
</g>
</svg>
