<?xml version="1.0" encoding="utf-8"?>
<!-- Generator: Adobe Illustrator 16.0.3, SVG Export Plug-In . SVG Version: 6.00 Build 0)  -->
<!DOCTYPE svg PUBLIC "-//W3C//DTD SVG 1.1//EN" "http://www.w3.org/Graphics/SVG/1.1/DTD/svg11.dtd">
<svg version="1.1" id="Слой_1" xmlns="http://www.w3.org/2000/svg" xmlns:xlink="http://www.w3.org/1999/xlink" x="0px" y="0px"
	 width="61.574px" height="69.002px" viewBox="0 0 61.574 69.002" enable-background="new 0 0 61.574 69.002" xml:space="preserve">
<g>
	<path fill-rule="evenodd" clip-rule="evenodd" fill="#FFAF40" d="M0.143,48.062c0,0-0.149,1.755,0.265,2.65
		c0.479,1.042,1.532,1.858,1.532,1.858l26.321,15.702c0,0,1.203,0.707,2.367,0.728c1.088,0.019,2.752-0.88,2.752-0.88l25.561-15.092
		c0,0,1.485-0.88,2.186-1.808c0.656-0.866,0.525-2.776,0.525-2.776l-0.114-27.891c0,0,0.031-1.83-0.4-2.836
		c-0.444-1.036-1.434-1.787-1.434-1.787L33.496,0.61c0,0-2.073-0.61-3.095-0.61c-0.92,0-3.095,0.688-3.095,0.688L2.549,15.397
		c0,0-1.746,0.747-2.14,1.704c-0.442,1.079-0.229,2.688-0.229,2.688L0.143,48.062z"/>
	<path opacity="0.2" fill-rule="evenodd" clip-rule="evenodd" d="M0.388,50.712c0.479,1.042,1.531,1.858,1.531,1.858l26.322,15.7
		c0,0,1.204,0.709,2.368,0.729c0.083,0.001,0.171-0.004,0.261-0.013V0.034C30.693,0.014,30.527,0,30.381,0
		c-0.92,0-3.094,0.688-3.094,0.688L2.53,15.397c0,0-1.745,0.747-2.138,1.704c-0.446,1.079-0.229,2.688-0.229,2.688L0.124,48.062
		C0.124,48.062-0.025,49.817,0.388,50.712z"/>
	<g>
		<path fill="#842828" d="M61.549,23.036c-0.004-1.037-0.829-1.673-1.834-1.413l-17.437,4.513c-1.005,0.26-1.613,1.294-1.354,2.298
			l3.611,13.952c0.26,1.005,1.294,1.613,2.299,1.354l12.956-3.354c1.005-0.26,1.822-1.321,1.818-2.358L61.549,23.036z"/>
	</g>
	<path fill="#E0C3AA" d="M46.314,40.876l-0.681,0.339c-1.188,1.365-21.393,11.5-21.393,11.5l-8.936-16.247l10.792-7.431
		L46.314,40.876z"/>
	<path fill="#F24942" d="M35.561,39.423L12.607,27.461c-0.738-0.384-1.646-0.099-2.031,0.64L4.301,40.14
		c-0.385,0.738-0.098,1.646,0.64,2.031l22.952,11.963c0.738,0.383,1.647,0.098,2.031-0.639l6.273-12.043
		C36.583,40.716,36.296,39.808,35.561,39.423z"/>
	
		<rect x="7.55" y="35.493" transform="matrix(0.8868 0.4621 -0.4621 0.8868 19.7956 -5.927)" fill="#6F7171" width="28.894" height="3.908"/>
	
		<rect x="7.698" y="40.274" transform="matrix(0.8868 0.4621 -0.4621 0.8868 21.4279 -4.4938)" fill="#FEFFFE" width="24.379" height="2.442"/>
	<path fill="#FDDCBB" d="M19.645,25.925c-1.903,1.641-3.783,3.314-5.657,4.992c1.535,1.308,3.848,1.494,5.594,0.504
		c0.872-0.439,1.643-1.176,2.53-1.59L19.645,25.925z"/>
	<g>
		<path fill="#DABDA4" d="M8.335,41.674c1.282-0.697,3.147,0.295,2.994,1.825c-0.153,1.064-0.462,2.404-1.608,2.809
			C8.5,46.824,6.856,45.856,6.96,44.472C7.076,43.452,7.332,42.179,8.335,41.674z"/>
		<path fill="#DABDA4" d="M13.025,43.008c0.955-0.619,2.408-0.294,2.922,0.751c0.549,1.004-0.085,2.087-0.34,3.08
			c-0.386,1.062-0.503,2.496-1.719,2.953c-1.285,0.601-2.908-0.521-2.827-1.93c0.228-1.131,0.649-2.209,0.978-3.314
			C12.232,43.974,12.425,43.288,13.025,43.008z"/>
		<path fill="#DABDA4" d="M18.377,43.343c1.334-0.662,3.105,0.551,2.862,2.041c-0.491,1.84-1.094,3.652-1.692,5.457
			c-0.465,1.537-2.861,1.74-3.627,0.354c-0.793-1.319,0.271-2.754,0.538-4.076C17.009,45.843,16.96,44.02,18.377,43.343z"/>
		<path fill="#DABDA4" d="M22.661,46.212c1.369-0.77,3.284,0.52,2.934,2.093c-0.438,1.601-0.923,3.201-1.476,4.763
			c-0.521,1.28-2.363,1.513-3.296,0.57c-0.543-0.516-0.693-1.34-0.479-2.039c0.372-1.29,0.794-2.565,1.178-3.852
			C21.685,47.119,22.032,46.475,22.661,46.212z"/>
		<path fill="#FDDCBB" d="M43.161,28.01c-1.688,0.348-4.517,0.857-6.236,0.653c-2.654-0.029-4.881-1.645-7.263-2.605
			c-1.752-0.963-3.807-0.715-5.717-0.985c-1.284-0.063-2.812-0.499-3.869,0.483c-0.143,0.123-0.287,0.246-0.431,0.369
			c-1.903,1.641-3.783,3.314-5.657,4.992c1.535,1.308,3.848,1.494,5.594,0.504c0.872-0.439,1.643-1.176,2.53-1.59
			c0.441-0.205,0.91-0.332,1.435-0.305c1.626,0.08,3.348,0.314,4.729,1.241c5.879,3.552,10.163,9.078,18.04,10.448
			C45.027,36.865,44.468,32.351,43.161,28.01z"/>
	</g>
	<polygon fill="#F24942" points="61.541,21.142 41.953,26.22 46.411,43.822 61.617,39.886 	"/>
	<polygon opacity="0.2" points="61.579,30.757 44.286,35.238 46.411,43.822 61.617,39.886 	"/>
</g>
</svg>
