<?xml version="1.0" encoding="utf-8"?>
<!-- Generator: Adobe Illustrator 16.0.3, SVG Export Plug-In . SVG Version: 6.00 Build 0)  -->
<!DOCTYPE svg PUBLIC "-//W3C//DTD SVG 1.1//EN" "http://www.w3.org/Graphics/SVG/1.1/DTD/svg11.dtd">
<svg version="1.1" id="Слой_1" xmlns="http://www.w3.org/2000/svg" xmlns:xlink="http://www.w3.org/1999/xlink" x="0px" y="0px"
	 width="61.574px" height="69.002px" viewBox="0 0 61.574 69.002" enable-background="new 0 0 61.574 69.002" xml:space="preserve">
<g>
	<path fill-rule="evenodd" clip-rule="evenodd" fill="#A13B36" d="M61.547,20.993c0,0,0.149-1.751-0.265-2.647
		c-0.479-1.039-1.528-1.854-1.528-1.854L33.46,0.806c0,0-1.202-0.706-2.363-0.727c-1.088-0.018-2.75,0.879-2.75,0.879L2.818,16.034
		c0,0-1.486,0.878-2.187,1.804c-0.652,0.867-0.523,2.774-0.523,2.774l0.114,27.857c0,0-0.032,1.828,0.399,2.833
		c0.445,1.035,1.434,1.785,1.434,1.785l26.177,15.302c0,0,2.07,0.61,3.092,0.61c0.919,0,3.091-0.688,3.091-0.688l24.729-14.691
		c0,0,1.742-0.748,2.136-1.702c0.443-1.078,0.229-2.686,0.229-2.686L61.547,20.993z"/>
	<path fill-rule="evenodd" clip-rule="evenodd" fill="#C43737" d="M61.547,20.993c0,0,0.149-1.751-0.265-2.647
		c-0.479-1.039-1.528-1.854-1.528-1.854L33.46,0.806c0,0-1.202-0.706-2.363-0.727c-1.088-0.018-2.75,0.879-2.75,0.879L2.818,16.034
		c0,0-1.486,0.878-2.187,1.804c-0.652,0.867-0.523,2.774-0.523,2.774l0.114,27.857c0,0-0.032,1.828,0.399,2.833
		c0.445,1.035,1.434,1.785,1.434,1.785l26.177,15.302c0,0,2.07,0.61,3.092,0.61c0.919,0,3.091-0.688,3.091-0.688l24.729-14.691
		c0,0,1.742-0.748,2.136-1.702c0.443-1.078,0.229-2.686,0.229-2.686L61.547,20.993z"/>
	<path fill-rule="evenodd" clip-rule="evenodd" fill="#F24942" d="M61.282,18.266c-0.479-1.039-1.527-1.854-1.527-1.854
		L33.461,0.727c0,0-1.203-0.707-2.364-0.727c-0.084-0.001-0.172,0.003-0.262,0.012v68.873c0.178,0.021,0.344,0.034,0.488,0.034
		c0.92,0,3.091-0.686,3.091-0.686l24.729-14.693c0,0,1.743-0.747,2.137-1.703c0.442-1.076,0.229-2.686,0.229-2.686l0.038-28.239
		C61.548,20.913,61.696,19.162,61.282,18.266z"/>
	<path fill="#5D5D5D" d="M30.835,15.643c-0.798,0-1.537,0.261-2.081,0.736L15.99,27.531h-0.001l-1.863,1.628h0.039l1.824,1.595
		h0.001l12.765,11.151c0.544,0.474,1.283,0.735,2.081,0.735c0.797,0,1.536-0.262,2.079-0.735l12.766-11.151h0.007l1.825-1.595h0.039
		l-1.864-1.628h-0.007L32.915,16.379C32.372,15.904,31.632,15.643,30.835,15.643z"/>
	<path opacity="0.3" d="M30.835,15.643c-0.798,0-1.537,0.261-2.081,0.736L15.99,27.531h-0.001l-1.791,1.564h33.282l-1.792-1.564
		h-0.007L32.915,16.379C32.372,15.904,31.632,15.643,30.835,15.643z"/>
	
		<rect x="18.754" y="30.885" transform="matrix(0.956 0.2935 -0.2935 0.956 12.8064 -7.4602)" fill="#FFFFFF" width="25.015" height="16.117"/>
	
		<rect x="22.347" y="34.071" transform="matrix(0.956 0.2934 -0.2934 0.956 11.6454 -8.7102)" opacity="0.1" width="25.015" height="0.778"/>
	
		<rect x="21.628" y="35.915" transform="matrix(0.956 0.2935 -0.2935 0.956 12.1562 -8.4185)" opacity="0.1" width="25.014" height="0.778"/>
	
		<rect x="20.908" y="37.76" transform="matrix(0.956 0.2935 -0.2935 0.956 12.6663 -8.1265)" opacity="0.1" width="25.015" height="0.778"/>
	<path fill="#DADADA" d="M43.866,24.069h-0.007l-10.018-8.751c-0.826-0.723-1.916-1.084-3.006-1.084
		c-1.091,0-2.181,0.361-3.007,1.084l-10.018,8.751l0,0l-5.036,4.399v0.69v0.656v0.524v0.67v4.435v12.779
		c0,0.823,0.269,1.585,0.724,2.201c-0.001,0.001-0.001,0.001-0.001,0.003c0.109,0.146,0.23,0.285,0.357,0.414
		c0.005,0.003,0.007,0.005,0.01,0.008c0.039,0.039,0.079,0.078,0.119,0.114c0.007,0.005,0.012,0.01,0.017,0.015
		c0.119,0.107,0.245,0.205,0.376,0.297c0.014,0.009,0.024,0.018,0.038,0.026c0.031,0.021,0.063,0.04,0.094,0.061
		c0.026,0.017,0.052,0.032,0.078,0.048c0.028,0.018,0.058,0.033,0.087,0.051c0.031,0.018,0.063,0.033,0.094,0.051
		c0.017,0.008,0.033,0.019,0.05,0.026c0,0,0.003,0.001,0.004,0.001c0.5,0.251,1.064,0.393,1.663,0.393h28.703
		c2.049,0,3.709-1.659,3.709-3.708V35.444l0,0v-5.11V29.82v-0.662v-0.696L43.866,24.069z M15.99,27.531l12.765-11.152
		c0.544-0.475,1.283-0.736,2.081-0.736c0.797,0,1.536,0.261,2.079,0.736l12.766,11.152h0.007l1.864,1.628h-0.039l-1.825,1.595
		h-0.007L32.915,41.905c-0.543,0.474-1.282,0.735-2.079,0.735c-0.798,0-1.537-0.262-2.081-0.735L15.99,30.753h-0.001l-1.824-1.595
		h-0.039L15.99,27.531L15.99,27.531z M47.675,31.009v17.214c0,0.356-0.076,0.696-0.212,1.003c-0.089-0.09-0.185-0.181-0.29-0.271
		L37.08,40.136l6.779-5.922h0.007l3.806-3.324C47.674,30.929,47.675,30.969,47.675,31.009z M13.997,48.223V35.444v-4.435
		c0-0.042,0-0.083,0.003-0.125l3.812,3.33l0,0l10.018,8.75c0.826,0.724,1.916,1.084,3.007,1.084c1.09,0,2.18-0.36,3.006-1.084
		l2.988-2.607l-0.819,0.715l10.236,8.942c0.063,0.054,0.116,0.104,0.165,0.152c-0.067,0.003-0.143,0.005-0.224,0.005H15.478
		c-0.083,0-0.156-0.002-0.224-0.005c0.048-0.048,0.103-0.099,0.164-0.152l10.239-8.944l-1.07-0.936l-10.096,8.82
		c-0.104,0.09-0.198,0.18-0.285,0.268C14.072,48.917,13.997,48.579,13.997,48.223z"/>
	<path fill="#DADADA" d="M43.866,24.069h-0.007l-10.018-8.751c-0.826-0.723-1.916-1.084-3.006-1.084
		c-1.091,0-2.181,0.361-3.007,1.084l-10.018,8.751l0,0l-5.036,4.399v0.69v0.656v0.524v0.67v4.435v12.779
		c0,0.823,0.269,1.585,0.724,2.201c-0.001,0.001-0.001,0.001-0.001,0.003c0.109,0.146,0.23,0.285,0.357,0.414
		c0.005,0.003,0.007,0.005,0.01,0.008c0.039,0.039,0.079,0.078,0.119,0.114c0.007,0.005,0.012,0.01,0.017,0.015
		c0.119,0.107,0.245,0.205,0.376,0.297c0.014,0.009,0.024,0.018,0.038,0.026c0.031,0.021,0.063,0.04,0.094,0.061
		c0.026,0.017,0.052,0.032,0.078,0.048c0.028,0.018,0.058,0.033,0.087,0.051c0.031,0.018,0.063,0.033,0.094,0.051
		c0.017,0.008,0.033,0.019,0.05,0.026c0,0,0.003,0.001,0.004,0.001c0.5,0.251,1.064,0.393,1.663,0.393h28.703
		c2.049,0,3.709-1.659,3.709-3.708V35.444l0,0v-5.11V29.82v-0.662v-0.696L43.866,24.069z M15.99,27.531l12.765-11.152
		c0.544-0.475,1.283-0.736,2.081-0.736c0.797,0,1.536,0.261,2.079,0.736l12.766,11.152h0.007l1.864,1.628h-0.039l-1.825,1.595
		h-0.007L32.915,41.905c-0.543,0.474-1.282,0.735-2.079,0.735c-0.798,0-1.537-0.262-2.081-0.735L15.99,30.753h-0.001l-1.824-1.595
		h-0.039L15.99,27.531L15.99,27.531z M47.675,31.009v17.214c0,0.356-0.076,0.696-0.212,1.003c-0.089-0.09-0.185-0.181-0.29-0.271
		L37.08,40.136l6.779-5.922h0.007l3.806-3.324C47.674,30.929,47.675,30.969,47.675,31.009z M13.997,48.223V35.444v-4.435
		c0-0.042,0-0.083,0.003-0.125l3.812,3.33l0,0l10.018,8.75c0.826,0.724,1.916,1.084,3.007,1.084c1.09,0,2.18-0.36,3.006-1.084
		l2.988-2.607l-0.819,0.715l10.236,8.942c0.063,0.054,0.116,0.104,0.165,0.152c-0.067,0.003-0.143,0.005-0.224,0.005H15.478
		c-0.083,0-0.156-0.002-0.224-0.005c0.048-0.048,0.103-0.099,0.164-0.152l10.239-8.944l-1.07-0.936l-10.096,8.82
		c-0.104,0.09-0.198,0.18-0.285,0.268C14.072,48.917,13.997,48.579,13.997,48.223z"/>
	<path opacity="0.3" d="M34.021,40.145c-0.641,0.474-1.511,0.735-2.454,0.735c-0.941,0-1.813-0.262-2.453-0.735l-14.917-11.05
		l-0.072,0.063h0.039l1.824,1.595h0.001l12.765,11.151c0.544,0.474,1.283,0.735,2.081,0.735c0.797,0,1.536-0.262,2.079-0.735
		l7.083-6.187L34.021,40.145z"/>
	<path fill="#C1C1C1" d="M47.672,30.891l-3.806,3.324h-0.007l-6.779,5.922l10.093,8.818c0.105,0.091,0.201,0.182,0.29,0.271
		c0.136-0.307,0.212-0.646,0.212-1.003V31.009C47.675,30.969,47.674,30.929,47.672,30.891z"/>
	<path fill="#C1C1C1" d="M14.492,48.955l10.096-8.82l0.016,0.014l0,0l-6.792-5.934l0,0L14,30.884
		c-0.003,0.042-0.003,0.083-0.003,0.125v4.435v12.779c0,0.355,0.075,0.693,0.21,0.999C14.293,49.134,14.388,49.044,14.492,48.955z"
		/>
	<path fill="#AFAFAF" d="M13.499,50.424c-0.001,0.001-0.001,0.001-0.001,0.003c0.109,0.146,0.23,0.285,0.357,0.414
		c0.005,0.003,0.007,0.005,0.01,0.008c0.039,0.039,0.079,0.078,0.119,0.114c0.007,0.005,0.012,0.01,0.017,0.015
		c0.119,0.107,0.245,0.205,0.376,0.297c0.014,0.009,0.024,0.018,0.038,0.026c0.031,0.021,0.063,0.04,0.094,0.061
		c0.026,0.017,0.052,0.032,0.078,0.048c0.028,0.018,0.058,0.033,0.087,0.051c0.031,0.018,0.063,0.033,0.094,0.051
		c0.017,0.008,0.033,0.019,0.05,0.026c0,0,0.003,0.001,0.004,0.001c0.5,0.251,1.064,0.393,1.663,0.393h28.703
		c1.378,0,2.58-0.752,3.221-1.867l-4.227-3.691l0,0l-10.255-8.959c-0.847-0.74-1.964-1.109-3.079-1.109s-2.231,0.369-3.078,1.109
		l-10.255,8.959h-0.007l-4.237,3.701C13.339,50.195,13.416,50.312,13.499,50.424z"/>
</g>
</svg>
