<?xml version="1.0" encoding="utf-8"?>
<!-- Generator: Adobe Illustrator 16.0.3, SVG Export Plug-In . SVG Version: 6.00 Build 0)  -->
<!DOCTYPE svg PUBLIC "-//W3C//DTD SVG 1.1//EN" "http://www.w3.org/Graphics/SVG/1.1/DTD/svg11.dtd">
<svg version="1.1" id="Слой_1" xmlns="http://www.w3.org/2000/svg" xmlns:xlink="http://www.w3.org/1999/xlink" x="0px" y="0px"
	 width="65.17px" height="73.06px" viewBox="0 0 65.17 73.06" enable-background="new 0 0 65.17 73.06" xml:space="preserve">
<g>
	<path fill-rule="evenodd" clip-rule="evenodd" fill="#1ED8D3" d="M65.252,51.295l-0.119-29.53c0,0,0.034-1.938-0.423-3.002
		c-0.474-1.1-1.519-1.893-1.519-1.893L35.44,0.65c0,0-2.194-0.647-3.277-0.647c-0.974,0-3.276,0.729-3.276,0.729L2.675,16.304
		c0,0-1.85,0.793-2.267,1.805c-0.469,1.143-0.242,2.847-0.242,2.847L0.125,50.891c0,0-0.157,1.857,0.28,2.809
		c0.508,1.102,1.622,1.965,1.622,1.965l6.712,4.004l47.377,0.182l6.265-3.699c0,0,1.575-0.934,2.318-1.914
		C65.391,53.316,65.252,51.295,65.252,51.295z"/>
	<path opacity="0.2" fill-rule="evenodd" clip-rule="evenodd" d="M32.378,0.016c-0.071-0.004-0.15-0.014-0.215-0.014
		c-0.974,0-3.276,0.729-3.276,0.729L2.675,16.304c0,0-1.85,0.793-2.267,1.805c-0.469,1.143-0.242,2.847-0.242,2.847L0.125,50.891
		c0,0-0.157,1.857,0.28,2.809c0.508,1.102,1.622,1.965,1.622,1.965l27.871,16.627c0,0,1.257,0.736,2.479,0.768V0.016z"/>
	<path fill="#54596A" d="M20.915,52.422c1.145-0.51,2.24-1.117,3.374-1.654c-0.105,3.891,1.081,7.686,2.67,11.195
		c0.671,1.43,1.408,2.832,2.214,4.193c0.928,1.648,2.001,3.209,3.027,4.793c-1.244-0.492-2.346-1.254-3.514-1.904
		c-3.184-1.813-6.346-3.678-9.539-5.48c-0.774-0.443-1.57-0.988-1.928-1.842c-0.43-0.957-0.24-2.082,0.282-2.963
		c0.98-1.727,1.988-3.438,2.988-5.15c0.214-0.352,0.347-0.746,0.416-1.146L20.915,52.422z"/>
	<g>
		<path fill="#DEDCD9" d="M24.371,49.178c2.224,1.912,5.069,3.236,8.048,3.166c2.976,0.109,5.825-1.242,8.045-3.148
			c0.075,0.518,0.09,1.039,0.082,1.563c0.099,3.893-1.081,7.689-2.679,11.199c-1.114-1.438-1.865-3.117-2.808-4.67
			c-0.903-1.486-1.725-3.021-2.639-4.504c-0.93,1.584-1.846,3.178-2.756,4.775c-0.942,1.443-1.594,3.086-2.706,4.404
			c-1.589-3.51-2.775-7.305-2.67-11.195C24.283,50.236,24.296,49.703,24.371,49.178z"/>
	</g>
	<g>
		<path fill="#EF6261" d="M29.665,57.559c0.91-1.598,1.826-3.191,2.756-4.775c0.914,1.482,1.735,3.018,2.639,4.504
			c-0.405,0.957-1.063,1.775-1.571,2.676c0.645,2.131,1.429,4.219,2.076,6.348c-0.966,1.658-2.031,3.258-3.107,4.848
			c-0.02-0.016-0.061-0.045-0.082-0.061L32.2,70.949c-1.026-1.584-2.1-3.145-3.027-4.793c0.662-2.057,1.324-4.113,1.945-6.186
			C30.668,59.146,30.169,58.352,29.665,57.559z"/>
	</g>
	<path fill="#A6A3A1" d="M35.004,57.277c0.942,1.551,1.692,3.232,2.81,4.67c-0.696,1.486-1.471,2.938-2.306,4.354
		c-0.648-2.131-1.431-4.217-2.074-6.348C33.94,59.053,34.599,58.234,35.004,57.277z"/>
	<path fill="#A6A3A1" d="M29.608,57.549c0.503,0.793,1.006,1.586,1.452,2.412c-0.619,2.072-1.281,4.129-1.945,6.186
		c-0.805-1.361-1.54-2.762-2.213-4.195C28.014,60.633,28.667,58.99,29.608,57.549z"/>
	<path fill="#414654" d="M52.281,56.627c-3.917-1.947-7.822-3.918-11.735-5.869c0.099,3.893-1.081,7.689-2.679,11.199
		c-0.694,1.488-1.469,2.938-2.303,4.354c-0.966,1.658-2.031,3.258-3.107,4.848c-0.047,0.041-0.077,0.074-0.122,0.113
		c0.012-0.059,0.03-0.111,0.04-0.174L32.2,70.949c-1.244-0.492-2.346-1.254-3.514-1.904c-3.184-1.813-6.346-3.678-9.539-5.48
		c-0.774-0.443-1.57-0.988-1.928-1.842c-0.43-0.957-0.24-2.082,0.282-2.963c0.98-1.727,1.988-3.438,2.988-5.15
		c0.214-0.352,0.347-0.746,0.416-1.146c-2.784,1.373-5.557,2.779-8.34,4.162c-1.119,0.611-2.353,1.125-3.189,2.121
		c-0.241,0.281-0.439,0.586-0.605,0.906l21.159,12.623c0,0,1.274,0.748,2.505,0.77c1.154,0.02,2.916-0.932,2.916-0.932
		l20.797-12.279c-0.183-0.387-0.402-0.756-0.687-1.088C54.619,57.756,53.396,57.236,52.281,56.627z"/>
	<path fill="#54596C" d="M43.92,52.412c-1.145-0.51-2.244-1.117-3.374-1.654c0.104,3.893-1.081,7.686-2.67,11.193
		c-0.671,1.434-1.408,2.834-2.213,4.195c-0.931,1.648-2.001,3.209-3.029,4.793c1.242-0.492,2.349-1.254,3.515-1.904
		c3.186-1.813,6.346-3.678,9.539-5.482c0.774-0.441,1.57-0.986,1.928-1.84c0.43-0.957,0.24-2.082-0.282-2.963
		c-0.98-1.727-1.988-3.438-2.988-5.152c-0.218-0.35-0.347-0.744-0.416-1.145L43.92,52.412z"/>
	<path fill="#F4D3B5" d="M45.712,31.123c0.038-1.875-0.317-3.738-0.878-5.52c-0.705-2.131-1.903-4.128-3.592-5.619
		c-2.398-2.123-5.693-3.057-8.858-2.924c-1.869-0.068-3.761,0.207-5.528,0.832c-3.095,1.027-5.587,3.541-6.721,6.585
		c-1.438,3.464-0.932,7.274-0.996,10.921c0.049,1.562-0.074,3.127,0.075,4.686c0.552,3.502,2.479,6.707,5.1,9.063
		c2.238,1.926,5.104,3.26,8.104,3.189c2.995,0.109,5.863-1.25,8.102-3.17c2.749-2.473,4.757-5.887,5.173-9.592
		C45.742,36.757,45.696,33.941,45.712,31.123z"/>
	<path fill="#704624" d="M35.392,15.055h-2.974l-0.017,1.993v-1.993h-2.974c-7.234,0-13.1,6.089-13.1,13.597v4.59h2.777
		c-0.036-2.563,0.024-5.129,1.021-7.528c0.802-2.159,2.089-6.223,4.196-5.32c3.141,1.346,3.492,5.94,7.022,5.94h1.057h0.017h1.057
		c3.53,0,3.882-4.595,7.021-5.94c2.108-0.902,3.396,3.161,4.198,5.32c0.994,2.399,1.056,4.966,1.021,7.528h2.775v-4.59
		C48.491,21.144,42.626,15.055,35.392,15.055z"/>
	<g>
		<path fill="#343433" d="M27.371,30.368c-0.264,0-0.518,0.046-0.748,0.132c-0.912,0.295-1.572,1.163-1.603,2.102
			c-0.059,0.619,0.164,1.256,0.61,1.748c0.448,0.492,1.063,0.773,1.686,0.773l0.053-0.002l0.094,0.002
			c0.649,0,1.281-0.303,1.731-0.831c0.449-0.524,0.649-1.19,0.553-1.806C29.667,31.318,28.602,30.368,27.371,30.368z"/>
		<path fill="#343433" d="M37.412,30.37c-0.235,0-0.468,0.036-0.679,0.107c-0.99,0.282-1.717,1.261-1.688,2.262
			c-0.021,0.593,0.218,1.194,0.66,1.652c0.45,0.468,1.059,0.737,1.666,0.737c0.091,0,0.184-0.007,0.255-0.018
			c0.655-0.031,1.274-0.375,1.697-0.942c0.429-0.575,0.584-1.277,0.425-1.911C39.551,31.199,38.525,30.37,37.412,30.37z"/>
	</g>
	<path fill="#5B5B5A" d="M34.818,39.48h-2.385h-0.048h-2.385c-2.175,0-3.937,1.764-3.937,3.938h2.383h7.924h2.383
		C38.754,41.244,36.992,39.48,34.818,39.48z"/>
	<path fill="#444444" d="M32.368,39.48h-2.367c-2.175,0-3.937,1.764-3.937,3.938h2.383h3.921V39.48z"/>
	<path fill="#BF3F3D" d="M32.419,52.787c-0.929,1.582-1.845,3.176-2.754,4.771c0.504,0.793,1.003,1.588,1.453,2.412
		c-0.621,2.072-1.283,4.129-1.945,6.186c0.928,1.648,2.001,3.209,3.027,4.793l0.175,0.148c0.012,0.008,0.027,0.021,0.044,0.033
		V52.787z"/>
	<path fill="#FD942A" d="M32.447,6.525c-10.288,0-18.628,7.699-18.628,17.197v3.18c0,0.129,0.018,0.252,0.021,0.378h37.213
		c0.003-0.126,0.021-0.249,0.021-0.378v-3.18C51.073,14.224,42.733,6.525,32.447,6.525z"/>
	<path fill="#D74322" d="M32.634,6.534V27.28h18.419c0.003-0.126,0.021-0.249,0.021-0.378v-3.18
		C51.073,14.283,42.833,6.627,32.634,6.534z"/>
	<polygon fill="#F9732B" points="37.464,5.296 27.429,5.296 27.429,23.425 13.829,23.425 13.829,27.28 27.429,27.28 37.464,27.28 
		51.063,27.28 51.063,23.425 37.464,23.425 	"/>
	<path opacity="0.6" fill="#FFFEFF" d="M22.945,14.681c0,0.77-0.817,1.393-1.827,1.393l0,0c-1.009,0-1.826-0.623-1.826-1.393v-1.239
		c0-0.769,0.817-1.392,1.826-1.392l0,0c1.01,0,1.827,0.623,1.827,1.392V14.681z"/>
</g>
</svg>
