<?xml version="1.0" encoding="utf-8"?>
<!-- Generator: Adobe Illustrator 16.0.3, SVG Export Plug-In . SVG Version: 6.00 Build 0)  -->
<!DOCTYPE svg PUBLIC "-//W3C//DTD SVG 1.1//EN" "http://www.w3.org/Graphics/SVG/1.1/DTD/svg11.dtd">
<svg version="1.1" id="Слой_1" xmlns="http://www.w3.org/2000/svg" xmlns:xlink="http://www.w3.org/1999/xlink" x="0px" y="0px"
	 width="65.17px" height="73.06px" viewBox="0 0 65.17 73.06" enable-background="new 0 0 65.17 73.06" xml:space="preserve">
<g>
	<path fill-rule="evenodd" clip-rule="evenodd" fill="#75D16B" d="M0.125,50.889c0,0-0.157,1.857,0.28,2.809
		c0.508,1.102,1.622,1.965,1.622,1.965l27.871,16.627c0,0,1.274,0.748,2.505,0.77c1.154,0.02,2.916-0.932,2.916-0.932l27.062-15.979
		c0,0,1.575-0.934,2.318-1.914c0.691-0.92,0.553-2.941,0.553-2.941l-0.119-29.529c0,0,0.034-1.938-0.423-3.002
		c-0.474-1.099-1.519-1.893-1.519-1.893L35.44,0.647c0,0-2.194-0.647-3.277-0.647c-0.974,0-3.276,0.729-3.276,0.729L2.675,16.303
		c0,0-1.85,0.792-2.267,1.804c-0.469,1.144-0.242,2.847-0.242,2.847L0.125,50.889z"/>
	<path opacity="0.2" fill-rule="evenodd" clip-rule="evenodd" d="M32.402,0.014C32.331,0.009,32.252,0,32.188,0
		c-0.974,0-3.276,0.729-3.276,0.729L2.699,16.303c0,0-1.85,0.792-2.267,1.804c-0.469,1.144-0.242,2.847-0.242,2.847L0.149,50.889
		c0,0-0.157,1.857,0.28,2.809c0.508,1.102,1.622,1.965,1.622,1.965l27.871,16.627c0,0,1.257,0.736,2.479,0.768V0.014z"/>
	<path fill="#CBD8D7" d="M54.004,28.771l-6.337-10H32.444v-0.004h-0.009H16.941h-0.008l-6.064,9.992v0.012v5.186v0.014h0.008h3.188
		v0.002l0,0v5.994l0,0V54.77v0.006c0,1.545,1.251,2.797,2.796,2.797h0.007l0,0h15.568h0.009h15.577c1.544,0,2.795-1.252,2.795-2.799
		V33.977l0,0l0,0v-0.006h3.188h0.007v-5.199H54.004z"/>
	<polyline opacity="0.3" points="50.813,33.973 14.067,33.973 14.067,39.967 44.927,39.967 50.813,33.973 	"/>
	<rect x="10.869" y="29.01" fill="#A2AFAF" width="43.142" height="4.961"/>
	<rect x="20.246" y="43.369" fill="#FFFFFF" width="23.628" height="11.6"/>
	<path fill="#252327" d="M39.771,39.57c0,0.883-0.717,1.6-1.601,1.6H25.394c-0.884,0-1.6-0.717-1.6-1.6l0,0
		c0-0.885,0.716-1.6,1.6-1.6H38.17C39.054,37.971,39.771,38.686,39.771,39.57L39.771,39.57z"/>
	<g>
		<g>
			<circle fill-rule="evenodd" clip-rule="evenodd" fill="#FF4740" cx="51.867" cy="56.68" r="10.213"/>
			<path opacity="0.25" fill-rule="evenodd" clip-rule="evenodd" fill="#181818" d="M62.08,56.68
				c0-5.641-4.573-10.213-10.213-10.213v20.426C57.507,66.893,62.08,62.32,62.08,56.68z"/>
		</g>
		<polygon fill-rule="evenodd" clip-rule="evenodd" fill="#FFFFFF" points="57.497,55.023 53.522,55.023 53.522,51.051 
			50.212,51.051 50.212,55.023 46.237,55.023 46.237,58.336 50.212,58.336 50.212,62.309 53.522,62.309 53.522,58.336 
			57.497,58.336 		"/>
	</g>
	<g>
		<path fill="#414654" d="M22.632,45.883h1.51l1.52,2.682l0.532,1.262l0.045-0.01c-0.009,0-0.169-1.082-0.178-1.082v-2.852h1.581
			v6.289h-1.607l-1.422-2.479l-0.551-1.262l-0.044,0.008l0.204,1.217v2.516h-1.59V45.883z"/>
		<path fill="#414654" d="M30.244,48.352h2.549v1.377h-2.549v0.941h2.771v1.502h-4.38v-6.289h4.38v1.492h-2.771V48.352z"/>
		<path fill="#414654" d="M39.846,45.883h1.643l-1.812,6.289h-1.475l-0.56-1.742L37.42,48.99h-0.026l-0.24,1.432l-0.497,1.75h-1.475
			l-1.821-6.289h1.652l0.746,3.01l0.16,1.334h0.044l0.151-1.324l0.702-2.203h1.208l0.648,2.211l0.204,1.316h0.026l0.178-1.316
			L39.846,45.883z"/>
	</g>
</g>
</svg>
