<?xml version="1.0" encoding="utf-8"?>
<!-- Generator: Adobe Illustrator 16.0.3, SVG Export Plug-In . SVG Version: 6.00 Build 0)  -->
<!DOCTYPE svg PUBLIC "-//W3C//DTD SVG 1.1//EN" "http://www.w3.org/Graphics/SVG/1.1/DTD/svg11.dtd">
<svg version="1.1" id="Слой_1" xmlns="http://www.w3.org/2000/svg" xmlns:xlink="http://www.w3.org/1999/xlink" x="0px" y="0px"
	 width="65.17px" height="73.06px" viewBox="0 0 65.17 73.06" enable-background="new 0 0 65.17 73.06" xml:space="preserve">
<g>
	<path fill-rule="evenodd" clip-rule="evenodd" fill="#1ED8D3" d="M65.256,51.293l-0.121-29.531c0,0,0.035-1.938-0.424-3.002
		c-0.472-1.099-1.518-1.893-1.518-1.893L35.442,0.645c0,0-2.196-0.646-3.278-0.646c-0.975,0-3.276,0.729-3.276,0.729L2.674,16.301
		c0,0-1.848,0.792-2.265,1.805c-0.47,1.143-0.243,2.847-0.243,2.847L0.125,50.889c0,0-0.157,1.857,0.281,2.809
		c0.508,1.102,1.621,1.965,1.621,1.965l8.229,4.91l44.831-0.117l7.296-4.309c0,0,1.575-0.932,2.316-1.912
		C65.394,53.314,65.256,51.293,65.256,51.293z"/>
	<path opacity="0.2" fill-rule="evenodd" clip-rule="evenodd" d="M0.406,53.696c0.507,1.102,1.621,1.966,1.621,1.966l27.872,16.626
		c0,0,1.273,0.749,2.505,0.771c0.09,0.002,0.183-0.004,0.278-0.013V0.034c-0.188-0.021-0.364-0.036-0.519-0.036
		c-0.974,0-3.277,0.729-3.277,0.729L2.674,16.301c0,0-1.849,0.792-2.266,1.805c-0.471,1.143-0.243,2.847-0.243,2.847L0.125,50.889
		C0.125,50.889-0.032,52.746,0.406,53.696z"/>
	<path fill="#6E4525" d="M50.507,47.162c0,9.057-7.838,16.396-17.507,16.396l0,0c-9.668,0-17.506-7.34-17.506-16.396V25.32
		c0-9.055,7.838-16.396,17.506-16.396l0,0c9.669,0,17.507,7.34,17.507,16.396V47.162z"/>
	<path fill="#E74B44" d="M41.697,53.764c0.249,0.043,0.499,0.086,0.748,0.131C42.196,53.85,41.946,53.807,41.697,53.764z"/>
	<path fill="#E74B44" d="M41.358,53.699c0.11,0.021,0.221,0.043,0.331,0.063C41.579,53.742,41.469,53.721,41.358,53.699z"/>
	<path fill="#E74B44" d="M22.958,54.107c0.407-0.08,0.814-0.158,1.221-0.242C23.772,53.949,23.365,54.027,22.958,54.107z"/>
	<path fill="#FFDDBB" d="M19.411,33.529c0.049,1.563-0.074,3.129,0.076,4.687c0.551,3.503,2.479,6.706,5.1,9.063
		c0.225,0.193,0.46,0.375,0.696,0.555v9.73h14.799v-9.701c0.241-0.184,0.481-0.369,0.71-0.566c2.75-2.471,4.758-5.885,5.174-9.59
		c0.049-2.818,0.004-5.634,0.02-8.453c0.037-1.875-0.318-3.737-0.879-5.519c-0.705-2.131-1.902-4.128-3.592-5.619
		c-2.398-2.124-5.693-3.057-8.858-2.924c-1.869-0.069-3.762,0.207-5.529,0.832c-3.094,1.028-5.586,3.541-6.721,6.585
		C18.969,26.073,19.475,29.883,19.411,33.529z"/>
	<path opacity="0.13" d="M32.69,50.467c-2.699,0.064-5.285-1.014-7.407-2.633v2.885c2.122,1.617,4.708,2.695,7.408,2.631
		c2.689,0.1,5.271-0.988,7.391-2.602v-2.885C37.962,49.477,35.38,50.566,32.69,50.467z"/>
	<path fill="#E74B44" d="M29.899,72.287c0,0,1.275,0.75,2.506,0.771c1.153,0.02,2.916-0.932,2.916-0.932l19.768-11.672
		c-1.292-1.67-3.002-2.982-4.865-3.959c-2.277-1.213-4.768-1.98-7.287-2.508c-0.159-0.035-0.319-0.063-0.479-0.092v0.223
		c-2.799,2.131-6.211,3.568-9.76,3.438c-3.552,0.084-6.949-1.328-9.746-3.447c-0.421,0.082-0.841,0.168-1.255,0.281
		c-2.957,0.738-5.877,1.799-8.43,3.494c-1.116,0.748-2.142,1.652-3.009,2.686L29.899,72.287z"/>
	<path fill="#BA3535" d="M32.833,56.344c-2.766,0.045-5.473-1.004-7.615-2.727c-0.745,0.211-1.509,0.342-2.269,0.492
		c2.797,2.119,6.194,3.531,9.746,3.447c3.549,0.131,6.961-1.307,9.76-3.438v-0.223c-0.67-0.121-1.345-0.215-1.999-0.404
		C38.354,55.295,35.619,56.387,32.833,56.344z"/>
	<g>
		<path fill="#343433" d="M46.073,30.881c0.169,0.849,0.231,1.712,0.218,2.577c-0.988,2.14-1.988,4.272-2.986,6.41
			c-0.543,1.121-1.048,2.264-1.694,3.332c-0.344,0.533-0.732,1.104-1.336,1.361c-0.521,0.186-1.085,0.111-1.624,0.104
			c0.054-0.455,0.104-0.91,0.158-1.363c0.436-0.041,0.938,0.037,1.309-0.244c0.423-0.369,0.695-0.873,0.986-1.346
			c1.007-1.748,1.841-3.59,2.657-5.434C44.574,34.497,45.238,32.651,46.073,30.881z"/>
	</g>
	<g>
		<path fill="#E8607A" d="M30.471,42.766c0.085,1.543,1.358,2.768,2.922,2.768c1.565,0,2.838-1.225,2.923-2.768H30.471z"/>
		<path fill="#FE98CA" d="M36.316,42.766v-0.359c0-0.84-0.654-1.521-1.461-1.521c-0.808,0-1.462,0.384-1.462,0.964
			c0-0.58-0.654-0.964-1.461-0.964s-1.461,0.681-1.461,1.521v0.359H36.316z"/>
	</g>
	<g>
		<path fill="#535353" d="M33.904,42.002c0.532-0.195,1.111-0.137,1.667-0.15c0.642,0.021,1.306-0.063,1.931,0.123
			c0.625,0.201,0.987,0.793,1.308,1.326c-0.054,0.453-0.104,0.908-0.158,1.363c-0.426,0.355-0.834,0.803-1.404,0.908
			c-0.594,0.098-1.198,0.053-1.798,0.064c-0.494-0.01-1.003,0.021-1.481-0.129c-0.687-0.24-1.206-0.906-1.279-1.629
			C32.622,43.074,33.168,42.295,33.904,42.002z"/>
	</g>
	<path opacity="0.6" fill="#FFFFFF" d="M43.239,27.792c-1.033-0.833-2.481-0.94-3.628-0.94l-0.171,0.001
		c-0.301,0.01-0.626,0.006-0.945,0c-0.888-0.013-1.822-0.042-2.685,0.343c-0.965,0.394-1.746,1.257-2.097,2.313l-0.052,0.156
		l-0.164,0.003c-0.542,0.011-1.086,0.013-1.63,0.006l-0.137-0.002l-0.065-0.121c-0.317-0.592-0.594-1.075-1.011-1.448
		c-0.863-0.798-2.096-1.255-3.386-1.255l-0.087,0.001c-0.335,0.009-0.68,0.005-1.023,0c-0.191-0.002-0.383-0.004-0.574-0.004
		c-1.072,0-1.954,0.077-2.777,0.455c-0.909,0.359-1.586,1.158-1.777,2.088c-0.21,1.201-0.124,2.339,0.249,3.282
		c0.212,0.59,0.715,1.635,1.743,2.076c0.467,0.213,0.985,0.23,1.476,0.23l0.451-0.002c0.228-0.004,0.436-0.005,0.644-0.005
		l1.261,0.005c0.267,0,0.532-0.002,0.799-0.009c1.347-0.042,2.654-0.772,3.411-1.904c0.593-0.821,0.73-1.865,0.783-2.58l0.016-0.217
		l0.218,0.002c0.25,0.002,0.499,0.003,0.749,0.003l0.668-0.001l0.023,0.208c0.033,0.308,0.061,0.566,0.104,0.823
		c0.197,1.368,1.134,2.634,2.387,3.23c0.59,0.292,1.275,0.445,1.987,0.445l0.082-0.001c0.183-0.003,0.365-0.004,0.549-0.004
		l1.24,0.006c0.336,0,0.672-0.004,1.008-0.018c0.76-0.031,1.518-0.504,2.077-1.293c0.56-0.822,0.906-1.878,1.057-3.225
		C44.102,29.6,44.041,28.455,43.239,27.792z"/>
	<path fill="#343433" d="M44.506,28.513l-0.025-0.084c-0.292-0.556-0.823-1.296-1.694-1.659c-1.133-0.508-2.353-0.55-3.406-0.55
		l-1.188,0.008c-0.157,0-0.314-0.001-0.47-0.005l-0.151-0.002c-1.375,0-2.635,0.503-3.452,1.375
		c-0.253,0.258-0.429,0.56-0.599,0.852c-0.12,0.206-0.233,0.402-0.371,0.579c-0.233,0.04-0.551,0.033-0.861,0.019
		c-0.054-0.002-0.107-0.005-0.161-0.007c-0.596-1.129-1.565-2.008-2.672-2.42c-0.781-0.332-1.59-0.4-2.564-0.4l-0.979,0.007
		c-0.106,0-0.213-0.001-0.313-0.002c-0.129-0.006-0.259-0.009-0.389-0.009c-1.105,0-2.677,0.225-3.91,1.317
		c-0.606,0.724-0.941,1.403-1.024,2.077c-0.073,0.602-0.023,1.204,0.024,1.786l0.027,0.309c0.254,1.075,0.74,2.598,2.027,3.404
		c0.647,0.431,1.395,0.49,2.105,0.49c0.146,0,0.292-0.003,0.438-0.006c0.141-0.002,0.281-0.004,0.42-0.004h0.154
		c0.34-0.013,0.682-0.005,1.024,0.002c0.207,0.004,0.415,0.008,0.622,0.008c0.438,0,1.014-0.016,1.592-0.141
		c2.049-0.521,3.594-2.41,3.748-4.543c0.16,0.001,0.319,0.002,0.478,0.003c0.072,0.557,0.169,1.165,0.426,1.722
		c0.601,1.327,1.769,2.36,3.124,2.764c0.562,0.168,1.139,0.191,1.679,0.191l0.741-0.005l0.172,0.001l0.217-0.002
		c0.152,0,0.305,0.002,0.457,0.004c0.155,0.002,0.31,0.004,0.465,0.004c0.385,0,0.68-0.013,0.957-0.042
		c0.863-0.098,1.694-0.646,2.281-1.501c0.745-1.086,1.161-2.506,1.234-4.268C44.623,29.404,44.552,28.956,44.506,28.513z
		 M44.011,30.442c-0.15,1.347-0.497,2.403-1.057,3.225c-0.56,0.789-1.317,1.262-2.077,1.293c-0.336,0.014-0.672,0.018-1.008,0.018
		l-1.24-0.006c-0.184,0-0.366,0.001-0.549,0.004l-0.082,0.001c-0.712,0-1.397-0.153-1.987-0.445c-1.253-0.597-2.19-1.862-2.387-3.23
		c-0.043-0.257-0.07-0.515-0.104-0.823l-0.023-0.208l-0.668,0.001c-0.25,0-0.499-0.001-0.749-0.003l-0.218-0.002l-0.016,0.217
		c-0.053,0.714-0.19,1.758-0.783,2.58c-0.757,1.132-2.064,1.862-3.411,1.904c-0.267,0.007-0.532,0.009-0.799,0.009l-1.261-0.005
		c-0.208,0-0.416,0.001-0.644,0.005l-0.451,0.002c-0.49,0-1.009-0.018-1.476-0.23c-1.028-0.441-1.531-1.486-1.743-2.076
		c-0.373-0.943-0.459-2.081-0.249-3.282c0.191-0.93,0.868-1.729,1.777-2.088c0.823-0.377,1.705-0.455,2.777-0.455
		c0.191,0,0.383,0.002,0.574,0.004c0.344,0.004,0.688,0.009,1.023,0l0.087-0.001c1.29,0,2.522,0.457,3.386,1.255
		c0.417,0.373,0.693,0.855,1.011,1.448l0.065,0.121l0.137,0.002c0.544,0.007,1.088,0.005,1.63-0.006l0.164-0.003l0.052-0.156
		c0.351-1.056,1.132-1.919,2.097-2.313c0.862-0.386,1.797-0.356,2.685-0.343c0.319,0.006,0.645,0.01,0.945,0l0.171-0.001
		c1.146,0,2.595,0.107,3.628,0.94C44.041,28.455,44.102,29.6,44.011,30.442z"/>
	<path fill="#343433" d="M26.643,28.5c-0.264,0-0.518,0.045-0.748,0.132c-0.912,0.294-1.572,1.163-1.603,2.101
		c-0.059,0.618,0.164,1.257,0.61,1.749c0.448,0.49,1.063,0.771,1.686,0.771h0.053l0.094,0.002c0.649,0,1.281-0.303,1.731-0.832
		c0.449-0.523,0.649-1.189,0.553-1.806C28.939,29.449,27.874,28.5,26.643,28.5z"/>
	<path fill="#343433" d="M38.685,28.501c-0.235,0-0.468,0.037-0.679,0.107c-0.99,0.283-1.717,1.261-1.688,2.262
		c-0.021,0.592,0.218,1.193,0.66,1.652c0.45,0.469,1.059,0.736,1.666,0.736c0.091,0,0.184-0.006,0.255-0.016
		c0.655-0.032,1.274-0.376,1.697-0.943c0.429-0.576,0.584-1.277,0.425-1.912C40.823,29.331,39.798,28.501,38.685,28.501z"/>
	<g>
		<path fill="#704525" d="M21.097,10.8c2.01-1.246,4.367-1.806,6.704-2.006c2.139-0.17,4.289-0.043,6.421,0.154
			c2.408,0.261,4.85,0.653,7.072,1.664c1.182,0.539,2.339,1.365,2.796,2.637c1.228,0.255,2.463,0.524,3.637,0.981
			c1.332,0.557,2.068,1.943,2.395,3.281c0.594,2.45,0.396,5.005,0.103,7.485c-0.655,4.814-1.939,9.517-3.358,14.154
			c-0.125,0.406-0.263,0.808-0.408,1.206c-0.039-0.481-0.096-0.962-0.121-1.444c0.044-1.471-0.072-2.941-0.159-4.409
			c0.015-0.908-0.051-1.818-0.229-2.71c0.051-0.908-0.011-1.819-0.223-2.706c-0.076-0.449-0.146-0.899-0.193-1.352
			c0.027-1.133-0.25-2.235-0.503-3.328c-0.207-0.803-0.462-1.607-0.912-2.307c-0.189-0.271-0.421-0.572-0.768-0.625
			c-0.406-0.058-0.818,0.004-1.222,0.022c-1.029,0.072-2.059-0.046-3.078-0.15c-3.082-0.338-6.142-0.856-9.168-1.528
			c-2.464-0.577-4.965-1.192-7.191-2.442c0.211,2.036-0.247,4.053-0.574,6.052c-0.172,1.137-0.545,2.246-0.56,3.406
			c-0.494,0.589-0.927,1.279-1.022,2.056c-0.086,0.705-0.004,1.414,0.05,2.118c-0.383,1.432-0.637,2.893-0.987,4.332
			c-0.13,0.557-0.207,1.123-0.266,1.691c-0.117,0.381-0.257,0.756-0.372,1.139c-0.83-1.885-1.398-3.875-1.944-5.856
			c-0.835-3.231-1.417-6.554-1.375-9.901c0.037-2.519,0.435-5.09,1.581-7.359C18.084,13.314,19.438,11.816,21.097,10.8z"/>
	</g>
</g>
</svg>
