<?xml version="1.0" encoding="utf-8"?>
<!-- Generator: Adobe Illustrator 16.0.3, SVG Export Plug-In . SVG Version: 6.00 Build 0)  -->
<!DOCTYPE svg PUBLIC "-//W3C//DTD SVG 1.1//EN" "http://www.w3.org/Graphics/SVG/1.1/DTD/svg11.dtd">
<svg version="1.1" id="Слой_1" xmlns="http://www.w3.org/2000/svg" xmlns:xlink="http://www.w3.org/1999/xlink" x="0px" y="0px"
	 width="61.574px" height="69.002px" viewBox="0 0 61.574 69.002" enable-background="new 0 0 61.574 69.002" xml:space="preserve">
<g>
	<path fill-rule="evenodd" clip-rule="evenodd" fill="#FFAF40" d="M61.619,20.939c0,0,0.147-1.754-0.266-2.652
		c-0.479-1.04-1.531-1.855-1.531-1.855L33.5,0.728c0,0-1.203-0.707-2.367-0.728c-1.088-0.019-2.753,0.88-2.753,0.88L2.82,15.972
		c0,0-1.488,0.882-2.188,1.807c-0.654,0.868-0.524,2.777-0.524,2.777l0.115,27.892c0,0-0.034,1.83,0.397,2.834
		c0.447,1.04,1.436,1.788,1.436,1.788l26.208,15.32c0,0,2.073,0.61,3.095,0.61c0.922,0,3.096-0.688,3.096-0.688l24.757-14.708
		c0,0,1.745-0.748,2.138-1.705c0.444-1.078,0.23-2.689,0.23-2.689L61.619,20.939z"/>
	<path opacity="0.2" fill-rule="evenodd" clip-rule="evenodd" d="M30.716,0.032C29.666,0.187,28.38,0.88,28.38,0.88L2.82,15.972
		c0,0-1.488,0.882-2.188,1.807c-0.654,0.868-0.524,2.777-0.524,2.777l0.115,27.892c0,0-0.034,1.83,0.397,2.834
		c0.447,1.04,1.436,1.788,1.436,1.788l26.208,15.32c0,0,1.387,0.405,2.451,0.553V0.032z"/>
	<rect x="13.057" y="25.068" fill-rule="evenodd" clip-rule="evenodd" fill="#56994F" width="36.422" height="15.906"/>
	<g>
		<path fill="#FFFFFF" d="M29.767,28.142c2.45-0.826,5.341,0.57,6.249,2.979c0.691,1.684,0.393,3.736-0.777,5.133
			c-1.008,1.246-2.621,1.984-4.224,1.873c-2.342-0.055-4.45-1.968-4.786-4.277C25.781,31.414,27.387,28.832,29.767,28.142z"/>
		<path fill-rule="evenodd" clip-rule="evenodd" fill="#333333" d="M30.688,35.416c0,0.6,0,1.188,0,1.785c-0.363,0-0.721,0-1.088,0
			c0-0.592,0-1.181,0-1.785c-0.232,0-0.453,0-0.682,0c0-0.268,0-0.518,0-0.787c0.219,0,0.441,0,0.671,0c0-0.168,0-0.324,0-0.491
			c-0.222,0-0.44,0-0.671,0c0-0.268,0-0.522,0-0.792c0.221,0,0.441,0,0.676,0c0-1.363,0-2.716,0-4.076c0.053,0,0.09,0,0.127,0
			c0.694,0,1.385-0.008,2.08,0.004c0.77,0.01,1.441,0.258,1.948,0.861c0.397,0.473,0.547,1.037,0.53,1.645
			c-0.016,0.593-0.205,1.129-0.609,1.571c-0.398,0.43-0.896,0.681-1.469,0.741c-0.45,0.043-0.902,0.032-1.352,0.043
			c-0.051,0-0.102,0-0.153,0c0,0.162,0,0.316,0,0.485c0.976,0,1.96,0,2.949,0c0,0.27,0,0.524,0,0.796
			C32.66,35.416,31.678,35.416,30.688,35.416z M30.693,33.322c0.037,0.003,0.074,0.006,0.105,0.006c0.29,0,0.576,0,0.864,0
			c0.222,0.002,0.437-0.045,0.635-0.146c0.53-0.273,0.806-0.724,0.868-1.306c0.082-0.78-0.332-1.524-1.172-1.666
			c-0.419-0.069-0.854-0.03-1.283-0.039c-0.006,0-0.012,0.005-0.018,0.009C30.693,31.225,30.693,32.271,30.693,33.322z"/>
	</g>
	<path fill-rule="evenodd" clip-rule="evenodd" fill="#4E75AD" d="M7.763,20.913H0.121c0.001,0.006,0.002,0.026,0.002,0.026
		l0.024,17.659h7.615c0.553,0,1-0.447,1-1V21.913C8.763,21.36,8.315,20.913,7.763,20.913z"/>
	<path opacity="0.4" fill-rule="evenodd" clip-rule="evenodd" fill="#333333" d="M6.978,38.598h0.785c0.553,0,1-0.447,1-1V21.913
		c0-0.553-0.447-1-1-1H6.978V38.598z"/>
	<path fill-rule="evenodd" clip-rule="evenodd" fill="#FDDCBB" d="M29.521,39.195c-5.176,0-10.178,0-15.194,0
		c0-4.721,0-9.35,0-14.014c0.981,0,1.903-0.025,2.825,0.017c0.234,0.009,0.509,0.185,0.685,0.362
		c1.158,1.172,2.286,2.373,3.444,3.543c0.716,0.725,1.67,0.828,2.453,0.317c0.771-0.501,1.018-1.4,0.639-2.382
		c-0.228-0.595-0.463-1.186-0.705-1.801l-1.58-2.975c-0.254-0.557-0.684-1.037-1.058-1.537c-0.775-1.041-1.837-1.514-3.12-1.451
		c-0.773,0.039-1.564,0.048-2.301,0.248c-2.432,0.648-4.842,1.388-7.266,2.068c-0.525,0.147-0.672,0.415-0.672,0.951
		c0.023,4.971,0.1,9.943-0.036,14.912c-0.042,1.607,0.474,2.371,1.894,2.982c3.031,1.308,6.035,2.721,9.369,2.951
		c2.535,0.175,5.092,0.063,7.64,0.076c0.646,0.004,1.29,0,2.036,0C28.043,41.87,28.367,40.508,29.521,39.195z"/>
	<path fill-rule="evenodd" clip-rule="evenodd" fill="#E0C3AA" d="M29.521,39.195H14.327V27.937
		c-0.989-1.53-1.271-2.739-1.271-2.739s-1.336-2.444-4.559-3.651c-0.051,0.015-0.103,0.03-0.154,0.045
		c-0.525,0.147-0.672,0.415-0.672,0.951c0.023,4.971,0.1,9.943-0.036,14.912c-0.042,1.607,0.474,2.371,1.894,2.982
		c3.031,1.308,6.035,2.721,9.369,2.951c2.535,0.175,5.092,0.063,7.64,0.076c0.646,0.004,1.29,0,2.036,0
		C28.043,41.87,28.367,40.508,29.521,39.195z"/>
	<rect x="13.057" y="38.136" fill-rule="evenodd" clip-rule="evenodd" fill="#56994F" width="19.698" height="2.838"/>
	<rect x="13.057" y="25.198" fill-rule="evenodd" clip-rule="evenodd" fill="#56994F" width="2.948" height="15.776"/>
	<path fill-rule="evenodd" clip-rule="evenodd" fill="#F24942" d="M61.58,49.21l0.023-16.994h-8.191c-0.553,0-1,0.447-1,1v15.686
		c0,0.553,0.447,1,1,1h8.215C61.615,49.498,61.58,49.21,61.58,49.21z"/>
	<path opacity="0.5" fill-rule="evenodd" clip-rule="evenodd" fill="#333333" d="M54.197,32.216h-0.785c-0.553,0-1,0.447-1,1v15.686
		c0,0.553,0.447,1,1,1h0.785V32.216z"/>
	<path fill-rule="evenodd" clip-rule="evenodd" fill="#FDDCBB" d="M42.753,34.601c-1.39-1.202-2.935-1.941-4.601-2.352
		c-1.251-0.309-2.555-0.401-3.836-0.586c-0.99-0.143-1.709-0.938-1.693-1.879c0.019-0.924,0.717-1.689,1.676-1.813
		c0.32-0.042,0.648-0.044,0.973-0.032c3.896,0.134,7.678,0.928,11.344,2.215c2.137,0.752,4.205,1.694,6.303,2.563
		c0.913,0.38,1.283,1.086,1.279,2.072c-0.021,4.174-0.021,8.346,0,12.52c0.004,0.914-0.352,1.553-1.121,2.045
		c-2.098,1.35-4.162,2.754-6.547,3.584c-2.68,0.936-5.449,1.215-8.256,1.234c-3.871,0.027-7.743,0.008-11.617,0.008
		c-0.049,0-0.098,0-0.148,0c-1.443-0.016-2.309-0.727-2.305-1.889c0.007-1.164,0.873-1.874,2.311-1.874
		c2.652-0.003,5.3-0.001,7.948-0.001c0.294,0,0.589,0,0.931,0c0-0.479,0-0.891,0-1.411c-0.248,0-0.514,0-0.775,0
		c-4.297,0-8.596,0-12.893-0.001c-1.352,0-2.169-0.682-2.189-1.817c-0.023-1.167,0.811-1.932,2.172-1.934
		c4.271-0.012,8.544-0.005,12.815-0.005c0.271,0,0.544,0,0.868,0c0-0.449,0-0.855,0-1.363c-0.293,0-0.582,0-0.871,0
		c-5.147,0-10.295,0.006-15.439-0.012c-0.461-0.002-0.953-0.083-1.373-0.262c-0.733-0.315-1.107-1.152-0.975-1.926
		c0.145-0.816,0.805-1.451,1.621-1.537c0.272-0.031,0.549-0.021,0.822-0.021c5.097-0.002,10.193,0,15.289,0c0.297,0,0.592,0,0.932,0
		c0-0.5,0-0.932,0-1.439c-0.305,0-0.57,0-0.842,0c-4.297,0-8.594,0.002-12.89,0c-1.306,0-2.101-0.674-2.134-1.79
		c-0.028-1.105,0.752-1.892,2.01-1.956c0.798-0.04,1.599-0.012,2.398-0.012c5.445-0.008,10.89-0.004,16.336-0.039
		C41.101,34.887,41.925,34.703,42.753,34.601z"/>
	<path fill-rule="evenodd" clip-rule="evenodd" fill="#E0C3AA" d="M7.763,21.911H6.978v16.226h0.785c0.553,0,1-0.41,1-0.917V22.828
		C8.763,22.321,8.315,21.911,7.763,21.911z"/>
	<path opacity="0.2" fill-rule="evenodd" clip-rule="evenodd" d="M23.876,27.216c-0.248-0.648-0.505-1.293-0.769-1.963l-0.099-0.186
		l-7.004,0.142c0.256,0.01,0.555,0.201,0.746,0.395c1.263,1.277,2.492,2.587,3.755,3.862c0.78,0.79,1.82,0.902,2.674,0.346
		C24.021,29.266,24.289,28.286,23.876,27.216z"/>
	<path fill-rule="evenodd" clip-rule="evenodd" fill="#FDDCBB" d="M24.373,27.039c-0.228-0.595-0.463-1.186-0.705-1.801l-0.09-0.17
		l-6.426,0.13c0.234,0.009,0.509,0.185,0.685,0.362c1.158,1.172,2.286,2.373,3.444,3.543c0.716,0.725,1.67,0.828,2.453,0.317
		C24.506,28.919,24.752,28.02,24.373,27.039z"/>
	<path fill-rule="evenodd" clip-rule="evenodd" fill="#FDDCBB" d="M15.689,25.174c0.493-0.002,0.979,0.001,1.463,0.023
		c0.234,0.009,0.509,0.185,0.685,0.362c0.64,0.647,1.271,1.302,1.902,1.957h4.765c-0.028-0.156-0.068-0.315-0.131-0.479
		c-0.228-0.595-0.463-1.186-0.705-1.801l-1.486-2.799h-6.492V25.174z"/>
	<polygon opacity="0.2" fill-rule="evenodd" clip-rule="evenodd" points="54.197,32.216 54.197,40.976 61.592,40.976 61.604,32.216 
			"/>
	<polygon opacity="0.2" fill-rule="evenodd" clip-rule="evenodd" points="0.147,38.598 6.978,38.598 6.978,29.838 0.136,29.838 	"/>
	<path opacity="0.5" fill-rule="evenodd" clip-rule="evenodd" fill="#E0C3AA" d="M33.826,43.878c1.139,0,2.277,0.004,3.416,0.004
		v-3.756c-1.139,0-2.277,0-3.416,0V43.878z M33.826,49.003c1.139,0,2.277,0.001,3.416,0.001v-3.756
		c-1.139-0.001-2.277,0.001-3.416,0.002V49.003z M33.826,54.179c1.139,0.001,2.277,0.004,3.416,0.006v-3.77
		c-1.139,0-2.276,0-3.416,0.001V54.179z M33.826,34.925v3.762c1.139,0,2.277,0,3.416,0v-3.768
		C36.104,34.923,34.965,34.924,33.826,34.925z"/>
</g>
</svg>
