<?xml version="1.0" encoding="utf-8"?>
<!-- Generator: Adobe Illustrator 16.0.3, SVG Export Plug-In . SVG Version: 6.00 Build 0)  -->
<!DOCTYPE svg PUBLIC "-//W3C//DTD SVG 1.1//EN" "http://www.w3.org/Graphics/SVG/1.1/DTD/svg11.dtd">
<svg version="1.1" id="Слой_1" xmlns="http://www.w3.org/2000/svg" xmlns:xlink="http://www.w3.org/1999/xlink" x="0px" y="0px"
	 width="65.17px" height="73.06px" viewBox="0 0 65.17 73.06" enable-background="new 0 0 65.17 73.06" xml:space="preserve">
<path fill-rule="evenodd" clip-rule="evenodd" fill="#75D16B" d="M65.235,22.173c0,0,0.156-1.857-0.281-2.809
	c-0.506-1.101-1.621-1.964-1.621-1.964L35.464,0.773c0,0-1.273-0.749-2.506-0.771c-1.152-0.02-2.916,0.932-2.916,0.932L2.98,16.914
	c0,0-1.576,0.934-2.316,1.913c-0.692,0.919-0.556,2.941-0.556,2.941l0.122,29.53c0,0-0.035,1.938,0.422,3
	c0.473,1.103,1.52,1.895,1.52,1.895L29.92,72.414c0,0,2.196,0.645,3.277,0.645c0.977,0,3.277-0.728,3.277-0.728l26.213-15.572
	c0,0,1.848-0.792,2.263-1.805c0.471-1.142,0.244-2.848,0.244-2.848L65.235,22.173z"/>
<path opacity="0.2" fill-rule="evenodd" clip-rule="evenodd" d="M32.516,0.036c-1.111,0.165-2.474,0.898-2.474,0.898L2.98,16.914
	c0,0-1.576,0.934-2.316,1.913c-0.692,0.919-0.556,2.941-0.556,2.941l0.122,29.53c0,0-0.035,1.938,0.422,3
	c0.473,1.103,1.52,1.895,1.52,1.895L29.92,72.414c0,0,1.469,0.428,2.596,0.585V0.036z"/>
<rect x="13.818" y="26.544" fill-rule="evenodd" clip-rule="evenodd" fill="#56994F" width="38.563" height="16.841"/>
<g>
	<path fill="#FFFFFF" d="M31.51,29.799c2.596-0.875,5.655,0.604,6.617,3.154c0.731,1.783,0.415,3.956-0.823,5.435
		c-1.067,1.319-2.774,2.101-4.472,1.982c-2.479-0.058-4.711-2.083-5.067-4.528C27.292,33.263,28.991,30.529,31.51,29.799z"/>
	<path fill-rule="evenodd" clip-rule="evenodd" fill="#333333" d="M32.486,37.5c0,0.635,0,1.257,0,1.89c-0.385,0-0.763,0-1.152,0
		c0-0.626,0-1.251,0-1.89c-0.246,0-0.479,0-0.722,0c0-0.283,0-0.548,0-0.833c0.232,0,0.468,0,0.71,0c0-0.178,0-0.343,0-0.52
		c-0.234,0-0.466,0-0.71,0c0-0.283,0-0.553,0-0.838c0.234,0,0.468,0,0.716,0c0-1.443,0-2.875,0-4.316c0.056,0,0.096,0,0.135,0
		c0.734,0,1.466-0.008,2.202,0.004c0.814,0.01,1.526,0.273,2.062,0.912c0.421,0.5,0.579,1.098,0.562,1.741
		c-0.017,0.628-0.217,1.195-0.644,1.664c-0.422,0.455-0.949,0.721-1.556,0.785c-0.478,0.045-0.955,0.034-1.431,0.045
		c-0.054,0-0.107,0-0.164,0c0,0.171,0,0.335,0,0.514c1.034,0,2.077,0,3.123,0c0,0.286,0,0.556,0,0.843
		C34.575,37.5,33.535,37.5,32.486,37.5z M32.492,35.284c0.04,0.003,0.079,0.006,0.112,0.006c0.306,0,0.609,0,0.914,0
		c0.235,0.002,0.463-0.048,0.672-0.155c0.563-0.29,0.854-0.766,0.92-1.382c0.087-0.826-0.352-1.614-1.24-1.764
		c-0.445-0.073-0.906-0.032-1.359-0.041c-0.006,0-0.012,0.005-0.019,0.009C32.492,33.064,32.492,34.171,32.492,35.284z"/>
</g>
<path fill-rule="evenodd" clip-rule="evenodd" fill="#4E75AD" d="M8.212,22.145h-8.09c0,0.006,0.003,0.028,0.003,0.028l0.024,18.696
	h8.063c0.586,0,1.06-0.474,1.06-1.059V23.204C9.271,22.619,8.798,22.145,8.212,22.145z"/>
<path opacity="0.4" fill-rule="evenodd" clip-rule="evenodd" fill="#333333" d="M7.381,40.869h0.831c0.586,0,1.06-0.474,1.06-1.059
	V23.204c0-0.585-0.474-1.059-1.06-1.059H7.381V40.869z"/>
<path fill-rule="evenodd" clip-rule="evenodd" fill="#FDDCBB" d="M31.252,41.502c-5.48,0-10.776,0-16.089,0
	c0-4.998,0-9.899,0-14.837c1.04,0,2.016-0.027,2.992,0.018c0.248,0.009,0.538,0.195,0.724,0.383
	c1.227,1.241,2.422,2.513,3.648,3.751c0.757,0.767,1.768,0.877,2.597,0.336c0.817-0.53,1.078-1.482,0.677-2.522
	c-0.242-0.629-0.49-1.255-0.747-1.906l-1.673-3.15c-0.269-0.589-0.724-1.098-1.121-1.627c-0.82-1.102-1.943-1.603-3.302-1.537
	c-0.819,0.042-1.657,0.051-2.437,0.263c-2.574,0.687-5.127,1.469-7.692,2.19c-0.557,0.156-0.712,0.439-0.712,1.007
	c0.024,5.263,0.105,10.528-0.039,15.79c-0.044,1.701,0.502,2.51,2.006,3.157c3.209,1.383,6.39,2.88,9.92,3.124
	c2.685,0.185,5.392,0.066,8.088,0.081c0.685,0.004,1.367,0,2.157,0C29.687,44.333,30.029,42.892,31.252,41.502z"/>
<path fill-rule="evenodd" clip-rule="evenodd" fill="#E0C3AA" d="M31.252,41.502H15.163V29.583c-1.047-1.621-1.345-2.9-1.345-2.9
	s-1.414-2.588-4.826-3.866c-0.054,0.016-0.109,0.032-0.163,0.047c-0.557,0.156-0.712,0.439-0.712,1.007
	c0.024,5.263,0.105,10.528-0.039,15.79c-0.044,1.701,0.502,2.51,2.006,3.157c3.209,1.383,6.39,2.88,9.92,3.124
	c2.685,0.185,5.392,0.066,8.088,0.081c0.685,0.004,1.367,0,2.157,0C29.687,44.333,30.029,42.892,31.252,41.502z"/>
<rect x="13.818" y="40.381" fill-rule="evenodd" clip-rule="evenodd" fill="#56994F" width="20.855" height="3.005"/>
<rect x="13.818" y="26.682" fill-rule="evenodd" clip-rule="evenodd" fill="#56994F" width="3.121" height="16.704"/>
<path fill-rule="evenodd" clip-rule="evenodd" fill="#F24942" d="M65.194,52.106l0.025-17.993h-8.674
	c-0.585,0-1.059,0.474-1.059,1.059v16.607c0,0.586,0.474,1.059,1.059,1.059h8.698C65.231,52.41,65.194,52.106,65.194,52.106z"/>
<path opacity="0.5" fill-rule="evenodd" clip-rule="evenodd" fill="#333333" d="M57.378,34.113h-0.832
	c-0.585,0-1.059,0.474-1.059,1.059v16.607c0,0.586,0.474,1.059,1.059,1.059h0.832V34.113z"/>
<path fill-rule="evenodd" clip-rule="evenodd" fill="#FDDCBB" d="M45.26,36.638c-1.471-1.273-3.106-2.056-4.871-2.49
	c-1.324-0.327-2.704-0.425-4.062-0.621c-1.047-0.151-1.808-0.992-1.791-1.989c0.019-0.978,0.759-1.789,1.772-1.92
	c0.34-0.044,0.687-0.047,1.03-0.034c4.126,0.142,8.129,0.982,12.011,2.345c2.263,0.796,4.452,1.794,6.674,2.713
	c0.967,0.402,1.358,1.15,1.354,2.194c-0.023,4.419-0.023,8.836,0,13.255c0.004,0.968-0.373,1.645-1.188,2.165
	c-2.221,1.43-4.407,2.916-6.932,3.795c-2.838,0.991-5.77,1.286-8.741,1.308c-4.099,0.028-8.199,0.008-12.3,0.008
	c-0.052,0-0.104,0-0.157,0c-1.528-0.017-2.444-0.77-2.439-2c0.006-1.232,0.924-1.985,2.446-1.985c2.808-0.002,5.61,0,8.414,0
	c0.312,0,0.624,0,0.985,0c0-0.506,0-0.942,0-1.495c-0.263,0-0.544,0-0.82,0c-4.549,0-9.101,0-13.65,0
	c-1.431,0-2.297-0.722-2.318-1.925c-0.024-1.234,0.858-2.045,2.3-2.048c4.522-0.012,9.046-0.004,13.568-0.004
	c0.286,0,0.576,0,0.919,0c0-0.476,0-0.905,0-1.443c-0.311,0-0.616,0-0.922,0c-5.45,0-10.899,0.006-16.347-0.013
	c-0.488-0.002-1.009-0.089-1.454-0.276c-0.777-0.335-1.172-1.221-1.031-2.039c0.152-0.864,0.852-1.537,1.716-1.628
	c0.288-0.033,0.581-0.022,0.871-0.022c5.396-0.002,10.793,0,16.187,0c0.314,0,0.627,0,0.986,0c0-0.529,0-0.986,0-1.524
	c-0.322,0-0.604,0-0.891,0c-4.549,0-9.099,0.002-13.647,0c-1.382,0-2.224-0.713-2.259-1.896c-0.031-1.17,0.796-2.002,2.128-2.07
	c0.844-0.042,1.691-0.012,2.54-0.012c5.766-0.008,11.528-0.004,17.295-0.042C43.511,36.941,44.384,36.746,45.26,36.638z"/>
<path fill-rule="evenodd" clip-rule="evenodd" fill="#E0C3AA" d="M8.212,23.202H7.381v17.179h0.831c0.586,0,1.06-0.434,1.06-0.972
	V24.172C9.271,23.636,8.798,23.202,8.212,23.202z"/>
<path opacity="0.2" fill-rule="evenodd" clip-rule="evenodd" d="M25.273,28.819c-0.263-0.687-0.534-1.369-0.813-2.079l-0.105-0.196
	l-7.416,0.15c0.271,0.01,0.587,0.213,0.79,0.418c1.338,1.352,2.639,2.739,3.977,4.089c0.825,0.836,1.928,0.955,2.831,0.366
	C25.426,30.99,25.712,29.952,25.273,28.819z"/>
<path fill-rule="evenodd" clip-rule="evenodd" fill="#FDDCBB" d="M25.801,28.631c-0.242-0.629-0.49-1.255-0.747-1.906l-0.095-0.18
	l-6.804,0.138c0.248,0.009,0.538,0.195,0.724,0.383c1.227,1.241,2.422,2.513,3.648,3.751c0.757,0.767,1.768,0.877,2.597,0.336
	C25.941,30.623,26.202,29.67,25.801,28.631z"/>
<path fill-rule="evenodd" clip-rule="evenodd" fill="#FDDCBB" d="M16.606,26.657c0.521-0.002,1.036,0.001,1.549,0.025
	c0.248,0.009,0.538,0.195,0.724,0.383c0.679,0.686,1.347,1.378,2.015,2.072h5.046c-0.031-0.166-0.072-0.334-0.139-0.507
	c-0.242-0.629-0.49-1.255-0.747-1.906l-1.573-2.964h-6.874V26.657z"/>
<polygon opacity="0.2" fill-rule="evenodd" clip-rule="evenodd" points="57.378,34.113 57.378,43.388 65.207,43.388 65.22,34.113 
	"/>
<polygon opacity="0.2" fill-rule="evenodd" clip-rule="evenodd" points="0.149,40.869 7.381,40.869 7.381,31.596 0.137,31.596 "/>
<path opacity="0.5" fill-rule="evenodd" clip-rule="evenodd" fill="#E0C3AA" d="M35.81,46.461c1.204,0,2.41,0.004,3.616,0.004
	v-3.977c-1.206,0-2.412,0-3.616,0V46.461z M35.81,51.887c1.204,0,2.41,0,3.616,0V47.91c-1.206,0-2.412,0.002-3.616,0.002V51.887z
	 M35.81,57.367c1.204,0,2.41,0.004,3.616,0.006v-3.991c-1.206,0-2.41,0-3.616,0V57.367z M35.81,36.981v3.982c1.204,0,2.41,0,3.616,0
	v-3.988C38.22,36.979,37.014,36.98,35.81,36.981z"/>
</svg>
