<?xml version="1.0" encoding="utf-8"?>
<!-- Generator: Adobe Illustrator 16.0.3, SVG Export Plug-In . SVG Version: 6.00 Build 0)  -->
<!DOCTYPE svg PUBLIC "-//W3C//DTD SVG 1.1//EN" "http://www.w3.org/Graphics/SVG/1.1/DTD/svg11.dtd">
<svg version="1.1" id="Слой_1" xmlns="http://www.w3.org/2000/svg" xmlns:xlink="http://www.w3.org/1999/xlink" x="0px" y="0px"
	 width="61.574px" height="69.002px" viewBox="0 0 61.574 69.002" enable-background="new 0 0 61.574 69.002" xml:space="preserve">
<g>
	<path fill-rule="evenodd" clip-rule="evenodd" fill="#FFAF40" d="M0.124,48.062c0,0-0.148,1.754,0.266,2.652
		c0.479,1.04,1.53,1.855,1.53,1.855l26.322,15.702c0,0,1.205,0.707,2.367,0.729c1.089,0.018,2.753-0.881,2.753-0.881l25.56-15.092
		c0,0,1.487-0.881,2.188-1.807c0.655-0.868,0.525-2.777,0.525-2.777L61.52,20.553c0,0,0.033-1.83-0.4-2.835
		c-0.445-1.036-1.433-1.787-1.433-1.787L33.477,0.61c0,0-2.073-0.61-3.095-0.61c-0.921,0-3.095,0.688-3.095,0.688L2.531,15.396
		c0,0-1.745,0.749-2.139,1.704c-0.444,1.08-0.23,2.689-0.23,2.689L0.124,48.062z"/>
	<path opacity="0.2" fill-rule="evenodd" clip-rule="evenodd" d="M0.389,50.714c0.479,1.04,1.53,1.855,1.53,1.855l26.323,15.703
		c0,0,1.203,0.708,2.366,0.728c0.085,0.001,0.172-0.004,0.263-0.012V0.033C30.694,0.014,30.528,0,30.382,0
		c-0.92,0-3.096,0.688-3.096,0.688L2.532,15.396c0,0-1.746,0.749-2.14,1.704c-0.445,1.08-0.23,2.689-0.23,2.689L0.124,48.062
		C0.124,48.062-0.024,49.816,0.389,50.714z"/>
	<rect x="13.309" y="19.637" fill="#D9D9D9" width="35.311" height="24.252"/>
	<rect x="13.741" y="22.346" fill="#54596C" width="33.806" height="21.946"/>
	<polygon opacity="0.2" points="48.748,22.027 15.485,22.027 37.431,43.972 48.748,43.972 	"/>
	<g>
		<g>
			<path fill="#DEDCD9" d="M12.324,18.832c0.517-0.234,1.098-0.146,1.646-0.162c11.518,0.004,23.03,0.004,34.546,0
				c0.914-0.059,1.77,0.588,2.082,1.428c0.191,0.546,0.09,1.133,0.109,1.699c0,7.529-0.003,15.061,0.002,22.591
				c-0.016,0.593,0.08,1.237-0.228,1.776c-0.356,0.645-1.031,1.156-1.789,1.16c-3.984,0.009-7.968,0-11.952,0.005
				c-3.915-0.002-7.832-0.002-11.746,0c-3.924-0.002-7.849-0.004-11.773,0c-1.176,0.075-2.269-1.017-2.192-2.193
				c0.003-8.093,0.003-16.181,0-24.273C10.971,19.996,11.552,19.186,12.324,18.832z M15.167,22.447
				c-0.468,0.18-0.452,0.758-0.466,1.174c0.016,5.207-0.01,10.417,0.014,15.624c0.011,1.27-0.079,2.547,0.045,3.813
				c0.125,0.646,0.903,0.6,1.409,0.602c5.864-0.035,11.733,0.045,17.597-0.039c3.809,0.082,7.621,0.004,11.43,0.039
				c0.457-0.011,0.933,0.039,1.375-0.102c0.472-0.184,0.458-0.762,0.467-1.18c-0.014-2.151,0.01-4.303-0.014-6.453
				c0.026-4.038-0.005-8.076,0.016-12.115c-0.019-0.374,0.031-0.782-0.163-1.118c-0.244-0.369-0.735-0.328-1.12-0.35
				c-0.656,0.008-1.323-0.045-1.977,0.051c-0.934-0.082-1.871-0.041-2.809-0.047c-7.958-0.002-15.918,0.004-23.879-0.002
				C16.453,22.363,15.792,22.269,15.167,22.447z"/>
		</g>
		<path fill="#DEDCD9" d="M23.81,49.444c0.396-0.211,0.76-0.496,1.189-0.637c1.581,0.036,3.158,0.006,4.737,0.031
			c2.082,1.154,4.172,2.305,6.165,3.609c-5.741,0.041-11.482,0.03-17.222,0.006C20.361,51.405,22.106,50.459,23.81,49.444z"/>
	</g>
	<g>
		<path fill="#82807F" d="M24.996,47.33c3.914-0.002,7.831-0.002,11.746,0c0.012,0.494,0.012,0.989-0.007,1.485
			c-2.334,0.008-4.665-0.004-6.998,0.023c-1.579-0.025-3.156,0.005-4.737-0.031C24.986,48.317,24.988,47.823,24.996,47.33z"/>
	</g>
	<path fill="#A3A2A0" d="M29.737,48.838c2.333-0.027,4.664-0.016,6.998-0.023c2.129,1.154,4.209,2.412,6.301,3.635
		c-2.378,0.031-4.761,0.039-7.134-0.002C33.909,51.143,31.819,49.993,29.737,48.838z"/>
	<path fill="#F24942" d="M56.288,40.977l-16.209-8.644c-0.521-0.276-1.169-0.083-1.447,0.44L34.1,41.277
		c-0.279,0.521-0.081,1.166,0.438,1.444l16.211,8.646c0.519,0.274,1.167,0.079,1.444-0.441l4.533-8.503
		C57.007,41.903,56.808,41.254,56.288,40.977z"/>
	
		<rect x="36.421" y="38.097" transform="matrix(0.8824 0.4706 -0.4706 0.8824 24.0699 -17.3191)" fill="#6F7171" width="20.508" height="2.772"/>
	
		<rect x="36.5" y="41.475" transform="matrix(0.8824 0.4706 -0.4706 0.8824 25.2357 -16.2655)" fill="#FEFFFE" width="17.302" height="1.733"/>
	<path fill="#84C44A" d="M15.047,45.327c0,0.36-0.292,0.652-0.653,0.652l0,0c-0.361,0-0.653-0.292-0.653-0.652l0,0
		c0-0.361,0.292-0.654,0.653-0.654l0,0C14.755,44.672,15.047,44.965,15.047,45.327L15.047,45.327z"/>
</g>
</svg>
