<?xml version="1.0" encoding="utf-8"?>
<!-- Generator: Adobe Illustrator 16.0.3, SVG Export Plug-In . SVG Version: 6.00 Build 0)  -->
<!DOCTYPE svg PUBLIC "-//W3C//DTD SVG 1.1//EN" "http://www.w3.org/Graphics/SVG/1.1/DTD/svg11.dtd">
<svg version="1.1" id="Слой_1" xmlns="http://www.w3.org/2000/svg" xmlns:xlink="http://www.w3.org/1999/xlink" x="0px" y="0px"
	 width="65.17px" height="72.968px" viewBox="0 0 65.17 72.968" enable-background="new 0 0 65.17 72.968" xml:space="preserve">
<path fill-rule="evenodd" clip-rule="evenodd" fill="#5C9CB8" d="M65.361,22.232c0,0,0.156-1.852-0.28-2.801
	c-0.507-1.098-1.617-1.96-1.617-1.96L35.656,0.882c0,0-1.271-0.747-2.5-0.769c-1.15-0.02-2.909,0.93-2.909,0.93l-27,15.942
	c0,0-1.571,0.93-2.311,1.909c-0.692,0.917-0.554,2.933-0.554,2.933l0.121,29.462c0,0-0.035,1.936,0.422,2.996
	c0.47,1.096,1.515,1.888,1.515,1.888L30.127,72.36c0,0,2.189,0.644,3.269,0.644c0.973,0,3.27-0.727,3.27-0.727l26.154-15.536
	c0,0,1.842-0.79,2.26-1.801c0.468-1.141,0.242-2.841,0.242-2.841L65.361,22.232z"/>
<path opacity="0.3" fill-rule="evenodd" clip-rule="evenodd" d="M32.88,0.135c-1.135,0.107-2.632,0.909-2.632,0.909l-27,15.942
	c0,0-1.571,0.93-2.311,1.909c-0.692,0.917-0.554,2.933-0.554,2.933l0.121,29.462c0,0-0.035,1.936,0.422,2.996
	c0.47,1.096,1.515,1.888,1.515,1.888L30.127,72.36c0,0,1.613,0.473,2.753,0.606V0.135z"/>
<g>
	<path fill="#FFFFFF" d="M45.036,28.567c0,5.343-4.111,9.689-9.514,10.687v7.224h-6.225V34.086c7.105,0.47,8.867-2.995,8.867-5.519
		c0-4.405-2.643-5.521-5.461-5.521s-5.167,1.645-5.167,4.463h-6.813c0-6.577,5.344-11.334,11.98-11.334
		C39.634,16.176,45.036,20.405,45.036,28.567z M36.521,54.288c0,4.992-7.868,5.167-7.868,0
		C28.652,49.296,36.521,49.121,36.521,54.288z"/>
</g>
</svg>
