<?xml version="1.0" encoding="utf-8"?>
<!-- Generator: Adobe Illustrator 16.0.3, SVG Export Plug-In . SVG Version: 6.00 Build 0)  -->
<!DOCTYPE svg PUBLIC "-//W3C//DTD SVG 1.1//EN" "http://www.w3.org/Graphics/SVG/1.1/DTD/svg11.dtd">
<svg version="1.1" id="Слой_1" xmlns="http://www.w3.org/2000/svg" xmlns:xlink="http://www.w3.org/1999/xlink" x="0px" y="0px"
	 width="65.17px" height="73.06px" viewBox="0 0 65.17 73.06" enable-background="new 0 0 65.17 73.06" xml:space="preserve">
<g>
	<path fill-rule="evenodd" clip-rule="evenodd" fill="#F24942" d="M0.125,50.889c0,0-0.157,1.857,0.28,2.809
		c0.508,1.102,1.622,1.965,1.622,1.965l27.871,16.627c0,0,1.274,0.748,2.505,0.77c1.154,0.02,2.916-0.932,2.916-0.932l27.062-15.979
		c0,0,1.575-0.934,2.318-1.914c0.691-0.92,0.553-2.941,0.553-2.941l-0.119-29.53c0,0,0.034-1.938-0.423-3.002
		c-0.474-1.099-1.519-1.893-1.519-1.893L35.44,0.646c0,0-2.194-0.646-3.277-0.646c-0.974,0-3.276,0.729-3.276,0.729L2.675,16.303
		c0,0-1.85,0.792-2.267,1.804c-0.469,1.144-0.242,2.847-0.242,2.847L0.125,50.889z"/>
	<path opacity="0.2" fill-rule="evenodd" clip-rule="evenodd" d="M32.378,0.014C32.307,0.009,32.228,0,32.163,0
		c-0.974,0-3.276,0.729-3.276,0.729L2.675,16.303c0,0-1.85,0.792-2.267,1.804c-0.469,1.144-0.242,2.847-0.242,2.847L0.125,50.889
		c0,0-0.157,1.857,0.28,2.809c0.508,1.102,1.622,1.965,1.622,1.965l27.871,16.627c0,0,1.257,0.736,2.479,0.768V0.014z"/>
	<path fill="#FFDDBB" d="M27.758,27.572c0.969-0.902,2.37-0.503,3.549-0.445c1.751,0.248,3.637,0.021,5.245,0.904
		c2.184,0.881,4.226,2.363,6.662,2.391c1.575,0.188,3.162,0.037,4.711-0.282c1.199,3.981,2.376,7.975,3.558,11.966
		c-5.389-3.273-10.809-6.494-16.203-9.755c-1.268-0.85-2.848-1.063-4.339-1.138c-1.45-0.076-2.441,1.135-3.638,1.739
		c-1.6,0.907-3.723,0.736-5.131-0.464C24.019,30.836,25.875,29.186,27.758,27.572z"/>
	<path fill="#DEC0A3" d="M16.988,42.357c1.175-0.639,2.886,0.27,2.745,1.674c-0.142,0.975-0.423,2.205-1.476,2.576
		c-1.119,0.473-2.629-0.414-2.534-1.684C15.832,43.988,16.065,42.82,16.988,42.357z"/>
	<path fill="#DEC0A3" d="M21.288,43.58c0.878-0.568,2.209-0.27,2.681,0.691c0.504,0.92-0.079,1.912-0.313,2.82
		c-0.353,0.977-0.46,2.291-1.576,2.713c-1.178,0.553-2.666-0.48-2.592-1.771c0.208-1.035,0.595-2.025,0.896-3.039
		C20.563,44.467,20.739,43.838,21.288,43.58z"/>
	<path fill="#DEC0A3" d="M26.199,43.887c1.223-0.607,2.85,0.506,2.625,1.875c-0.451,1.688-1.002,3.35-1.551,5.006
		c-0.428,1.408-2.626,1.594-3.328,0.322c-0.728-1.209,0.248-2.525,0.493-3.74C24.945,46.182,24.898,44.506,26.199,43.887z"/>
	<path fill="#DEC0A3" d="M30.128,46.52c1.255-0.707,3.013,0.479,2.69,1.92c-0.401,1.469-0.847,2.936-1.354,4.371
		c-0.478,1.172-2.168,1.387-3.023,0.521c-0.496-0.473-0.635-1.227-0.439-1.871c0.342-1.184,0.728-2.354,1.08-3.533
		C29.232,47.35,29.552,46.762,30.128,46.52z"/>
	<g>
		<path fill="#FFDDBB" d="M50.425,42.396c-5.092-3.105-10.226-6.139-15.324-9.23c-1.448-0.959-3.308-1.278-5.003-1.015
			c-1.249,0.635-2.281,1.721-3.702,2.012c-1.944,0.587-4.095-0.196-5.377-1.732c1.218-1.11,2.49-2.163,3.681-3.304
			c-2.258,0.113-4.367,0.975-6.41,1.871c-1.479,3.861-2.933,7.729-4.43,11.586c0.35,0.561,0.709,1.117,1.076,1.666
			c0.295-1.088,0.764-2.295,1.911-2.723c1.411-0.613,3.07,0.244,3.632,1.621c1.325-1.148,3.445-0.721,4.288,0.793
			c0.861-0.9,2.273-1.346,3.42-0.713c0.991,0.432,1.466,1.502,1.56,2.527c0.686-0.186,1.422-0.398,2.112-0.09
			c0.976,0.256,1.335,1.332,2.181,1.785c2.169,1.283,4.316,2.598,6.484,3.877c0.688,0.441,1.632,0.406,2.258-0.125
			c0.896-0.689,0.867-2.27-0.116-2.871c-2.332-1.479-4.759-2.813-7.062-4.334c0.141-0.129,0.427-0.387,0.57-0.516
			c2.761,1.602,5.479,3.285,8.218,4.926c0.849,0.602,2.181,0.42,2.724-0.502c0.527-0.75,0.334-1.893-0.424-2.412
			c-3.055-1.99-6.346-3.629-9.3-5.767c0.15-0.116,0.454-0.347,0.604-0.46c3.027,1.742,6.002,3.58,9.002,5.375
			c0.909,0.527,1.863,1.389,2.994,1C51.409,45.283,51.688,43.121,50.425,42.396z"/>
		<path fill="#FFDDBB" d="M38.061,50.811c-1.411-0.912-2.883-1.725-4.31-2.611c-0.335,1.227-0.714,2.441-1.107,3.65
			c1.095,0.678,2.196,1.348,3.307,2c0.81,0.543,2.036,0.365,2.582-0.465C39.171,52.596,38.916,51.328,38.061,50.811z"/>
	</g>
	<path fill="#BA3535" d="M65.219,43.123l-0.08-19.834c-0.397,0.113-0.795,0.227-1.192,0.34v-0.01
		c-1.048,0.3-2.099,0.599-3.148,0.897c-0.08,0.017-0.161,0.028-0.238,0.056c-0.34,0.097-0.68,0.193-1.02,0.29
		c-0.058,0.015-0.117,0.021-0.173,0.04c-3.491,1-6.987,1.994-10.481,2.988c-1.025,0.211-1.739,1.355-1.353,2.355
		c1.414,4.846,2.876,9.68,4.304,14.521c0.208,0.975,1.198,1.742,2.208,1.48c1.126-0.291,2.246-0.604,3.365-0.922
		c1.256-0.35,2.511-0.707,3.764-1.07C62.527,43.898,63.873,43.512,65.219,43.123z"/>
	<path fill="#FFAF40" d="M18.051,27.935c-2.921-1.111-5.864-2.168-8.8-3.247c-0.008-0.004-0.013-0.009-0.021-0.012
		c-2.503-0.952-5.022-1.865-7.54-2.785v0.008c-0.194-0.07-0.389-0.142-0.583-0.213v0.047c-0.12-0.045-0.24-0.088-0.36-0.133v0.009
		c-0.194-0.071-0.389-0.142-0.583-0.213L0.136,41.771c3.045,1.133,6.102,2.234,9.149,3.365c0.119,0.059,0.245,0.098,0.374,0.127
		c0.069,0.025,0.14,0.051,0.209,0.076c0.181,0.09,0.379,0.139,0.58,0.168c0.065,0.021,0.129,0.045,0.196,0.061
		c0.056,0.021,0.111,0.041,0.167,0.063c0.937,0.463,2.271,0.107,2.633-0.93c1.85-4.73,3.635-9.488,5.463-14.227
		C19.37,29.572,19.012,28.334,18.051,27.935z"/>
</g>
</svg>
