<?xml version="1.0" encoding="utf-8"?>
<!-- Generator: Adobe Illustrator 16.0.3, SVG Export Plug-In . SVG Version: 6.00 Build 0)  -->
<!DOCTYPE svg PUBLIC "-//W3C//DTD SVG 1.1//EN" "http://www.w3.org/Graphics/SVG/1.1/DTD/svg11.dtd">
<svg version="1.1" id="Слой_1" xmlns="http://www.w3.org/2000/svg" xmlns:xlink="http://www.w3.org/1999/xlink" x="0px" y="0px"
	 width="61.574px" height="69.002px" viewBox="0 0 61.574 69.002" enable-background="new 0 0 61.574 69.002" xml:space="preserve">
<g>
	<path fill-rule="evenodd" clip-rule="evenodd" fill="#F24942" d="M61.549,20.996c0,0,0.147-1.752-0.267-2.651
		c-0.478-1.037-1.529-1.853-1.529-1.853L33.461,0.807c0,0-1.202-0.707-2.364-0.726c-1.087-0.018-2.75,0.879-2.75,0.879L2.817,16.034
		c0,0-1.486,0.88-2.185,1.805c-0.654,0.868-0.524,2.774-0.524,2.774l0.114,27.856c0,0-0.032,1.831,0.399,2.832
		c0.446,1.037,1.434,1.785,1.434,1.785L28.233,68.39c0,0,2.069,0.609,3.092,0.609c0.919,0,3.09-0.686,3.09-0.686l24.729-14.692
		c0,0,1.743-0.748,2.135-1.703c0.443-1.078,0.23-2.686,0.23-2.686L61.549,20.996z"/>
	<path opacity="0.2" fill-rule="evenodd" clip-rule="evenodd" d="M30.836,0.101c-1.073,0.103-2.489,0.859-2.489,0.859L2.817,16.034
		c0,0-1.486,0.88-2.185,1.805c-0.654,0.868-0.524,2.774-0.524,2.774l0.114,27.856c0,0-0.032,1.831,0.399,2.832
		c0.446,1.037,1.434,1.785,1.434,1.785L28.233,68.39c0,0,1.524,0.447,2.604,0.574V0.101z"/>
	<g>
		<rect x="20.506" y="25.947" fill="#333333" width="20.659" height="1.99"/>
		<polygon fill="#333333" points="46.167,28.856 44.76,27.448 30.836,41.372 16.913,27.448 15.506,28.856 30.114,43.464 
			30.836,42.741 31.56,43.464 		"/>
	</g>
	<g>
		<path fill="#FFFFFF" d="M30.836,56.738c-5.025,0-9.114-4.089-9.114-9.116c0-5.025,4.089-9.113,9.114-9.113
			c5.025,0,9.113,4.088,9.113,9.113C39.949,52.649,35.861,56.738,30.836,56.738z"/>
		<g>
			<path fill="#333333" d="M30.836,39.108c4.702,0,8.513,3.813,8.513,8.514c0,4.703-3.812,8.517-8.513,8.517
				c-4.702,0-8.514-3.813-8.514-8.517C22.322,42.92,26.134,39.108,30.836,39.108 M30.836,37.908c-5.356,0-9.714,4.357-9.714,9.714
				c0,5.357,4.358,9.717,9.714,9.717c5.356,0,9.713-4.359,9.713-9.717C40.55,42.265,36.192,37.908,30.836,37.908L30.836,37.908z"/>
		</g>
	</g>
	<path fill="#9BBD1E" d="M25.555,53.132c-0.024-0.741-0.037-1.474,0.304-2.15c0.523-1.063,1.365-1.698,2.543-1.885
		c0.172-0.026,0.348-0.033,0.522-0.033c1.28-0.007,2.567-0.007,3.855-0.002c0.941,0.002,1.748,0.328,2.404,1.001
		c0.609,0.623,0.924,1.381,0.941,2.255c0.008,0.271,0.002,0.539,0.002,0.815C32.602,53.132,29.083,53.132,25.555,53.132z"/>
	<path fill="#BF8E63" d="M27.185,45.745c-0.005-2.051,1.741-3.658,3.707-3.633c2.003,0.031,3.612,1.723,3.595,3.684
		c-0.02,2.055-1.754,3.657-3.71,3.619C28.781,49.379,27.152,47.708,27.185,45.745z"/>
	<g>
		<path fill="#FFFFFF" d="M18.222,35.886c-5.025,0-9.114-4.088-9.114-9.114s4.088-9.115,9.114-9.115s9.114,4.089,9.114,9.115
			S23.247,35.886,18.222,35.886z"/>
		<g>
			<path fill="#333333" d="M18.222,18.257c4.702,0,8.514,3.813,8.514,8.515s-3.812,8.515-8.514,8.515s-8.514-3.813-8.514-8.515
				S13.52,18.257,18.222,18.257 M18.222,17.057c-5.356,0-9.714,4.358-9.714,9.715c0,5.356,4.358,9.715,9.714,9.715
				c5.356,0,9.714-4.358,9.714-9.715C27.936,21.415,23.578,17.057,18.222,17.057L18.222,17.057z"/>
		</g>
	</g>
	<path fill="#DB3E3E" d="M12.94,32.281c-0.024-0.739-0.037-1.473,0.303-2.149c0.525-1.063,1.366-1.698,2.544-1.887
		c0.172-0.024,0.348-0.032,0.521-0.032c1.282-0.005,2.568-0.005,3.855-0.002c0.943,0.002,1.749,0.328,2.406,1.001
		c0.608,0.624,0.923,1.382,0.94,2.256c0.006,0.271,0.002,0.538,0.002,0.814C19.987,32.281,16.467,32.281,12.94,32.281z"/>
	<path fill="#BF8E63" d="M14.572,24.894c-0.006-2.051,1.739-3.659,3.705-3.63c2.004,0.029,3.613,1.72,3.596,3.681
		c-0.019,2.055-1.753,3.657-3.711,3.62C16.167,28.53,14.537,26.856,14.572,24.894z"/>
	<g>
		<path fill="#FFFFFF" d="M43.45,35.886c-5.025,0-9.113-4.088-9.113-9.114s4.088-9.115,9.113-9.115s9.114,4.089,9.114,9.115
			S48.476,35.886,43.45,35.886z"/>
		<g>
			<path fill="#333333" d="M43.45,18.257c4.702,0,8.515,3.813,8.515,8.515s-3.813,8.515-8.515,8.515
				c-4.701,0-8.514-3.813-8.514-8.515S38.749,18.257,43.45,18.257 M43.45,17.057c-5.356,0-9.714,4.358-9.714,9.715
				c0,5.356,4.357,9.715,9.714,9.715s9.715-4.358,9.715-9.715C53.165,21.415,48.807,17.057,43.45,17.057L43.45,17.057z"/>
		</g>
	</g>
	<path fill="#007FC4" d="M38.169,32.281c-0.024-0.739-0.037-1.473,0.304-2.149c0.525-1.063,1.365-1.698,2.543-1.887
		c0.172-0.024,0.348-0.032,0.522-0.032c1.281-0.005,2.567-0.005,3.855-0.002c0.942,0.002,1.748,0.328,2.406,1.001
		c0.606,0.624,0.922,1.382,0.939,2.256c0.007,0.271,0.002,0.538,0.002,0.814C45.216,32.281,41.695,32.281,38.169,32.281z"/>
	<path fill="#BF8E63" d="M39.8,24.894c-0.005-2.051,1.74-3.659,3.706-3.63c2.003,0.029,3.613,1.72,3.596,3.681
		c-0.019,2.055-1.754,3.657-3.71,3.62C41.396,28.53,39.766,26.856,39.8,24.894z"/>
</g>
</svg>
