<?xml version="1.0" encoding="utf-8"?>
<!-- Generator: Adobe Illustrator 16.0.3, SVG Export Plug-In . SVG Version: 6.00 Build 0)  -->
<!DOCTYPE svg PUBLIC "-//W3C//DTD SVG 1.1//EN" "http://www.w3.org/Graphics/SVG/1.1/DTD/svg11.dtd">
<svg version="1.1" id="Слой_1" xmlns="http://www.w3.org/2000/svg" xmlns:xlink="http://www.w3.org/1999/xlink" x="0px" y="0px"
	 width="65.17px" height="73.06px" viewBox="0 0 65.17 73.06" enable-background="new 0 0 65.17 73.06" xml:space="preserve">
<g>
	<path fill-rule="evenodd" clip-rule="evenodd" fill="#FFAF40" d="M0.125,50.889c0,0-0.157,1.857,0.28,2.809
		c0.508,1.102,1.622,1.965,1.622,1.965l27.871,16.627c0,0,1.274,0.748,2.505,0.77c1.154,0.02,2.916-0.932,2.916-0.932l27.062-15.979
		c0,0,1.575-0.934,2.318-1.914c0.691-0.92,0.553-2.941,0.553-2.941l-0.119-29.529c0,0,0.034-1.938-0.423-3.002
		c-0.474-1.099-1.519-1.893-1.519-1.893L35.44,0.647c0,0-2.194-0.647-3.277-0.647c-0.974,0-3.276,0.729-3.276,0.729L2.675,16.303
		c0,0-1.85,0.792-2.267,1.804c-0.469,1.144-0.242,2.847-0.242,2.847L0.125,50.889z"/>
	<path opacity="0.2" fill-rule="evenodd" clip-rule="evenodd" d="M32.402,0.014C32.331,0.009,32.252,0,32.188,0
		c-0.974,0-3.276,0.729-3.276,0.729L2.699,16.303c0,0-1.85,0.792-2.267,1.804c-0.469,1.144-0.242,2.847-0.242,2.847L0.149,50.889
		c0,0-0.157,1.857,0.28,2.809c0.508,1.102,1.622,1.965,1.622,1.965l27.871,16.627c0,0,1.257,0.736,2.479,0.768V0.014z"/>
</g>
<g>
	<path fill="#EFEEEC" d="M47.358,53.803c-0.008-6.633,0.006-13.266-0.008-19.899c0.008-1.541,0.011-3.083,0-4.624l-0.13-0.051
		c-0.173-0.369-0.368-0.723-0.575-1.072c-2.063-3.523-4.054-7.09-6.152-10.592l0.082-0.094c-6.759,0.014-13.519,0.004-20.275,0.004
		c-0.437,0.014-0.89-0.062-1.31,0.101l-0.104-0.065c-0.738,0.367-1.44,1.037-1.432,1.921c-0.01,11.456,0,22.915-0.007,34.372
		c-0.075,1.141,0.986,2.199,2.126,2.127c8.554-0.004,17.104-0.004,25.659,0C46.372,56.002,47.434,54.943,47.358,53.803z"/>
	<path fill="#B1AFAE" d="M21.728,26.734c7.117-0.027,14.234-0.027,21.348,0c0.021,0.463,0.021,0.928,0,1.392
		c-7.113,0.027-14.23,0.027-21.345,0C21.71,27.662,21.71,27.197,21.728,26.734z"/>
	<path opacity="0.1" d="M47.351,29.279l-0.13-0.051c-0.173-0.369-0.368-0.723-0.575-1.072c-2.063-3.523-4.054-7.09-6.152-10.592
		l0.082-0.094c-6.759,0.014-13.519,0.004-20.275,0.004c-0.437,0.014-0.89-0.062-1.31,0.101l-0.104-0.065
		c-0.015,0.008-0.029,0.016-0.043,0.023l28.508,16.42c0-0.016,0-0.033,0-0.05C47.358,32.362,47.361,30.82,47.351,29.279z"/>
	<path fill="#EFEEEC" d="M38.561,20.611c0.648-1.014,1.126-2.143,1.933-3.047c2.099,3.502,4.089,7.068,6.152,10.592
		c0.207,0.35,0.402,0.703,0.575,1.072c-1.486-0.475-2.716-1.456-4.092-2.152c-0.282-0.146-0.572-0.283-0.858-0.418
		c-0.858-0.578-1.739-1.125-2.657-1.609c-0.735-0.408-1.595-0.875-1.794-1.77C37.538,22.32,38.089,21.406,38.561,20.611z"/>
	<path fill="#B1AFAE" d="M21.725,26.756c4.287-0.078,8.577,0.037,12.864-0.059c0.109,0.018,0.327,0.051,0.436,0.067
		c0.681,0.458,1.33,0.962,2.041,1.376c-5.113,0.018-10.229,0.041-15.342-0.005C21.714,27.675,21.714,27.215,21.725,26.756z"/>
	<path fill="#B1AFAE" d="M21.728,32.445c7.117-0.027,14.234-0.027,21.348,0c0.021,0.463,0.021,0.928,0,1.393
		c-7.113,0.026-14.23,0.026-21.345,0C21.71,33.373,21.71,32.908,21.728,32.445z"/>
	<path fill="#B1AFAE" d="M21.73,38.142c7.114-0.026,14.231-0.026,21.345,0c0.021,0.464,0.021,0.929,0.002,1.394
		c-7.115,0.025-14.232,0.027-21.347,0C21.71,39.07,21.71,38.605,21.73,38.142z"/>
	<path fill="#B1AFAE" d="M21.73,43.838c7.114-0.023,14.231-0.027,21.345,0c0.021,0.465,0.021,0.928,0,1.393
		c-7.113,0.027-14.23,0.027-21.345,0C21.71,44.766,21.71,44.301,21.73,43.838z"/>
	<path fill="#B1AFAE" d="M21.73,49.535c7.114-0.029,14.231-0.027,21.345-0.002c0.021,0.465,0.021,0.93,0.002,1.395
		c-7.115,0.025-14.232,0.025-21.347,0C21.71,50.463,21.71,49.998,21.73,49.535z"/>
</g>
<g>
	<circle fill-rule="evenodd" clip-rule="evenodd" fill="#68BF60" cx="50.745" cy="54.352" r="11.454"/>
	<path opacity="0.13" fill-rule="evenodd" clip-rule="evenodd" d="M39.291,54.352c0,6.326,5.13,11.455,11.455,11.455V42.898
		C44.421,42.898,39.291,48.025,39.291,54.352z"/>
	<g>
		<path fill="#FFFFFF" d="M55.22,50.332c0,0.693-0.123,1.309-0.37,1.848c-0.247,0.541-0.572,1.02-0.975,1.436
			c-0.396,0.404-0.852,0.781-1.367,1.135c-0.515,0.352-1.063,0.695-1.641,1.027v2.383H48.97v-3.23
			c0.46-0.262,0.956-0.547,1.488-0.857c0.533-0.311,0.97-0.625,1.31-0.943c0.409-0.367,0.726-0.748,0.952-1.139
			c0.226-0.393,0.339-0.893,0.339-1.5c0-0.797-0.27-1.393-0.811-1.783c-0.539-0.393-1.237-0.588-2.093-0.588
			c-0.762,0-1.483,0.119-2.165,0.359c-0.681,0.24-1.22,0.484-1.615,0.73H46.27v-2.16c0.494-0.191,1.12-0.363,1.88-0.514
			c0.759-0.152,1.478-0.229,2.155-0.229c1.519,0,2.718,0.369,3.597,1.107C54.781,48.152,55.22,49.125,55.22,50.332z M51.036,62.398
			h-2.161v-2.236h2.161V62.398z"/>
	</g>
</g>
</svg>
