<?xml version="1.0" encoding="utf-8"?>
<!-- Generator: Adobe Illustrator 16.0.3, SVG Export Plug-In . SVG Version: 6.00 Build 0)  -->
<!DOCTYPE svg PUBLIC "-//W3C//DTD SVG 1.1//EN" "http://www.w3.org/Graphics/SVG/1.1/DTD/svg11.dtd">
<svg version="1.1" id="Слой_1" xmlns="http://www.w3.org/2000/svg" xmlns:xlink="http://www.w3.org/1999/xlink" x="0px" y="0px"
	 width="65.17px" height="73.06px" viewBox="0 0 65.17 73.06" enable-background="new 0 0 65.17 73.06" xml:space="preserve">
<g>
	<g>
		<path fill-rule="evenodd" clip-rule="evenodd" fill="#E1DFD3" d="M0.125,50.889c0,0-0.156,1.857,0.281,2.809
			c0.508,1.1,1.621,1.965,1.621,1.965l27.871,16.627c0,0,1.275,0.748,2.506,0.77c1.153,0.02,2.916-0.932,2.916-0.932l27.063-15.979
			c0,0,1.575-0.934,2.317-1.914c0.692-0.92,0.555-2.941,0.555-2.941l-0.121-29.531c0,0,0.035-1.938-0.423-3.002
			c-0.473-1.099-1.519-1.893-1.519-1.893L35.441,0.646c0,0-2.196-0.646-3.278-0.646c-0.975,0-3.276,0.728-3.276,0.728L2.673,16.301
			c0,0-1.848,0.793-2.264,1.805c-0.471,1.144-0.243,2.848-0.243,2.848L0.125,50.889z"/>
		<path opacity="0.13" fill-rule="evenodd" clip-rule="evenodd" d="M0.405,53.697c0.507,1.102,1.621,1.965,1.621,1.965
			l27.872,16.627c0,0,1.273,0.75,2.505,0.77c0.09,0.002,0.183-0.004,0.278-0.012V0.035C32.493,0.014,32.317,0,32.163,0
			c-0.974,0-3.276,0.729-3.276,0.729L2.673,16.301c0,0-1.849,0.793-2.266,1.805c-0.47,1.144-0.243,2.848-0.243,2.848l-0.04,29.935
			C0.125,50.889-0.033,52.746,0.405,53.697z"/>
		<path fill="#E26D6D" d="M47.658,20.611c-0.565-0.432-1.325-0.309-1.986-0.229c-2.557,0.413-5.139,1.197-7.231,2.774
			c-1.155,0.958-2.224,2.231-2.305,3.797c-0.193,2.057,1.05,3.886,2.378,5.327c0.769,0.771,1.657,1.653,2.819,1.674
			c0.729,0.041,1.236-0.566,1.585-1.127c1.114-1.793,2.066-3.68,3.039-5.55c0.779-1.515,1.529-3.046,2.233-4.595
			C48.525,21.98,48.314,21.048,47.658,20.611z"/>
		<g>
			<path fill="#B54E4E" d="M35.91,22.696c-2.932-0.329-5.928-0.391-8.839,0.166c0.138,0.588,0.286,1.174,0.447,1.759
				c2.621-0.393,5.289-0.347,7.911,0.001C35.604,23.984,35.765,23.342,35.91,22.696z"/>
		</g>
		<path fill="#FF8A89" d="M18.858,48.248c-0.479,2.4-0.934,4.805-1.39,7.207c1.694,0,3.388-0.006,5.084,0.002
			c1.364-1.162,2.724-2.336,4.089-3.5c3.369,0.719,6.866,0.82,10.28,0.387c1.363,0.947,2.668,1.988,4.002,2.979
			c0.213,0.193,0.513,0.115,0.772,0.135c1.737-0.008,3.479,0,5.219-0.002c-0.727-2.045-1.477-4.082-2.215-6.119
			c1.969-1.412,3.668-3.256,4.714-5.457c1.788-0.516,3.577-1.045,5.365-1.568c0.006-1.115,0-2.229,0.002-3.344
			c0-1.436,0-2.873,0-4.308c-1.68-0.025-3.437-0.034-4.998-0.736c-0.87-2.414-2.051-4.762-3.825-6.646
			c-0.973,1.87-1.925,3.757-3.039,5.55c-0.349,0.561-0.855,1.168-1.585,1.127c-1.162-0.021-2.051-0.903-2.819-1.674
			c-1.328-1.441-2.571-3.271-2.378-5.327c0.081-1.565,1.149-2.839,2.305-3.797c-0.833-0.204-1.68-0.343-2.53-0.46
			c-0.146,0.646-0.306,1.288-0.481,1.926c-2.622-0.348-5.29-0.394-7.911-0.001c-0.161-0.585-0.31-1.171-0.447-1.759
			c-2.945,0.578-5.772,1.902-7.952,3.994c-1.773,1.716-3.064,3.91-3.745,6.279c-0.636,1.869-0.803,3.865-0.762,5.83
			C14.704,42.471,16.25,45.896,18.858,48.248z M45.235,38c-0.192,0.288-0.655,0.359-0.895,0.096
			c-0.48-0.468-0.613-1.173-0.669-1.818c-0.043-0.924-0.042-1.938,0.506-2.73c0.17-0.285,0.569-0.455,0.865-0.256
			c0.563,0.443,0.704,1.216,0.766,1.895C45.851,36.139,45.854,37.213,45.235,38z"/>
		<g>
			<path fill="#843A3A" d="M45.043,33.292c-0.296-0.199-0.695-0.029-0.865,0.256c-0.548,0.793-0.549,1.807-0.506,2.73
				c0.056,0.645,0.188,1.35,0.669,1.818c0.239,0.264,0.702,0.192,0.895-0.096c0.619-0.787,0.615-1.861,0.573-2.814
				C45.747,34.507,45.606,33.735,45.043,33.292z"/>
		</g>
		<g>
			<g>
				<circle fill="#FFBE60" cx="31.482" cy="16.327" r="4.686"/>
				<path fill="#FFA32A" d="M31.482,19.915c2.402,0,4.382-1.809,4.654-4.137c0.022,0.18,0.032,0.363,0.032,0.549
					c0,2.588-2.098,4.687-4.686,4.687c-2.587,0-4.686-2.099-4.686-4.687c0-0.186,0.013-0.369,0.036-0.549
					C27.102,18.106,29.081,19.915,31.482,19.915z"/>
			</g>
			<g>
				<circle fill="#FFBE60" cx="34.214" cy="13.081" r="4.686"/>
				<path fill="#FFA32A" d="M34.213,16.668c2.402,0,4.381-1.809,4.653-4.137c0.021,0.181,0.033,0.363,0.033,0.549
					c0,2.588-2.099,4.687-4.687,4.687c-2.587,0-4.685-2.099-4.685-4.687c0-0.186,0.01-0.368,0.032-0.549
					C29.834,14.86,31.811,16.668,34.213,16.668z"/>
			</g>
		</g>
	</g>
	<path fill="#E26D6D" d="M19.119,26.856c-1.093-0.873-2.682-1.091-3.941-0.461c-1.223,0.566-2.046,1.895-2,3.242
		c-0.037,1.258,0.668,2.52,1.783,3.117c0.165,0.092,0.339,0.191,0.413,0.381C16.054,30.766,17.345,28.572,19.119,26.856z"/>
</g>
</svg>
