<?xml version="1.0" encoding="utf-8"?>
<!-- Generator: Adobe Illustrator 16.0.3, SVG Export Plug-In . SVG Version: 6.00 Build 0)  -->
<!DOCTYPE svg PUBLIC "-//W3C//DTD SVG 1.1//EN" "http://www.w3.org/Graphics/SVG/1.1/DTD/svg11.dtd">
<svg version="1.1" id="Слой_1" xmlns="http://www.w3.org/2000/svg" xmlns:xlink="http://www.w3.org/1999/xlink" x="0px" y="0px"
	 width="61.574px" height="69.002px" viewBox="0 0 61.574 69.002" enable-background="new 0 0 61.574 69.002" xml:space="preserve">
<g>
	<path fill-rule="evenodd" clip-rule="evenodd" fill="#A13B36" d="M61.546,20.993c0,0,0.148-1.752-0.265-2.648
		c-0.479-1.039-1.529-1.854-1.529-1.854L33.46,0.807c0,0-1.202-0.707-2.363-0.726c-1.088-0.019-2.75,0.879-2.75,0.879L2.817,16.033
		c0,0-1.486,0.879-2.186,1.805c-0.654,0.867-0.523,2.773-0.523,2.773L0.222,48.47c0,0-0.032,1.828,0.399,2.832
		c0.445,1.036,1.433,1.786,1.433,1.786L28.231,68.39c0,0,2.07,0.61,3.092,0.61c0.919,0,3.091-0.688,3.091-0.688l24.728-14.691
		c0,0,1.743-0.747,2.137-1.702c0.443-1.078,0.229-2.687,0.229-2.687L61.546,20.993z"/>
	<path fill-rule="evenodd" clip-rule="evenodd" fill="#C43737" d="M61.546,20.993c0,0,0.148-1.752-0.265-2.648
		c-0.479-1.039-1.529-1.854-1.529-1.854L33.46,0.807c0,0-1.202-0.707-2.363-0.726c-1.088-0.019-2.75,0.879-2.75,0.879L2.817,16.033
		c0,0-1.486,0.879-2.186,1.805c-0.654,0.867-0.523,2.773-0.523,2.773L0.222,48.47c0,0-0.032,1.828,0.399,2.832
		c0.445,1.036,1.433,1.786,1.433,1.786L28.231,68.39c0,0,2.07,0.61,3.092,0.61c0.919,0,3.091-0.688,3.091-0.688l24.728-14.691
		c0,0,1.743-0.747,2.137-1.702c0.443-1.078,0.229-2.687,0.229-2.687L61.546,20.993z"/>
	<path fill-rule="evenodd" clip-rule="evenodd" fill="#F24942" d="M61.281,18.265c-0.479-1.039-1.528-1.854-1.528-1.854L33.46,0.728
		c0,0-1.201-0.707-2.363-0.727c-0.084-0.001-0.172,0.003-0.262,0.012v68.875c0.178,0.02,0.344,0.033,0.488,0.033
		c0.919,0,3.092-0.688,3.092-0.688l24.727-14.69c0,0,1.744-0.748,2.138-1.703c0.442-1.078,0.229-2.685,0.229-2.685l0.039-28.241
		C61.547,20.914,61.694,19.162,61.281,18.265z"/>
	<path fill="#FFFFFF" d="M23.661,40.989c-5.795-7.138-7.442-10.813-7.442-15.213c0-4.401,3.404-6.507,4.135-7.23
		c0.732-0.723,2.131-0.533,2.927,0.251c0.795,0.787,3.783,3.741,4.865,4.81c1.082,1.068,0.721,2.368-0.392,3.468
		c-1.113,1.101-2.364,2.336-2.979,2.945c-0.615,0.606-1.399,3.802,3.37,8.58c4.771,4.777,6.266,3.836,7.506,2.924
		s1.225-1.211,1.701-1.682c0.478-0.472,2.497-1.932,4.278-0.173c1.781,1.761,3.339,3.615,4.324,4.872
		c0.986,1.258,0.668,2.482-0.127,3.301c-0.795,0.817-2.767,3.143-6.169,3.143C36.256,50.985,29.991,48.786,23.661,40.989z"/>
</g>
</svg>
