<?xml version="1.0" encoding="utf-8"?>
<!-- Generator: Adobe Illustrator 16.0.3, SVG Export Plug-In . SVG Version: 6.00 Build 0)  -->
<!DOCTYPE svg PUBLIC "-//W3C//DTD SVG 1.1//EN" "http://www.w3.org/Graphics/SVG/1.1/DTD/svg11.dtd">
<svg version="1.1" id="Слой_1" xmlns="http://www.w3.org/2000/svg" xmlns:xlink="http://www.w3.org/1999/xlink" x="0px" y="0px"
	 width="65.17px" height="72.968px" viewBox="0 0 65.17 72.968" enable-background="new 0 0 65.17 72.968" xml:space="preserve">
<path fill-rule="evenodd" clip-rule="evenodd" fill="#FFAF40" d="M65.361,22.232c0,0,0.156-1.852-0.28-2.801
	c-0.507-1.098-1.617-1.96-1.617-1.96L35.656,0.882c0,0-1.271-0.747-2.5-0.769c-1.15-0.02-2.909,0.93-2.909,0.93l-27,15.942
	c0,0-1.571,0.93-2.311,1.909c-0.692,0.917-0.554,2.933-0.554,2.933l0.121,29.462c0,0-0.035,1.936,0.422,2.996
	c0.47,1.096,1.515,1.888,1.515,1.888L30.127,72.36c0,0,2.189,0.644,3.269,0.644c0.973,0,3.27-0.727,3.27-0.727l26.154-15.536
	c0,0,1.842-0.79,2.26-1.801c0.468-1.141,0.242-2.841,0.242-2.841L65.361,22.232z"/>
<path opacity="0.25" fill-rule="evenodd" clip-rule="evenodd" d="M32.88,0.135c-1.135,0.107-2.632,0.909-2.632,0.909l-27,15.942
	c0,0-1.571,0.93-2.311,1.909c-0.692,0.917-0.554,2.933-0.554,2.933l0.121,29.462c0,0-0.035,1.936,0.422,2.996
	c0.47,1.096,1.515,1.888,1.515,1.888L30.127,72.36c0,0,1.613,0.473,2.753,0.606V0.135z"/>
<path fill-rule="evenodd" clip-rule="evenodd" fill="#EFEEEC" d="M53.159,23.131c-0.114-1.943-0.606-2.447-2.541-2.605
	c-0.16-0.013-0.32-0.028-0.48-0.028c-11.698-0.001-23.396-0.007-35.094,0.004c-2.449,0.002-3.053,0.635-3.054,3.083
	c-0.003,7.705-0.003,15.411,0.004,23.114c0.001,0.479,0.049,0.963,0.121,1.436c0.121,0.797,0.586,1.305,1.387,1.463
	c0.353,0.068,0.714,0.125,1.071,0.129c2.486,0.023,4.975,0.033,7.461,0.047c0.238,0.002,0.478,0,0.793,0c0,0.314,0,0.533,0,0.75
	c0,2.83-0.004,5.658,0.004,8.488c0.001,0.545-0.159,1.209,0.497,1.484c0.64,0.27,1.034-0.271,1.44-0.641
	c3.545-3.225,7.09-6.451,10.619-9.691c0.327-0.301,0.651-0.398,1.076-0.396c4.333,0.01,8.667,0.01,13.002,0.004
	c0.54-0.002,1.082-0.021,1.621-0.07c1.283-0.113,1.822-0.621,2.006-1.896c0.063-0.434,0.084-0.879,0.084-1.318
	c0.005-7.482,0.004-14.967,0.003-22.452C53.18,23.733,53.177,23.431,53.159,23.131z"/>
<path fill="#4A72BB" d="M28.435,29.099l-0.176-0.739c0,0-0.387-1.515-2.958-1.515h-1.126c0,0-1.127,0-1.127,1.126l1.127,1.127h1.197
	c0.951,0,1.057,1.127,1.057,1.127l1.341,8.069c0,0,0.214,2.048,2.147,2.048c2.616,0.002,7.783,0.026,7.783,0.026
	s1.127,0,1.127-1.127l-1.127-1.127c0,0-6.303,0.024-7,0.024c-0.705,0-0.8-0.772-0.8-0.772L29.759,36.5l9.066-1.766
	c0,0,1.127-0.299,1.127-2.253v-3.382H28.435z"/>
<ellipse fill="#333333" cx="30.377" cy="43.177" rx="1.677" ry="1.701"/>
<circle fill="#333333" cx="37.13" cy="43.177" r="1.701"/>
</svg>
