<?xml version="1.0" encoding="utf-8"?>
<!-- Generator: Adobe Illustrator 16.0.3, SVG Export Plug-In . SVG Version: 6.00 Build 0)  -->
<!DOCTYPE svg PUBLIC "-//W3C//DTD SVG 1.1//EN" "http://www.w3.org/Graphics/SVG/1.1/DTD/svg11.dtd">
<svg version="1.1" id="Слой_1" xmlns="http://www.w3.org/2000/svg" xmlns:xlink="http://www.w3.org/1999/xlink" x="0px" y="0px"
	 width="70px" height="75.999px" viewBox="0 0 70 75.999" enable-background="new 0 0 70 75.999" xml:space="preserve">
<path fill-rule="evenodd" clip-rule="evenodd" fill="#DDDDDD" d="M27.372,50.053c0-0.529,0-0.827,0-1.126
	c0-13.724-0.006-27.446,0.005-41.17c0.003-3.121,1.404-5.482,4.192-6.881c2.752-1.38,5.479-1.118,7.969,0.692
	c2.1,1.527,3.063,3.667,3.063,6.259c-0.006,13.695-0.003,27.391-0.003,41.085c0,0.302,0,0.604,0,1.072
	c0.332-0.304,0.557-0.494,0.765-0.701c4.524-4.513,9.029-9.045,13.575-13.535c4.2-4.149,11.119-2.407,12.735,3.199
	c0.757,2.624,0.185,5.001-1.572,7.091c-0.235,0.279-0.498,0.535-0.758,0.794c-8.865,8.85-17.732,17.698-26.6,26.546
	c-3.497,3.49-8.015,3.495-11.508,0.01C20.289,64.46,11.337,55.539,2.4,46.602c-3.906-3.905-2.901-10.144,1.975-12.433
	c2.908-1.365,6.283-0.77,8.649,1.567c2.804,2.771,5.583,5.564,8.372,8.349C23.328,46.013,25.259,47.942,27.372,50.053z"/>
</svg>
