<?xml version="1.0" encoding="utf-8"?>
<!-- Generator: Adobe Illustrator 18.0.0, SVG Export Plug-In . SVG Version: 6.00 Build 0)  -->
<!DOCTYPE svg PUBLIC "-//W3C//DTD SVG 1.1//EN" "http://www.w3.org/Graphics/SVG/1.1/DTD/svg11.dtd">
<svg version="1.1" id="Слой_1" xmlns="http://www.w3.org/2000/svg" xmlns:xlink="http://www.w3.org/1999/xlink" x="0px" y="0px" width="7" height="11"
	 viewBox="0 0 7 11" enable-background="new 0 0 7 11" xml:space="preserve">
<path fill="#666666" d="M4.09,5.431C3.578,4.922,3.11,4.447,2.63,3.982C1.872,3.245,1.104,2.517,0.343,1.783
	c-0.442-0.426-0.458-1.062-0.042-1.474C0.718-0.104,1.4-0.105,1.847,0.319C2.614,1.047,3.376,1.78,4.138,2.513
	c0.73,0.701,1.459,1.403,2.187,2.106c0.476,0.46,0.48,1.069,0.005,1.527c-1.486,1.431-2.974,2.86-4.464,4.288
	c-0.462,0.443-1.123,0.454-1.559,0.036C-0.12,10.06-0.099,9.412,0.363,8.969c1.188-1.141,2.378-2.281,3.569-3.421
	C3.983,5.499,4.046,5.463,4.09,5.431z"/>
</svg>
