<svg xmlns="http://www.w3.org/2000/svg" xmlns:xlink="http://www.w3.org/1999/xlink" version="1.1" x="0px" y="0px" width="56.234px" height="63.491px" viewBox="6.368 74.224 56.234 63.491" enable-background="new 6.368 74.224 56.234 63.491" xml:space="preserve"><style>.style0{fill:	#F04A42;}.style1{fill:	#FFFFFF;}.style2{fill:	#8E8E8E;}</style><path d="M9.456 122.725c2.845 3.4 5.7 6.8 8.5 10.164c0.729 0.9 1.5 1.7 2.2 2.6 c0.478 0.6 0.4 1.402-0.157 1.869c-0.561 0.477-1.326 0.418-1.866-0.145c-0.106-0.111-0.206-0.229-0.306-0.348 c-2.686-3.223-5.369-6.445-8.055-9.668c-0.977-1.172-1.955-2.344-2.932-3.516c-0.572-0.689-0.578-1.314-0.01-1.994 c3.65-4.383 7.304-8.768 10.955-13.15c0.109-0.131 0.217-0.262 0.336-0.383c0.545-0.568 1.301-0.635 1.865-0.164 c0.563 0.5 0.6 1.3 0.1 1.904c-1.033 1.266-2.09 2.514-3.137 3.77c-2.391 2.867-4.779 5.734-7.169 8.6 C9.684 122.4 9.6 122.6 9.5 122.725z" class="style0"/><path d="M31.396 122.725c-2.845 3.412-5.658 6.787-8.475 10.164c-0.729 0.875-1.472 1.744-2.184 2.6 c-0.479 0.596-0.394 1.4 0.2 1.869c0.561 0.5 1.3 0.4 1.866-0.145c0.106-0.111 0.206-0.229 0.306-0.348 c2.685-3.223 5.369-6.445 8.054-9.668c0.978-1.172 1.955-2.344 2.933-3.516c0.572-0.689 0.577-1.314 0.01-1.994 c-3.65-4.383-7.305-8.768-10.955-13.15c-0.109-0.131-0.217-0.262-0.336-0.383c-0.545-0.568-1.301-0.635-1.865-0.164 c-0.563 0.469-0.648 1.295-0.149 1.904c1.034 1.3 2.1 2.5 3.1 3.77c2.39 2.9 4.8 5.7 7.2 8.6 C31.17 122.4 31.3 122.6 31.4 122.725z" class="style0"/><path d="M9.456 89.235c2.846 3.4 5.7 6.8 8.5 10.164c0.729 0.9 1.5 1.7 2.2 2.6 c0.478 0.6 0.4 1.402-0.157 1.869c-0.561 0.479-1.325 0.418-1.866-0.145c-0.106-0.111-0.206-0.229-0.306-0.348 c-2.686-3.223-5.369-6.443-8.053-9.668c-0.979-1.172-1.957-2.344-2.934-3.516c-0.572-0.689-0.578-1.314-0.01-1.994 c3.65-4.383 7.305-8.768 10.956-13.15c0.108-0.131 0.217-0.262 0.335-0.383c0.545-0.568 1.302-0.635 1.865-0.164 c0.563 0.5 0.6 1.3 0.1 1.904c-1.035 1.265-2.092 2.513-3.139 3.769c-2.391 2.867-4.779 5.734-7.168 8.6 C9.684 88.9 9.6 89.1 9.5 89.235z" class="style1"/><path d="M31.396 89.235c-2.845 3.412-5.658 6.787-8.474 10.164c-0.729 0.875-1.472 1.744-2.185 2.6 c-0.479 0.598-0.394 1.4 0.2 1.869c0.561 0.5 1.3 0.4 1.866-0.145c0.106-0.111 0.206-0.229 0.306-0.348 c2.685-3.223 5.369-6.443 8.054-9.668c0.978-1.172 1.955-2.344 2.933-3.516c0.572-0.689 0.577-1.314 0.01-1.994 c-3.65-4.383-7.305-8.768-10.955-13.15c-0.109-0.131-0.217-0.262-0.336-0.383c-0.545-0.568-1.301-0.635-1.864-0.164 c-0.564 0.469-0.649 1.295-0.15 1.904c1.034 1.3 2.1 2.5 3.1 3.769c2.391 2.9 4.8 5.7 7.2 8.6 C31.169 88.9 31.3 89.1 31.4 89.235z" class="style1"/><path d="M37.574 89.235c2.845 3.4 5.7 6.8 8.5 10.164c0.729 0.9 1.5 1.7 2.2 2.6 c0.478 0.6 0.4 1.402-0.157 1.869c-0.56 0.479-1.325 0.418-1.866-0.145c-0.107-0.111-0.207-0.229-0.306-0.348 c-2.686-3.223-5.369-6.443-8.054-9.668c-0.978-1.172-1.955-2.344-2.933-3.516c-0.573-0.689-0.578-1.314-0.01-1.994 c3.651-4.383 7.303-8.768 10.955-13.15c0.108-0.131 0.217-0.262 0.335-0.383c0.546-0.568 1.302-0.635 1.865-0.164 c0.564 0.5 0.6 1.3 0.1 1.904c-1.034 1.265-2.09 2.513-3.137 3.769c-2.39 2.867-4.779 5.734-7.169 8.6 C37.802 88.9 37.7 89.1 37.6 89.235z" class="style2"/><path d="M59.514 89.235c-2.845 3.412-5.658 6.787-8.474 10.164c-0.729 0.875-1.472 1.744-2.185 2.6 c-0.479 0.598-0.393 1.4 0.2 1.869c0.562 0.5 1.3 0.4 1.867-0.145c0.106-0.111 0.206-0.229 0.306-0.348 c2.685-3.223 5.368-6.443 8.053-9.668c0.978-1.172 1.955-2.344 2.934-3.516c0.573-0.689 0.577-1.314 0.01-1.994 c-3.65-4.383-7.304-8.768-10.955-13.15c-0.108-0.131-0.218-0.262-0.336-0.383c-0.546-0.568-1.302-0.635-1.865-0.164 c-0.563 0.469-0.647 1.295-0.148 1.904c1.033 1.3 2.1 2.5 3.1 3.769c2.389 2.9 4.8 5.7 7.2 8.6 C59.287 88.9 59.4 89.1 59.5 89.235z" class="style2"/></svg>