<?xml version="1.0" encoding="utf-8"?>
<!-- Generator: Adobe Illustrator 18.0.0, SVG Export Plug-In . SVG Version: 6.00 Build 0)  -->
<!DOCTYPE svg PUBLIC "-//W3C//DTD SVG 1.1//EN" "http://www.w3.org/Graphics/SVG/1.1/DTD/svg11.dtd">
<svg version="1.1" xmlns="http://www.w3.org/2000/svg" xmlns:xlink="http://www.w3.org/1999/xlink" x="0px" y="0px" width="18px" height="18px" viewBox="0 0 18 18" enable-background="new 0 0 18 18" xml:space="preserve">
<path fill="#7ACCCE" d="M0,18c0.7-1.3,1.3-2.4,1.9-3.6C2,14.2,2,14,1.8,13.8C-1.8,8.6,1.2,1.2,7.5,0.1c4.7-0.8,9.2,2.2,10.1,6.9
	c1,4.8-2.3,9.6-7.2,10.4c-2.2,0.3-4.2-0.1-6.1-1.2c-0.2-0.1-0.3-0.1-0.5,0c-1.2,0.6-2.3,1.2-3.5,1.7C0.2,17.9,0.1,17.9,0,18z
	 M8.1,6.7c0-0.1,0-0.2,0.1-0.3C8.3,6,8.6,5.8,9.1,5.8C9.6,5.8,9.9,6,10,6.5c0.1,0.4-0.1,0.7-0.3,1C9.2,8,8.8,8.5,8.4,9
	c-0.5,0.6-0.6,1.2-0.5,1.9c0.9,0,1.7,0,2.6,0c0-0.5,0.3-0.8,0.5-1.2c0.3-0.4,0.6-0.8,0.9-1.2c0.5-0.7,0.7-1.5,0.6-2.4
	c-0.2-1-0.7-1.7-1.6-2.2C9.4,3.2,7.5,3.5,6.5,4.5C5.9,5.1,5.6,5.9,5.7,6.7C6.5,6.7,7.3,6.7,8.1,6.7z M10.4,12.1c-0.9,0-1.7,0-2.5,0
	c0,0.8,0,1.6,0,2.4c0.9,0,1.7,0,2.5,0C10.4,13.7,10.4,12.9,10.4,12.1z"/>
</svg>