<?xml version="1.0" encoding="utf-8"?>
<!-- Generator: Adobe Illustrator 16.0.0, SVG Export Plug-In . SVG Version: 6.00 Build 0)  -->
<!DOCTYPE svg PUBLIC "-//W3C//DTD SVG 1.1//EN" "http://www.w3.org/Graphics/SVG/1.1/DTD/svg11.dtd">
<svg version="1.1" id="Слой_1" xmlns="http://www.w3.org/2000/svg" xmlns:xlink="http://www.w3.org/1999/xlink" x="0px" y="0px"
	 width="178px" height="43.519px" viewBox="177.5 19.002 178 43.519" enable-background="new 177.5 19.002 178 43.519"
	 xml:space="preserve">
<g>
	<path fill="#333333" d="M324.285,37.027c-0.993-0.992-2.141-1.488-3.441-1.488c-1.06,0-1.898,0.443-2.516,1.33
		c-0.618,0.889-0.928,2.281-0.928,4.18c0,1.678,0.274,2.951,0.82,3.822c0.546,0.873,1.354,1.307,2.424,1.307
		c0.674,0,1.31-0.201,1.912-0.602c0.602-0.404,1.178-0.986,1.729-1.748V37.027z M326.552,53.724
		c-1.28,1.248-3.217,1.869-5.809,1.869c-1.181,0-2.212-0.121-3.094-0.363c-0.884-0.242-1.613-0.59-2.193-1.041
		c-0.579-0.453-1.016-0.988-1.309-1.607c-0.291-0.617-0.438-1.307-0.438-2.068h4.039c0.065,0.795,0.334,1.389,0.802,1.779
		c0.47,0.393,1.233,0.59,2.293,0.59c0.729,0,1.32-0.117,1.777-0.35c0.46-0.23,0.814-0.557,1.068-0.977s0.428-0.93,0.522-1.531
		c0.093-0.602,0.14-1.271,0.14-2.01v-1.059c-1.357,1.545-2.928,2.316-4.717,2.316c-1.047,0-1.975-0.184-2.779-0.555
		c-0.805-0.369-1.487-0.904-2.044-1.605c-0.558-0.701-0.979-1.561-1.266-2.582c-0.288-1.02-0.431-2.182-0.431-3.482
		c0-1.215,0.149-2.344,0.447-3.393c0.297-1.049,0.729-1.955,1.298-2.723c0.569-0.766,1.277-1.371,2.127-1.811
		c0.85-0.441,1.832-0.664,2.945-0.664c0.895,0,1.705,0.129,2.435,0.381c0.728,0.254,1.404,0.658,2.034,1.209v-1.225h4.071v15.107
		C328.472,50.548,327.832,52.478,326.552,53.724z M306.205,41.562h-1.622c-1.741,0-3.044,0.223-3.904,0.67
		c-0.859,0.445-1.291,1.178-1.291,2.191c0,0.762,0.26,1.326,0.778,1.697c0.518,0.369,1.207,0.555,2.068,0.555
		c0.396,0,0.788-0.049,1.176-0.141c0.386-0.096,0.749-0.221,1.091-0.381s0.659-0.357,0.952-0.596c0.292-0.238,0.543-0.5,0.752-0.787
		V41.562z M306.238,49.025v-1.49c-0.717,0.629-1.527,1.098-2.431,1.406c-0.907,0.309-1.933,0.463-3.079,0.463
		c-0.794,0-1.533-0.102-2.218-0.305c-0.684-0.205-1.276-0.504-1.778-0.902c-0.502-0.396-0.9-0.891-1.191-1.48
		c-0.293-0.59-0.438-1.271-0.438-2.045c0-3.75,3.231-5.625,9.696-5.625h1.406c0-0.85-0.027-1.475-0.082-1.871
		c-0.056-0.264-0.133-0.506-0.231-0.727s-0.243-0.414-0.43-0.58c-0.2-0.287-0.514-0.494-0.943-0.619
		c-0.432-0.129-0.949-0.191-1.556-0.191c-1.092,0-1.918,0.201-2.475,0.604c-0.558,0.402-0.875,1-0.951,1.795h-3.773
		c0.221-3.332,2.67-4.998,7.349-4.998c1.136,0,2.136,0.09,3.003,0.266c0.865,0.178,1.646,0.49,2.341,0.943
		c0.651,0.42,1.137,1.01,1.456,1.771c0.32,0.76,0.48,1.799,0.48,3.109v10.477H306.238z M288.177,49.025v-10.26
		c0-1.115-0.19-1.92-0.571-2.418c-0.382-0.496-1.008-0.744-1.879-0.744c-0.64,0-1.276,0.191-1.911,0.572
		c-0.634,0.381-1.261,0.934-1.878,1.662v11.188h-4.204v-22.39h4.204v4.898c0,0.552-0.01,1.109-0.024,1.671
		c-0.017,0.563-0.037,1.104-0.059,1.621c1.468-1.578,3.129-2.367,4.981-2.367c3.695,0,5.543,1.992,5.543,5.975v10.592H288.177z
		 M261.946,34.371c0.381,0.215,0.869,0.418,1.466,0.605c0.595,0.188,1.322,0.375,2.184,0.563c0.794,0.176,1.568,0.352,2.325,0.529
		c0.755,0.176,1.47,0.385,2.143,0.627c0.673,0.244,1.293,0.525,1.862,0.846c0.567,0.318,1.053,0.709,1.455,1.166
		s0.717,0.998,0.943,1.621c0.226,0.625,0.34,1.355,0.34,2.193c0,1.07-0.227,2.031-0.679,2.881c-0.453,0.85-1.079,1.57-1.878,2.166
		c-0.8,0.596-1.747,1.051-2.838,1.367c-1.093,0.313-2.291,0.469-3.592,0.469c-3.11,0-5.494-0.66-7.148-1.984
		c-1.655-1.324-2.555-3.248-2.698-5.775h4.121c0.066,0.717,0.251,1.34,0.555,1.871c0.304,0.529,0.702,0.969,1.199,1.322
		s1.073,0.619,1.729,0.795s1.365,0.266,2.127,0.266c0.739,0,1.408-0.072,2.01-0.217c0.603-0.143,1.111-0.35,1.531-0.619
		c0.42-0.271,0.742-0.602,0.969-0.994c0.226-0.391,0.338-0.834,0.338-1.332c0-0.441-0.104-0.822-0.313-1.141
		c-0.21-0.32-0.521-0.605-0.935-0.854s-0.936-0.469-1.564-0.662s-1.363-0.395-2.201-0.604c-1.225-0.287-2.342-0.576-3.351-0.869
		c-1.009-0.291-1.89-0.65-2.64-1.074c-0.75-0.426-1.352-0.941-1.804-1.549c-0.453-0.605-0.739-1.379-0.861-2.316
		c-0.032-0.242-0.058-0.488-0.073-0.736c-0.018-0.248-0.015-0.504,0.008-0.77c0.065-0.871,0.311-1.668,0.736-2.39
		c0.425-0.723,1.004-1.344,1.737-1.862s1.605-0.924,2.614-1.217c1.01-0.293,2.127-0.438,3.352-0.438
		c1.335,0,2.549,0.154,3.641,0.463c1.093,0.311,2.027,0.761,2.805,1.357c0.778,0.596,1.387,1.321,1.829,2.176
		c0.44,0.855,0.689,1.829,0.744,2.921h-4.169c-0.222-2.284-1.794-3.426-4.718-3.426c-0.693,0-1.313,0.07-1.853,0.207
		c-0.541,0.139-0.998,0.331-1.373,0.579c-0.376,0.248-0.664,0.544-0.861,0.886c-0.198,0.342-0.299,0.728-0.299,1.159
		c0,0.408,0.087,0.756,0.258,1.043C261.289,33.904,261.565,34.156,261.946,34.371z M248.906,49.025v-10.26
		c0-0.828-0.1-1.477-0.298-1.945c-0.199-0.469-0.524-0.785-0.977-0.951c-0.475-0.154-1.016-0.188-1.622-0.1
		c-1.114,0.088-2.229,0.777-3.344,2.068v11.188h-4.203V32.824h4.088v2.053c1.479-1.611,3.15-2.418,5.015-2.418
		c3.695,0,5.544,1.992,5.544,5.975v10.592H248.906z M230.577,26.534h4.203v3.575h-4.203V26.534z M230.577,49.025V32.824h4.203
		v16.201H230.577z M222.692,37.027c-0.993-0.992-2.14-1.488-3.442-1.488c-1.092,0-1.938,0.457-2.54,1.373s-0.902,2.295-0.902,4.137
		c0,1.766,0.273,3.084,0.819,3.955c0.547,0.871,1.354,1.309,2.425,1.309c0.673,0,1.313-0.199,1.919-0.596
		c0.607-0.398,1.181-0.982,1.722-1.756V37.027z M222.807,49.025v-1.969c-0.64,0.75-1.36,1.33-2.158,1.736
		c-0.801,0.408-1.67,0.611-2.607,0.611c-1.06,0-1.993-0.193-2.805-0.578c-0.811-0.387-1.493-0.939-2.044-1.662
		c-0.553-0.725-0.968-1.602-1.25-2.633c-0.281-1.031-0.421-2.191-0.421-3.482c0-1.281,0.159-2.447,0.479-3.5
		c0.32-1.055,0.772-1.957,1.356-2.713c0.585-0.756,1.297-1.342,2.135-1.756c0.839-0.414,1.787-0.621,2.847-0.621
		c0.915,0,1.727,0.129,2.433,0.381c0.706,0.254,1.367,0.658,1.986,1.209c-0.033-0.584-0.053-1.123-0.058-1.613
		c-0.006-0.492-0.009-0.98-0.009-1.464v-4.336h4.188v22.39H222.807z"/>
	<path fill="#666666" d="M354.355,47.994c-0.764,0.957-1.982,1.436-3.654,1.436c-1.703,0-2.935-0.475-3.699-1.424
		c-0.762-0.949-1.144-2.488-1.144-4.619v-5.473h2.278v6.23c0,1.074,0.2,1.844,0.599,2.311c0.399,0.467,1.049,0.699,1.944,0.699
		s1.544-0.232,1.942-0.699c0.399-0.467,0.599-1.236,0.599-2.311v-6.23h2.279v5.473C355.5,45.501,355.117,47.037,354.355,47.994z
		 M343.595,40.177c-0.196-0.156-0.408-0.27-0.635-0.344c-0.228-0.076-0.481-0.111-0.762-0.111c-0.756,0-1.299,0.336-1.626,1.008
		c-0.332,0.674-0.495,1.803-0.495,3.391v4.854h-2.28V37.89h2.28v1.783c0.245-0.73,0.569-1.27,0.972-1.619
		c0.4-0.35,0.901-0.527,1.497-0.527c0.32,0,0.638,0.045,0.948,0.129c0.313,0.086,0.62,0.211,0.92,0.373L343.595,40.177z
		 M333.741,48.748c-0.268,0.291-0.593,0.438-0.978,0.438s-0.71-0.146-0.976-0.438c-0.268-0.291-0.399-0.648-0.399-1.068
		c0-0.428,0.132-0.793,0.399-1.096c0.266-0.305,0.591-0.455,0.976-0.455s0.71,0.15,0.978,0.455c0.266,0.303,0.397,0.668,0.397,1.096
		C334.138,48.099,334.007,48.457,333.741,48.748z"/>
	<g>
		<path fill="#666666" d="M211.522,53.753h1.074v4.834l2.979-4.834h1.157v6.34h-1.074v-4.807l-2.979,4.807h-1.157V53.753z"/>
		<path fill="#666666" d="M218.357,53.753h1.075v2.639h2.978v-2.639h1.075v6.34h-1.075v-2.813h-2.978v2.813h-1.075V53.753z"/>
		<path fill="#666666" d="M224.523,53.753h5.152v0.889h-2.041v5.451h-1.069v-5.451h-2.042V53.753z"/>
		<path fill="#666666" d="M234.905,58.052l1.11,0.135c-0.176,0.65-0.499,1.152-0.973,1.512c-0.475,0.357-1.078,0.537-1.814,0.537
			c-0.928,0-1.663-0.285-2.207-0.857c-0.542-0.57-0.814-1.371-0.814-2.402c0-1.066,0.274-1.895,0.824-2.484
			c0.549-0.588,1.261-0.883,2.137-0.883c0.848,0,1.54,0.289,2.078,0.867c0.537,0.576,0.807,1.387,0.807,2.434
			c0,0.064-0.003,0.16-0.007,0.287h-4.729c0.04,0.697,0.237,1.229,0.592,1.602c0.354,0.369,0.796,0.555,1.325,0.555
			c0.394,0,0.73-0.105,1.008-0.313C234.52,58.833,234.742,58.505,234.905,58.052z M231.377,56.312h3.541
			c-0.048-0.531-0.184-0.932-0.406-1.199c-0.343-0.414-0.786-0.621-1.331-0.621c-0.494,0-0.909,0.166-1.245,0.496
			C231.598,55.318,231.413,55.761,231.377,56.312z"/>
		<path fill="#666666" d="M237.365,62.521v-8.768h0.979v0.822c0.23-0.322,0.492-0.564,0.782-0.725s0.643-0.242,1.057-0.242
			c0.541,0,1.019,0.141,1.433,0.418c0.414,0.279,0.727,0.672,0.938,1.18s0.316,1.064,0.316,1.668c0,0.648-0.115,1.232-0.35,1.752
			c-0.232,0.52-0.571,0.918-1.015,1.193c-0.444,0.277-0.91,0.416-1.4,0.416c-0.357,0-0.679-0.076-0.963-0.227
			c-0.285-0.152-0.52-0.342-0.702-0.574v3.086H237.365z M238.338,56.958c0,0.814,0.165,1.418,0.495,1.809
			c0.331,0.391,0.731,0.586,1.2,0.586c0.479,0,0.887-0.203,1.227-0.607c0.341-0.402,0.511-1.029,0.511-1.877
			c0-0.809-0.166-1.414-0.498-1.814c-0.332-0.402-0.729-0.604-1.19-0.604c-0.459,0-0.863,0.215-1.216,0.643
			C238.514,55.521,238.338,56.142,238.338,56.958z"/>
		<path fill="#666666" d="M244.171,53.753h1.074v2.639h2.979v-2.639h1.074v6.34h-1.074v-2.813h-2.979v2.813h-1.074V53.753z"/>
		<path fill="#666666" d="M255.257,58.052l1.11,0.135c-0.176,0.65-0.5,1.152-0.973,1.512c-0.475,0.357-1.08,0.537-1.816,0.537
			c-0.927,0-1.662-0.285-2.205-0.857c-0.543-0.57-0.814-1.371-0.814-2.402c0-1.066,0.274-1.895,0.823-2.484
			c0.55-0.588,1.262-0.883,2.138-0.883c0.848,0,1.54,0.289,2.077,0.867c0.537,0.576,0.806,1.387,0.806,2.434
			c0,0.064-0.001,0.16-0.006,0.287h-4.729c0.041,0.697,0.237,1.229,0.591,1.602c0.355,0.369,0.796,0.555,1.325,0.555
			c0.395,0,0.73-0.105,1.01-0.313S255.094,58.505,255.257,58.052z M251.728,56.312h3.541c-0.05-0.531-0.185-0.932-0.407-1.199
			c-0.343-0.414-0.786-0.621-1.331-0.621c-0.494,0-0.908,0.166-1.245,0.496S251.763,55.761,251.728,56.312z"/>
		<path fill="#666666" d="M256.73,53.753h5.152v0.889h-2.042v5.451h-1.068v-5.451h-2.042V53.753z"/>
		<path fill="#666666" d="M262.491,57.466v-1.082h3.302v1.082H262.491z"/>
		<path fill="#666666" d="M267.01,53.753h1.671l1.666,5.074l1.852-5.074h1.545v6.34h-1.073v-5.105l-1.874,5.105h-0.962l-1.773-5.35
			v5.35h-1.051V53.753z"/>
		<path fill="#666666" d="M279.523,59.31c-0.397,0.338-0.781,0.578-1.148,0.717c-0.369,0.139-0.764,0.209-1.186,0.209
			c-0.696,0-1.231-0.17-1.605-0.512c-0.375-0.338-0.562-0.773-0.562-1.303c0-0.311,0.07-0.594,0.212-0.852
			c0.142-0.256,0.326-0.461,0.556-0.617c0.228-0.156,0.486-0.273,0.772-0.354c0.211-0.055,0.529-0.109,0.955-0.16
			c0.867-0.104,1.507-0.227,1.916-0.371c0.005-0.146,0.007-0.24,0.007-0.279c0-0.439-0.102-0.746-0.305-0.926
			c-0.274-0.242-0.683-0.363-1.224-0.363c-0.506,0-0.879,0.088-1.119,0.266c-0.242,0.178-0.42,0.49-0.534,0.939l-1.051-0.145
			c0.095-0.449,0.253-0.813,0.472-1.088c0.218-0.275,0.535-0.49,0.948-0.639c0.414-0.15,0.894-0.225,1.439-0.225
			c0.54,0,0.98,0.064,1.319,0.191c0.337,0.127,0.586,0.287,0.746,0.48c0.158,0.193,0.271,0.438,0.334,0.73
			c0.036,0.184,0.053,0.514,0.053,0.992v1.434c0,0.998,0.023,1.631,0.069,1.895s0.137,0.518,0.271,0.762h-1.122
			C279.627,59.869,279.555,59.609,279.523,59.31z M279.433,56.91c-0.39,0.16-0.975,0.295-1.755,0.406
			c-0.441,0.064-0.755,0.135-0.937,0.217c-0.184,0.078-0.325,0.195-0.424,0.348c-0.1,0.154-0.149,0.322-0.149,0.51
			c0,0.287,0.107,0.525,0.325,0.717c0.217,0.191,0.534,0.287,0.951,0.287c0.414,0,0.782-0.09,1.105-0.271
			c0.322-0.182,0.559-0.43,0.71-0.744c0.116-0.242,0.173-0.6,0.173-1.074V56.91z"/>
		<path fill="#666666" d="M282.191,53.753h3.648v0.889h-2.573v5.451h-1.075V53.753z"/>
		<path fill="#666666" d="M290.513,59.31c-0.398,0.338-0.781,0.578-1.149,0.717s-0.763,0.209-1.185,0.209
			c-0.696,0-1.231-0.17-1.605-0.512c-0.375-0.338-0.562-0.773-0.562-1.303c0-0.311,0.07-0.594,0.212-0.852
			c0.141-0.256,0.326-0.461,0.555-0.617c0.23-0.156,0.486-0.273,0.773-0.354c0.211-0.055,0.529-0.109,0.955-0.16
			c0.867-0.104,1.507-0.227,1.916-0.371c0.005-0.146,0.006-0.24,0.006-0.279c0-0.439-0.101-0.746-0.304-0.926
			c-0.274-0.242-0.683-0.363-1.224-0.363c-0.506,0-0.879,0.088-1.12,0.266c-0.24,0.178-0.419,0.49-0.534,0.939l-1.051-0.145
			c0.096-0.449,0.253-0.813,0.473-1.088c0.219-0.275,0.534-0.49,0.948-0.639c0.414-0.15,0.895-0.225,1.438-0.225
			c0.542,0,0.981,0.064,1.32,0.191c0.338,0.127,0.587,0.287,0.746,0.48c0.158,0.193,0.271,0.438,0.334,0.73
			c0.035,0.184,0.054,0.514,0.054,0.992v1.434c0,0.998,0.022,1.631,0.069,1.895c0.045,0.264,0.136,0.518,0.271,0.762h-1.122
			C290.617,59.869,290.546,59.609,290.513,59.31z M290.424,56.91c-0.39,0.16-0.975,0.295-1.754,0.406
			c-0.442,0.064-0.755,0.135-0.938,0.217c-0.184,0.078-0.325,0.195-0.424,0.348c-0.1,0.154-0.149,0.322-0.149,0.51
			c0,0.287,0.108,0.525,0.325,0.717s0.534,0.287,0.951,0.287c0.415,0,0.783-0.09,1.105-0.271s0.56-0.43,0.711-0.744
			c0.114-0.242,0.172-0.6,0.172-1.074V56.91z"/>
		<path fill="#666666" d="M294.442,57.226v-0.842c0.454-0.002,0.763-0.021,0.928-0.053c0.166-0.031,0.321-0.127,0.469-0.287
			c0.147-0.158,0.221-0.357,0.221-0.596c0-0.291-0.096-0.523-0.289-0.697c-0.192-0.172-0.442-0.26-0.75-0.26
			c-0.604,0-1.028,0.357-1.271,1.068l-1.021-0.166c0.318-1.189,1.086-1.785,2.305-1.785c0.676,0,1.206,0.186,1.591,0.555
			c0.384,0.371,0.575,0.813,0.575,1.326c0,0.518-0.25,0.93-0.75,1.236c0.316,0.17,0.556,0.389,0.715,0.652
			c0.159,0.266,0.239,0.578,0.239,0.941c0,0.568-0.207,1.029-0.621,1.385c-0.414,0.354-0.993,0.531-1.737,0.531
			c-1.444,0-2.282-0.643-2.514-1.928l1.009-0.217c0.093,0.406,0.278,0.721,0.559,0.945c0.281,0.223,0.602,0.334,0.965,0.334
			c0.361,0,0.663-0.104,0.903-0.307c0.241-0.207,0.361-0.469,0.361-0.785c0-0.248-0.075-0.465-0.227-0.646s-0.313-0.297-0.483-0.344
			c-0.172-0.045-0.481-0.068-0.931-0.068C294.651,57.22,294.569,57.224,294.442,57.226z"/>
		<path fill="#666666" d="M298.644,53.753h1.074v4.834l2.979-4.834h1.158v6.34h-1.074v-4.807l-2.979,4.807h-1.158V53.753z"/>
		<path fill="#666666" d="M305.48,53.753h1.074v2.639h2.979v-2.639h1.074v6.34h-1.074v-2.813h-2.979v2.813h-1.074V53.753z"/>
	</g>
	<g>
		<g>
			<path fill-rule="evenodd" clip-rule="evenodd" fill="#EE4941" d="M208.173,29.453c0,0,0.074-0.874-0.131-1.322
				c-0.24-0.519-0.764-0.925-0.764-0.925l-13.125-7.829c0,0-0.6-0.354-1.18-0.363c-0.542-0.009-1.373,0.439-1.373,0.439
				l-12.743,7.524c0,0-0.741,0.439-1.091,0.901c-0.326,0.432-0.262,1.384-0.262,1.384l0.058,13.907c0,0-0.017,0.91,0.199,1.414
				c0.222,0.518,0.715,0.891,0.715,0.891l13.067,7.641c0,0,1.033,0.303,1.543,0.303c0.459,0,1.543-0.342,1.543-0.342l12.344-7.334
				c0,0,0.869-0.373,1.066-0.85c0.221-0.539,0.113-1.342,0.113-1.342L208.173,29.453z M203.075,42.052l-10.125,5.832l-10.125-5.832
				V30.381l10.125-5.835l10.125,5.835V42.052z"/>
		</g>
	</g>
	<path fill-rule="evenodd" clip-rule="evenodd" fill="#B32B2B" d="M192.951,47.884L192.951,47.884l-10.126-5.832V30.381
		l10.125-5.835h0.001v-5.53c-0.544,0.002-1.351,0.438-1.351,0.438l-12.743,7.524c0,0-0.741,0.439-1.091,0.901
		c-0.326,0.432-0.262,1.384-0.262,1.384l0.058,13.907c0,0-0.017,0.91,0.199,1.414c0.222,0.518,0.715,0.891,0.715,0.891l13.067,7.641
		c0,0,0.87,0.254,1.407,0.295V47.884z"/>
</g>
</svg>
