<?xml version="1.0" encoding="utf-8"?>
<!-- Generator: Adobe Illustrator 16.0.3, SVG Export Plug-In . SVG Version: 6.00 Build 0)  -->
<!DOCTYPE svg PUBLIC "-//W3C//DTD SVG 1.1//EN" "http://www.w3.org/Graphics/SVG/1.1/DTD/svg11.dtd">
<svg version="1.1" id="Слой_1" xmlns="http://www.w3.org/2000/svg" xmlns:xlink="http://www.w3.org/1999/xlink" x="0px" y="0px"
	 width="22px" height="17px" viewBox="0 0 22 17" enable-background="new 0 0 22 17" xml:space="preserve">
<style>
.menu
{
	fill: #ffffff;
}
</style>

<g class="menu">
	<path d="M1.236,3h18.159c0.683,0,1.236-0.672,1.236-1.5S20.077,0,19.396,0H1.236C0.553,0,0,0.672,0,1.5S0.552,3,1.236,3z"/>
	<path d="M19.396,6H1.236C0.553,6,0,6.671,0,7.5C0,8.328,0.554,9,1.236,9h18.159c0.683,0,1.236-0.672,1.236-1.5 C20.634,6.67,20.079,6,19.396,6z"/>
	<path d="M19.396,11.89H1.236C0.553,11.89,0,12.562,0,13.39s0.555,1.5,1.237,1.5h18.159c0.683,0,1.236-0.672,1.236-1.5 C20.634,12.562,20.079,11.89,19.396,11.89z"/>
</g>
</svg>
