<?xml version="1.0" encoding="utf-8"?>
<!-- Generator: Adobe Illustrator 16.0.3, SVG Export Plug-In . SVG Version: 6.00 Build 0)  -->
<!DOCTYPE svg PUBLIC "-//W3C//DTD SVG 1.1//EN" "http://www.w3.org/Graphics/SVG/1.1/DTD/svg11.dtd">
<svg version="1.1" xmlns="http://www.w3.org/2000/svg" xmlns:xlink="http://www.w3.org/1999/xlink" x="0px" y="0px"
	 width="18px" height="18px" viewBox="0 0 18 18" enable-background="new 0 0 18 18" xml:space="preserve">
<style>
.phone
{
	fill: #ffffff;
	filter: "progid:DXImageTransform.Microsoft.Dropshadow(OffX=0, OffY=1, Color='#777')";
	filter: url(#drop-shadow);
	-webkit-filter: drop-shadow(0px 1px 1px 0px #777);
	filter: drop-shadow(0px 1px 1px 0px #777);
}
</style>

<path class="phone" d="M13.066,11.216c-0.576-0.161-1.154-0.315-1.732-0.473c-0.713-0.193-1.33-0.023-1.855,0.489
c-0.162,0.157-0.324,0.313-0.477,0.479c-0.08,0.088-0.154,0.104-0.27,0.071c-1.288-0.387-2.391-1.07-3.303-2.058
C4.654,8.888,4.105,7.917,3.781,6.82C3.75,6.713,3.761,6.643,3.847,6.564c0.189-0.177,0.375-0.359,0.551-0.55
C4.843,5.53,5.001,4.961,4.843,4.321C4.697,3.729,4.521,3.144,4.369,2.554C4.283,2.221,4.117,1.937,3.884,1.689
C3.132,0.893,1.919,0.842,1.199,1.632C0.964,1.887,0.72,2.133,0.464,2.365c-0.248,0.224-0.395,0.5-0.447,0.816
c-0.035,0.213-0.006,0.437-0.006,0.655c0.027,0.854,0.141,1.698,0.355,2.526c0.641,2.488,1.92,4.591,3.873,6.262
c2.283,1.951,4.942,2.918,7.942,2.943c0.316,0.003,0.623-0.098,0.857-0.316c0.352-0.324,0.682-0.671,1.014-1.015
c0.088-0.09,0.164-0.196,0.223-0.306C14.893,12.796,14.127,11.514,13.066,11.216z M13.609,6.75
c-0.457-0.449-0.916-0.898-1.383-1.358c1.109-1.11,2.217-2.218,3.313-3.313C14.85,1.39,14.168,0.707,13.461,0
c-1.1,1.102-2.209,2.212-3.346,3.35C9.666,2.9,9.217,2.449,8.762,1.994v4.807h4.814C13.588,6.784,13.598,6.768,13.609,6.75z"/>
			
<filter id="drop-shadow">
	<feGaussianBlur in="SourceAlpha" stdDeviation="1"/>
	<feOffset dx="0" dy="1" result="offsetblur"/>
	<feFlood flood-color="#777"/>
	<feComposite in2="offsetblur" operator="in"/>
	<feMerge>
		<feMergeNode/>
		<feMergeNode in="SourceGraphic"/>
	</feMerge>
</filter>
</svg>
