<?xml version="1.0" encoding="utf-8"?>
<!-- Generator: Adobe Illustrator 16.0.3, SVG Export Plug-In . SVG Version: 6.00 Build 0)  -->
<!DOCTYPE svg PUBLIC "-//W3C//DTD SVG 1.1//EN" "http://www.w3.org/Graphics/SVG/1.1/DTD/svg11.dtd">
<svg version="1.1" id="Слой_1" xmlns="http://www.w3.org/2000/svg" xmlns:xlink="http://www.w3.org/1999/xlink" x="0px" y="0px"
	 width="22.244px" height="18.218px" viewBox="0 0 22.244 18.218" enable-background="new 0 0 22.244 18.218" xml:space="preserve">
<polygon fill="#999999" points="11.164,14.805 11.164,16.708 1.51,16.708 1.51,9.617 3.726,9.617 3.726,8.107 0,8.107 0,18.218 
	12.673,18.218 12.673,14.805 "/>
<path fill="#999999" d="M20.734,1.51v11.727H5.269V1.51H20.734 M22.244,0H3.759v14.746h18.484V0L22.244,0z"/>
<path fill-rule="evenodd" clip-rule="evenodd" fill="#999999" d="M12.254,5.565c-1.374-0.003-2.747-0.003-4.121,0
	c-0.497,0.001-0.857,0.35-0.858,0.815C7.273,6.857,7.633,7.195,8.146,7.196c0.665,0.001,1.331,0,1.996,0.001
	c0.046,0,0.094,0.005,0.186,0.013c-1.134,1.134-2.267,2.268-3.4,3.401c-0.062,0.061-0.125,0.122-0.178,0.189
	c-0.341,0.442-0.146,1.092,0.385,1.265c0.357,0.115,0.65,0,0.91-0.262c1.091-1.094,2.184-2.186,3.276-3.277
	c0.045-0.044,0.094-0.09,0.168-0.161c0,0.757-0.001,1.466,0,2.174c0.001,0.513,0.337,0.87,0.817,0.872s0.818-0.354,0.819-0.866
	c0.001-1.367,0.001-2.734,0-4.102C13.125,5.907,12.791,5.566,12.254,5.565z"/>
</svg>
