<?xml version="1.0" encoding="utf-8"?>
<!-- Generator: Adobe Illustrator 16.0.3, SVG Export Plug-In . SVG Version: 6.00 Build 0)  -->
<!DOCTYPE svg PUBLIC "-//W3C//DTD SVG 1.1//EN" "http://www.w3.org/Graphics/SVG/1.1/DTD/svg11.dtd">
<svg version="1.1" id="Слой_1" xmlns="http://www.w3.org/2000/svg" xmlns:xlink="http://www.w3.org/1999/xlink" x="0px" y="0px"
	 width="70.953px" height="22px" viewBox="0 0 70.953 22" enable-background="new 0 0 70.953 22" xml:space="preserve">
<g>
	<path fill="#7ACCCE" d="M15.423,1.362c-0.193,0.355-0.097,0.93,0.351,2.127c-0.35,0.273-0.704,0.551-1.06,0.827
		c-1.554,1.205-3.108,2.408-4.659,3.616c-0.103,0.08-0.173,0.096-0.297,0.04C9.031,7.648,8.279,7.409,7.476,7.386
		c-0.397-0.012-0.79,0.029-1.189,0.229c1.072,1.227,2.233,2.348,3.399,3.49c-0.001,0.001-0.002,0.003-0.004,0.004
		c0.631,0.644,0.821,0.91,1.47,1.545c1.184,1.142,2.348,2.265,3.538,3.413c0.172-0.302,0.222-0.574,0.24-0.854
		c0.061-0.912-0.204-1.757-0.562-2.579c-0.053-0.122-0.062-0.203,0.027-0.319c1.438-1.872,2.869-3.749,4.3-5.627
		c0.076-0.101,0.135-0.114,0.259-0.077c0.472,0.141,0.946,0.276,1.426,0.382c0.183,0.04,0.385-0.007,0.588-0.047
		C19.188,5.004,17.334,3.158,15.423,1.362z"/>
	<path fill="#B5B5B5" d="M1.968,20.362c3.142-2.479,6.161-5.098,9.184-7.708c0.14,0.136-0.011,0.013,0,0
		c-0.648-0.636-0.839-0.901-1.47-1.545C7.046,14.146,4.406,17.17,1.968,20.362z"/>
</g>
<path fill="#84C551" d="M31.742,1.362c-0.193,0.355-0.097,0.93,0.351,2.127c-0.35,0.273-0.704,0.551-1.06,0.827
	c-1.554,1.205-3.108,2.408-4.659,3.616c-0.103,0.08-0.173,0.096-0.297,0.04c-0.727-0.324-1.479-0.563-2.282-0.587
	c-0.397-0.012-0.79,0.029-1.189,0.229c1.072,1.227,2.233,2.348,3.399,3.49c-0.001,0.001-0.002,0.003-0.004,0.004
	c0.631,0.644,0.821,0.91,1.47,1.545c1.184,1.142,2.348,2.265,3.538,3.413c0.172-0.302,0.222-0.574,0.24-0.854
	c0.061-0.912-0.204-1.757-0.562-2.579c-0.053-0.122-0.062-0.203,0.027-0.319c1.438-1.872,2.869-3.749,4.3-5.627
	c0.076-0.101,0.135-0.114,0.259-0.077c0.472,0.141,0.946,0.276,1.426,0.382c0.183,0.04,0.385-0.007,0.588-0.047
	C35.507,5.004,33.653,3.158,31.742,1.362z"/>
<path fill="#B5B5B5" d="M18.287,20.362c3.142-2.479,6.161-5.098,9.184-7.708c0.14,0.136-0.011,0.013,0,0
	c-0.648-0.636-0.839-0.901-1.47-1.545C23.365,14.146,20.725,17.17,18.287,20.362z"/>
<path fill="#F06D20" d="M49.089,1.362c-0.193,0.355-0.097,0.93,0.351,2.127c-0.35,0.273-0.704,0.551-1.06,0.827
	c-1.554,1.205-3.108,2.408-4.659,3.616c-0.103,0.08-0.173,0.096-0.297,0.04c-0.727-0.324-1.479-0.563-2.282-0.587
	c-0.397-0.012-0.79,0.029-1.189,0.229c1.072,1.227,2.233,2.348,3.399,3.49c-0.001,0.001-0.002,0.003-0.004,0.004
	c0.631,0.644,0.821,0.91,1.47,1.545c1.184,1.142,2.348,2.265,3.538,3.413c0.172-0.302,0.222-0.574,0.24-0.854
	c0.061-0.912-0.204-1.757-0.562-2.579c-0.053-0.122-0.062-0.203,0.027-0.319c1.438-1.872,2.869-3.749,4.3-5.627
	c0.076-0.101,0.135-0.114,0.259-0.077c0.472,0.141,0.946,0.276,1.426,0.382c0.183,0.04,0.385-0.007,0.588-0.047
	C52.855,5.004,51,3.158,49.089,1.362z"/>
<path fill="#B5B5B5" d="M35.634,20.362c3.142-2.479,6.161-5.098,9.184-7.708c0.14,0.136-0.011,0.013,0,0
	c-0.648-0.636-0.839-0.901-1.47-1.545C40.713,14.146,38.073,17.17,35.634,20.362z"/>
<path fill="#F2648A" d="M65.408,1.362c-0.193,0.355-0.097,0.93,0.351,2.127c-0.35,0.273-0.704,0.551-1.06,0.827
	c-1.554,1.205-3.108,2.408-4.659,3.616c-0.103,0.08-0.173,0.096-0.297,0.04c-0.727-0.324-1.479-0.563-2.282-0.587
	c-0.397-0.012-0.79,0.029-1.189,0.229c1.072,1.227,2.233,2.348,3.399,3.49c-0.001,0.001-0.002,0.003-0.004,0.004
	c0.631,0.644,0.821,0.91,1.47,1.545c1.184,1.142,2.348,2.265,3.538,3.413c0.172-0.302,0.222-0.574,0.24-0.854
	c0.061-0.912-0.204-1.757-0.562-2.579c-0.053-0.122-0.062-0.203,0.027-0.319c1.438-1.872,2.869-3.749,4.3-5.627
	c0.076-0.101,0.135-0.114,0.259-0.077c0.472,0.141,0.946,0.276,1.426,0.382c0.183,0.04,0.385-0.007,0.588-0.047
	C69.174,5.004,67.319,3.158,65.408,1.362z"/>
<path fill="#B5B5B5" d="M51.953,20.362c3.142-2.479,6.161-5.098,9.184-7.708c0.14,0.136-0.011,0.013,0,0
	c-0.648-0.636-0.839-0.901-1.47-1.545C57.032,14.146,54.392,17.17,51.953,20.362z"/>
</svg>
