<?xml version="1.0" encoding="utf-8"?>
<!-- Generator: Adobe Illustrator 18.0.0, SVG Export Plug-In . SVG Version: 6.00 Build 0)  -->
<!DOCTYPE svg PUBLIC "-//W3C//DTD SVG 1.1//EN" "http://www.w3.org/Graphics/SVG/1.1/DTD/svg11.dtd">
<svg version="1.1" id="Слой_1" xmlns="http://www.w3.org/2000/svg" xmlns:xlink="http://www.w3.org/1999/xlink" x="0px" y="0px" width="49" height="172"
	 viewBox="0 0 49 172" enable-background="new 0 0 49 172" xml:space="preserve">
<path fill="#57747A" d="M16.343,133.812V13.664c0-5.203,4.233-9.436,9.436-9.436s9.436,4.233,9.436,9.436v1.098
	c1.401-0.386,2.968-0.245,4.228,0.455v-1.553C39.444,6.13,33.314,0,25.779,0S12.115,6.13,12.115,13.664v119.431
	C13.52,132.791,15.081,133.032,16.343,133.812z"/>
<circle fill="#DFC55C" cx="37.531" cy="27.033" r="4.848"/>
<path fill="#57747A" d="M45.596,19.469c-2.385-1.951-8.064-4.892-8.064-4.892s-5.682,2.942-8.067,4.892
	c-3.555,2.908-3.601,7.564-3.601,7.564h11.667h11.664C49.197,27.033,49.154,22.377,45.596,19.469z"/>
<rect x="32.224" y="12.215" fill="#8BB6B1" width="10.135" height="5.133"/>
<rect x="7.256" y="103.491" fill="#8BB6B1" width="13.871" height="7.026"/>
<rect x="0.546" y="165.021" fill="#8BB6B1" width="27.289" height="7.026"/>
<rect x="7.256" y="110.517" fill="#57747A" width="13.871" height="54.504"/>
</svg>
