<?xml version="1.0" encoding="utf-8"?>
<!-- Generator: Adobe Illustrator 18.0.0, SVG Export Plug-In . SVG Version: 6.00 Build 0)  -->
<!DOCTYPE svg PUBLIC "-//W3C//DTD SVG 1.1//EN" "http://www.w3.org/Graphics/SVG/1.1/DTD/svg11.dtd">
<svg version="1.1" id="Слой_1" xmlns="http://www.w3.org/2000/svg" xmlns:xlink="http://www.w3.org/1999/xlink" x="0px" y="0px" width="57" height="150"
	 viewBox="0 0 57 150" enable-background="new 0 0 57 150" xml:space="preserve">
<g>
	<path fill="#9EB45D" d="M56.183,71.991c0,15.468-12.538,28.008-28.008,28.008l0,0c-15.468,0-28.007-12.54-28.007-28.008V28.008
		C0.168,12.538,12.707,0,28.175,0l0,0c15.47,0,28.008,12.538,28.008,28.008V71.991z"/>
	<path fill="#889F48" d="M28.176,0L28.176,0C12.707,0,0.168,12.538,0.168,28.008v43.983c0,15.468,12.539,28.008,28.007,28.008h0.001
		V0z"/>
	<rect x="23.895" y="99.999" fill="#A57226" width="8.96" height="43.064"/>
	<rect x="4.053" y="143.064" fill="#C3CABD" width="47.588" height="6.937"/>
	<polygon fill="#9EB45D" points="15.438,79.892 4.996,86.213 19.304,91.469 	"/>
	<polygon fill="#9EB45D" points="11.202,43.277 11.639,48.875 16.76,44.084 	"/>
	<polygon fill="#9EB45D" points="14.454,13.974 15.217,23.745 24.155,15.383 	"/>
	<polygon fill="#9EB45D" points="24.137,79.892 22.553,87.109 30.829,83.026 	"/>
	<polygon fill="#889F48" points="50.211,73.017 44.597,72.993 48.951,78.489 	"/>
	<polygon fill="#889F48" points="39.707,31.016 36.945,42.906 50.697,36.329 	"/>
</g>
</svg>
