<?xml version="1.0" encoding="utf-8"?>
<!-- Generator: Adobe Illustrator 16.0.3, SVG Export Plug-In . SVG Version: 6.00 Build 0)  -->
<!DOCTYPE svg PUBLIC "-//W3C//DTD SVG 1.1//EN" "http://www.w3.org/Graphics/SVG/1.1/DTD/svg11.dtd">
<svg version="1.1" id="Слой_1" xmlns="http://www.w3.org/2000/svg" xmlns:xlink="http://www.w3.org/1999/xlink" x="0px" y="0px"
	 width="391px" height="192.19px" viewBox="0 0 391 192.19" enable-background="new 0 0 391 192.19" xml:space="preserve">
<rect x="89.08" y="164.748" fill="#DCDDBB" width="22.929" height="22.93"/>
<rect x="112.009" y="164.748" fill="#B1B097" width="2.948" height="22.93"/>
<rect x="89.079" y="161.711" fill="#EAE9C9" width="204.451" height="3.008"/>
<rect x="93.604" y="93.376" fill="#EAE9C9" width="194.972" height="3.008"/>
<rect x="114.957" y="164.748" fill="#DCDDBB" width="22.929" height="22.93"/>
<rect x="137.886" y="164.748" fill="#B1B097" width="2.948" height="22.93"/>
<rect x="118.944" y="122.35" fill="#607179" width="44.809" height="39.361"/>
<rect x="93.455" y="122.35" fill="#9CD7D9" width="18.559" height="39.361"/>
<rect x="269.65" y="122.35" fill="#9CD7D9" width="18.961" height="39.361"/>
<rect x="243.984" y="122.35" fill="#9CD7D9" width="18.961" height="39.361"/>
<rect x="218.462" y="122.35" fill="#607179" width="18.56" height="39.361"/>
<rect x="112.008" y="122.35" fill="#EAE9C9" width="6.906" height="39.361"/>
<rect x="237.021" y="122.35" fill="#EAE9C9" width="6.905" height="39.361"/>
<rect x="262.744" y="122.35" fill="#EAE9C9" width="6.906" height="39.361"/>
<rect x="140.834" y="164.748" fill="#DCDDBB" width="22.929" height="22.93"/>
<g opacity="0.29">
	<g>
		<defs>
			<rect id="SVGID_2_" x="93.455" y="122.35" width="18.559" height="29.408"/>
		</defs>
		<clipPath id="SVGID_3_">
			<use xlink:href="#SVGID_2_"  overflow="visible"/>
		</clipPath>
		<path clip-path="url(#SVGID_3_)" fill="#FFFFFF" d="M93.455,122.351v23.052l18.559-18.559v-4.493H93.455z M93.455,151.758
			l18.559-18.559v-3.956l-18.559,18.56V151.758z"/>
	</g>
</g>
<g opacity="0.29">
	<g>
		<defs>
			<rect id="SVGID_4_" x="243.433" y="107.616" width="19.513" height="30.919"/>
		</defs>
		<clipPath id="SVGID_6_">
			<use xlink:href="#SVGID_4_"  overflow="visible"/>
		</clipPath>
		<path clip-path="url(#SVGID_6_)" fill="#FFFFFF" d="M243.433,107.616v24.237l19.512-19.514v-4.724H243.433z M243.433,138.535
			l19.512-19.512v-4.16l-19.512,19.514V138.535z"/>
	</g>
</g>
<g opacity="0.29">
	<g>
		<defs>
			<rect id="SVGID_8_" x="269.105" y="115.709" width="19.506" height="30.908"/>
		</defs>
		<clipPath id="SVGID_9_">
			<use xlink:href="#SVGID_8_"  overflow="visible"/>
		</clipPath>
		<path clip-path="url(#SVGID_9_)" fill="#FFFFFF" d="M269.105,115.708v24.229l19.506-19.506v-4.724H269.105z M269.105,146.617
			l19.506-19.506v-4.158l-19.506,19.506V146.617z"/>
	</g>
</g>
<rect x="166.71" y="122.35" fill="#464355" width="22.929" height="65.328"/>
<rect x="192.587" y="122.35" fill="#333333" width="22.929" height="65.328"/>
<path fill="#333333" d="M186.464,158.363c0,1.457-1.182,2.637-2.638,2.637c-1.455,0-2.637-1.18-2.637-2.637
	c0-1.455,1.182-2.637,2.637-2.637C185.282,155.727,186.464,156.908,186.464,158.363"/>
<rect x="215.517" y="122.35" fill="#B1B097" width="2.948" height="65.328"/>
<rect x="163.763" y="122.35" fill="#B1B097" width="2.948" height="65.328"/>
<rect x="189.635" y="122.35" fill="#B1B097" width="2.957" height="65.328"/>
<rect x="218.464" y="164.748" fill="#DCDDBB" width="22.929" height="22.93"/>
<rect x="267.271" y="164.748" fill="#B1B097" width="2.947" height="22.93"/>
<rect x="244.341" y="164.748" fill="#DCDDBB" width="22.929" height="22.93"/>
<rect x="270.218" y="164.748" fill="#DCDDBB" width="22.929" height="22.93"/>
<rect x="93.455" y="122.32" fill="#89877B" width="195.7" height="3.008"/>
<rect x="163.763" y="122.32" fill="#B1B097" width="54.724" height="3.008"/>
<rect x="93.455" y="119.313" fill="#33404C" width="195.7" height="3.008"/>
<rect x="241.394" y="164.748" fill="#B1B097" width="2.948" height="22.93"/>
<g>
	<g>
		<defs>
			<rect id="SVGID_10_" x="112.009" y="125.301" width="1.478" height="36.41"/>
		</defs>
		<use xlink:href="#SVGID_10_"  overflow="visible" fill="#61737B"/>
		<clipPath id="SVGID_11_">
			<use xlink:href="#SVGID_10_"  overflow="visible"/>
		</clipPath>
		<rect x="112.008" y="125.301" clip-path="url(#SVGID_11_)" fill="#61737B" width="1.479" height="36.41"/>
	</g>
</g>
<g opacity="0.5">
	<g>
		<defs>
			<rect id="SVGID_12_" x="117.438" y="125.301" width="1.477" height="36.41"/>
		</defs>
		<clipPath id="SVGID_13_">
			<use xlink:href="#SVGID_12_"  overflow="visible"/>
		</clipPath>
		<rect x="117.436" y="125.301" clip-path="url(#SVGID_13_)" fill="#CBCBAF" width="1.479" height="36.41"/>
	</g>
</g>
<g opacity="0.5">
	<g>
		<defs>
			<rect id="SVGID_14_" x="242.45" y="125.301" width="1.477" height="36.41"/>
		</defs>
		<clipPath id="SVGID_15_">
			<use xlink:href="#SVGID_14_"  overflow="visible"/>
		</clipPath>
		<rect x="242.449" y="125.301" clip-path="url(#SVGID_15_)" fill="#CBCBAF" width="1.478" height="36.41"/>
	</g>
</g>
<g>
	<g>
		<defs>
			<rect id="SVGID_16_" x="236.867" y="125.301" width="1.478" height="36.41"/>
		</defs>
		<use xlink:href="#SVGID_16_"  overflow="visible" fill="#61737B"/>
		<clipPath id="SVGID_17_">
			<use xlink:href="#SVGID_16_"  overflow="visible"/>
		</clipPath>
		<rect x="236.867" y="125.301" clip-path="url(#SVGID_17_)" fill="#61737B" width="1.478" height="36.41"/>
	</g>
</g>
<rect x="262.744" y="125.301" fill="#61737B" width="1.478" height="36.41"/>
<rect x="268.172" y="125.301" fill="#CBCBAF" width="1.479" height="36.41"/>
<rect x="262.744" y="125.301" fill="none" width="6.906" height="36.41"/>
<rect x="236.867" y="125.301" fill="none" width="32.783" height="36.41"/>
<rect x="142.585" y="54.015" fill="#9CD7D9" width="18.961" height="39.361"/>
<rect x="116.708" y="54.015" fill="#9CD7D9" width="18.961" height="39.361"/>
<rect x="93.468" y="54.015" fill="#9CD7D9" width="16.339" height="39.361"/>
<rect x="194.34" y="54.015" fill="#9CD7D9" width="18.961" height="39.361"/>
<rect x="168.463" y="54.015" fill="#9CD7D9" width="18.961" height="39.361"/>
<rect x="246.098" y="54.015" fill="#9CD7D9" width="18.961" height="39.361"/>
<rect x="220.221" y="54.015" fill="#9CD7D9" width="18.961" height="39.361"/>
<rect x="271.969" y="54.015" fill="#9CD7D9" width="16.524" height="39.361"/>
<g opacity="0.29">
	<g>
		<defs>
			<rect id="SVGID_18_" x="246.097" y="48.239" width="18.56" height="29.408"/>
		</defs>
		<clipPath id="SVGID_19_">
			<use xlink:href="#SVGID_18_"  overflow="visible"/>
		</clipPath>
		<path clip-path="url(#SVGID_19_)" fill="#FFFFFF" d="M246.098,48.239v23.052l18.559-18.559v-4.493H246.098z M246.098,77.647
			l18.559-18.559v-3.956l-18.559,18.559V77.647z"/>
	</g>
</g>
<g opacity="0.29">
	<g>
		<defs>
			<rect id="SVGID_20_" x="269.934" y="56.992" width="18.56" height="29.409"/>
		</defs>
		<clipPath id="SVGID_21_">
			<use xlink:href="#SVGID_20_"  overflow="visible"/>
		</clipPath>
		<path clip-path="url(#SVGID_21_)" fill="#FFFFFF" d="M269.935,56.993v23.052l18.559-18.559v-4.493H269.935z M269.935,86.401
			l18.559-18.559v-3.956l-18.559,18.559V86.401z"/>
	</g>
</g>
<g opacity="0.5">
	<g>
		<defs>
			<rect id="SVGID_22_" x="220.22" y="54.014" width="18.56" height="29.408"/>
		</defs>
		<clipPath id="SVGID_23_">
			<use xlink:href="#SVGID_22_"  overflow="visible"/>
		</clipPath>
		<path clip-path="url(#SVGID_23_)" fill="#FFFFFF" d="M220.221,54.015v23.052l18.559-18.559v-4.493H220.221z M220.221,83.423
			l18.559-18.559v-3.956l-18.559,18.559V83.423z"/>
	</g>
</g>
<rect x="220.221" y="54.015" fill="#9CD7D9" width="18.961" height="39.361"/>
<g opacity="0.29">
	<g>
		<defs>
			<rect id="SVGID_24_" x="220.22" y="48.239" width="18.56" height="29.408"/>
		</defs>
		<clipPath id="SVGID_25_">
			<use xlink:href="#SVGID_24_"  overflow="visible"/>
		</clipPath>
		<path clip-path="url(#SVGID_25_)" fill="#FFFFFF" d="M220.221,48.239v23.052l18.559-18.559v-4.493H220.221z M220.221,77.647
			l18.559-18.559v-3.956l-18.559,18.559V77.647z"/>
	</g>
</g>
<g opacity="0.29">
	<g>
		<defs>
			<rect id="SVGID_26_" x="194.339" y="54.014" width="18.56" height="29.408"/>
		</defs>
		<clipPath id="SVGID_27_">
			<use xlink:href="#SVGID_26_"  overflow="visible"/>
		</clipPath>
		<path clip-path="url(#SVGID_27_)" fill="#FFFFFF" d="M194.339,54.015v23.052l18.56-18.559v-4.493H194.339z M194.339,83.423
			l18.56-18.559v-3.956l-18.56,18.559V83.423z"/>
	</g>
</g>
<g opacity="0.29">
	<g>
		<defs>
			<rect id="SVGID_28_" x="168.462" y="48.239" width="18.56" height="29.408"/>
		</defs>
		<clipPath id="SVGID_29_">
			<use xlink:href="#SVGID_28_"  overflow="visible"/>
		</clipPath>
		<path clip-path="url(#SVGID_29_)" fill="#FFFFFF" d="M168.462,48.239v23.052l18.56-18.559v-4.493H168.462z M168.462,77.647
			l18.56-18.559v-3.956l-18.56,18.559V77.647z"/>
	</g>
</g>
<g opacity="0.29">
	<g>
		<defs>
			<rect id="SVGID_30_" x="142.585" y="54.014" width="18.559" height="29.408"/>
		</defs>
		<clipPath id="SVGID_31_">
			<use xlink:href="#SVGID_30_"  overflow="visible"/>
		</clipPath>
		<path clip-path="url(#SVGID_31_)" fill="#FFFFFF" d="M142.584,54.015v23.052l18.56-18.559v-4.493H142.584z M142.584,83.423
			l18.56-18.559v-3.956l-18.56,18.559V83.423z"/>
	</g>
</g>
<g opacity="0.29">
	<g>
		<defs>
			<rect id="SVGID_32_" x="93.468" y="52.481" width="18.56" height="29.408"/>
		</defs>
		<clipPath id="SVGID_33_">
			<use xlink:href="#SVGID_32_"  overflow="visible"/>
		</clipPath>
		<path clip-path="url(#SVGID_33_)" fill="#FFFFFF" d="M93.468,52.481v23.052l18.559-18.559v-4.493H93.468z M93.468,81.889
			l18.559-18.559v-3.956L93.468,77.933V81.889z"/>
	</g>
</g>
<g opacity="0.29">
	<g>
		<defs>
			<rect id="SVGID_34_" x="116.708" y="48.239" width="18.559" height="29.408"/>
		</defs>
		<clipPath id="SVGID_35_">
			<use xlink:href="#SVGID_34_"  overflow="visible"/>
		</clipPath>
		<path clip-path="url(#SVGID_35_)" fill="#FFFFFF" d="M116.708,48.239v23.052l18.559-18.559v-4.493H116.708z M116.708,77.647
			l18.559-18.559v-3.956l-18.559,18.559V77.647z"/>
	</g>
</g>
<rect x="109.802" y="54.014" fill="#EAE9C9" width="6.906" height="39.361"/>
<rect x="135.679" y="54.015" fill="#EAE9C9" width="6.906" height="39.361"/>
<rect x="161.556" y="54.014" fill="#EAE9C9" width="6.906" height="39.361"/>
<rect x="187.433" y="54.015" fill="#EAE9C9" width="6.906" height="39.361"/>
<rect x="213.314" y="54.014" fill="#EAE9C9" width="6.905" height="39.361"/>
<rect x="239.191" y="54.015" fill="#EAE9C9" width="6.905" height="39.361"/>
<rect x="265.063" y="54.015" fill="#EAE9C9" width="6.906" height="39.361"/>
<rect x="109.802" y="56.965" fill="#61737B" width="1.479" height="36.41"/>
<rect x="115.23" y="56.965" fill="#CBCBAF" width="1.478" height="36.41"/>
<rect x="135.679" y="56.965" fill="#61737B" width="1.479" height="36.41"/>
<rect x="141.107" y="56.965" fill="#CBCBAF" width="1.478" height="36.41"/>
<rect x="161.556" y="56.965" fill="#61737B" width="1.479" height="36.41"/>
<rect x="166.984" y="56.965" fill="#CBCBAF" width="1.478" height="36.41"/>
<rect x="187.433" y="56.965" fill="#61737B" width="1.479" height="36.41"/>
<rect x="192.861" y="56.965" fill="#CBCBAF" width="1.478" height="36.41"/>
<rect x="213.314" y="56.965" fill="#61737B" width="1.478" height="36.41"/>
<rect x="218.743" y="56.965" fill="#CBCBAF" width="1.478" height="36.41"/>
<rect x="239.191" y="56.965" fill="#61737B" width="1.478" height="36.41"/>
<rect x="244.62" y="56.965" fill="#CBCBAF" width="1.478" height="36.41"/>
<rect x="265.063" y="56.965" fill="#61737B" width="1.479" height="36.41"/>
<rect x="270.492" y="56.965" fill="#CBCBAF" width="1.478" height="36.41"/>
<rect x="93.455" y="53.984" fill="#89877B" width="195.038" height="3.008"/>
<rect x="93.455" y="29.439" fill="#89877B" width="195.038" height="3.008"/>
<rect x="93.455" y="50.978" fill="#DCD9BD" width="195.038" height="3.008"/>
<rect x="93.455" y="50.978" fill="#33404C" width="195.038" height="3.008"/>
<rect x="89.08" y="35.475" fill="#DCDDBB" width="22.929" height="15.502"/>
<rect x="112.009" y="35.475" fill="#B1B097" width="2.948" height="15.502"/>
<rect x="112.008" y="19.208" fill="#33404C" width="15.502" height="2.948"/>
<rect x="89.079" y="32.447" fill="#EAE9C9" width="204.451" height="3.008"/>
<rect x="114.957" y="35.475" fill="#DCDDBB" width="22.929" height="15.502"/>
<rect x="112.009" y="22.156" fill="#DCDDBB" width="28.655" height="7.283"/>
<rect x="148.706" y="19.208" fill="#33404C" width="15.502" height="2.948"/>
<rect x="148.706" y="22.156" fill="#DCDDBB" width="28.655" height="7.283"/>
<rect x="137.886" y="35.475" fill="#B1B097" width="2.948" height="15.502"/>
<rect x="140.834" y="35.475" fill="#DCDDBB" width="22.929" height="15.502"/>
<rect x="166.71" y="35.456" fill="#DCDDBB" width="22.929" height="15.521"/>
<rect x="192.587" y="35.456" fill="#DCDDBB" width="22.929" height="15.521"/>
<rect x="215.517" y="35.456" fill="#B1B097" width="2.948" height="15.521"/>
<rect x="163.763" y="35.456" fill="#B1B097" width="2.948" height="15.521"/>
<rect x="189.635" y="35.456" fill="#B1B097" width="2.957" height="15.521"/>
<rect x="218.464" y="35.475" fill="#DCDDBB" width="22.929" height="15.502"/>
<rect x="267.271" y="35.475" fill="#B1B097" width="2.947" height="15.502"/>
<rect x="244.341" y="35.475" fill="#DCDDBB" width="22.929" height="15.502"/>
<rect x="270.218" y="35.475" fill="#DCDDBB" width="22.929" height="15.502"/>
<rect x="241.394" y="35.475" fill="#B1B097" width="2.948" height="15.502"/>
<rect x="115.616" y="96.383" fill="#B1B097" width="2.948" height="22.929"/>
<rect x="262.945" y="96.383" fill="#B1B097" width="2.947" height="22.929"/>
<rect x="123.136" y="129.483" fill="#EDEDED" width="35.605" height="21.307"/>
<rect x="90.105" y="96.383" fill="#DCDDBB" width="203.041" height="22.929"/>
<rect x="35.11" y="187.678" fill="#67675D" width="321" height="5"/>
<polygon fill="#464355" points="206.588,125.438 206.588,184.888 211.052,187.677 215.517,187.677 215.517,125.438 "/>
<g opacity="0.1">
	<g>
		<defs>
			<rect id="SVGID_36_" x="163.763" y="125.301" width="51.753" height="6.66"/>
		</defs>
		<clipPath id="SVGID_37_">
			<use xlink:href="#SVGID_36_"  overflow="visible"/>
		</clipPath>
		<polygon clip-path="url(#SVGID_37_)" points="215.517,125.302 163.763,125.302 169.351,131.962 215.517,131.962 		"/>
	</g>
</g>
<path fill="#333333" d="M123.361,129.983h34.605v20.307h-34.605V129.983z M122.361,151.29h36.605v-22.307h-36.605V151.29z"/>
<path d="M127.462,134.855c0-0.855,0.424-1.407,1.279-1.407c0.864,0,1.288,0.552,1.288,1.407v2.895c0,0.848-0.424,1.407-1.288,1.407
	c-0.855,0-1.279-0.56-1.279-1.407V134.855z M128.078,137.781c0,0.512,0.216,0.809,0.663,0.809c0.456,0,0.664-0.297,0.664-0.809
	v-2.958c0-0.503-0.208-0.808-0.664-0.808c-0.447,0-0.663,0.305-0.663,0.808V137.781z"/>
<path d="M133.093,134.855v0.504h-0.591v-0.536c0-0.503-0.2-0.808-0.656-0.808c-0.447,0-0.655,0.305-0.655,0.808v2.958
	c0,0.504,0.208,0.809,0.655,0.809c0.456,0,0.656-0.305,0.656-0.809v-0.727h0.591v0.695c0,0.848-0.399,1.407-1.263,1.407
	c-0.855,0-1.256-0.56-1.256-1.407v-2.895c0-0.848,0.4-1.407,1.256-1.407C132.693,133.448,133.093,134.008,133.093,134.855z"/>
<path d="M134.286,136.582v2.52h-0.624v-5.598h0.624v2.52h1.375v-2.52h0.624v5.598h-0.624v-2.52H134.286z"/>
<path d="M136.878,134.855c0-0.855,0.424-1.407,1.279-1.407c0.864,0,1.288,0.552,1.288,1.407v2.895c0,0.848-0.424,1.407-1.288,1.407
	c-0.855,0-1.279-0.56-1.279-1.407V134.855z M137.494,137.781c0,0.512,0.216,0.809,0.663,0.809c0.456,0,0.664-0.297,0.664-0.809
	v-2.958c0-0.503-0.208-0.808-0.664-0.808c-0.447,0-0.663,0.305-0.663,0.808V137.781z"/>
<path d="M141.294,133.504c0.871,0,1.215,0.416,1.215,1.24v0.264c0,0.592-0.167,0.959-0.655,1.111
	c0.544,0.151,0.752,0.583,0.752,1.199v0.472c0,0.839-0.408,1.312-1.279,1.312h-1.287v-5.598H141.294z M141.142,135.879
	c0.496,0,0.752-0.16,0.752-0.744v-0.327c0-0.496-0.168-0.735-0.615-0.735h-0.616v1.807H141.142z M141.326,138.533
	c0.455,0,0.663-0.24,0.663-0.76v-0.495c0-0.624-0.248-0.832-0.783-0.832h-0.544v2.087H141.326z"/>
<path d="M143.806,137.974l-0.216,1.128h-0.575l1.071-5.598h0.903l1.071,5.598h-0.623l-0.217-1.128H143.806z M143.886,137.438h1.247
	l-0.631-3.229L143.886,137.438z"/>
<path d="M147.174,136.582v2.52h-0.623v-5.598h0.623v2.52h1.375v-2.52h0.624v5.598h-0.624v-2.52H147.174z"/>
<path d="M152.31,133.504c0.871,0,1.215,0.416,1.215,1.24v0.264c0,0.592-0.167,0.959-0.655,1.111
	c0.544,0.151,0.752,0.583,0.752,1.199v0.472c0,0.839-0.408,1.312-1.279,1.312h-1.287v-5.598H152.31z M152.157,135.879
	c0.496,0,0.752-0.16,0.752-0.744v-0.327c0-0.496-0.168-0.735-0.615-0.735h-0.616v1.807H152.157z M152.342,138.533
	c0.455,0,0.663-0.24,0.663-0.76v-0.495c0-0.624-0.248-0.832-0.783-0.832h-0.544v2.087H152.342z"/>
<path d="M128.798,142.24c-0.28,0-0.456,0.151-0.456,0.551v0.6h-0.832v-0.543c0-0.896,0.448-1.407,1.312-1.407
	c0.864,0,1.312,0.512,1.312,1.407c0,1.759-1.751,2.414-1.751,3.334c0,0.04,0,0.08,0.008,0.12h1.663v0.8h-2.543v-0.688
	c0-1.647,1.743-1.92,1.743-3.535C129.253,142.375,129.077,142.24,128.798,142.24z"/>
<path d="M130.606,142.848c0-0.896,0.472-1.407,1.335-1.407s1.335,0.512,1.335,1.407v2.91c0,0.896-0.472,1.407-1.335,1.407
	s-1.335-0.512-1.335-1.407V142.848z M131.485,145.814c0,0.398,0.177,0.551,0.456,0.551c0.28,0,0.456-0.152,0.456-0.551v-3.023
	c0-0.399-0.176-0.551-0.456-0.551c-0.279,0-0.456,0.151-0.456,0.551V145.814z"/>
<path d="M133.774,142.848c0-0.896,0.472-1.407,1.335-1.407s1.335,0.512,1.335,1.407v2.91c0,0.896-0.472,1.407-1.335,1.407
	s-1.335-0.512-1.335-1.407V142.848z M134.653,145.814c0,0.398,0.177,0.551,0.456,0.551c0.28,0,0.456-0.152,0.456-0.551v-3.023
	c0-0.399-0.176-0.551-0.456-0.551c-0.279,0-0.456,0.151-0.456,0.551V145.814z"/>
<path d="M138.277,147.165c-0.888,0-1.375-0.512-1.375-1.407v-0.439c0-0.536,0.16-0.951,0.544-1.168
	c-0.368-0.199-0.544-0.575-0.544-1.127v-0.176c0-0.896,0.487-1.407,1.375-1.407s1.375,0.512,1.375,1.407v0.176
	c0,0.552-0.184,0.928-0.543,1.127c0.384,0.217,0.543,0.632,0.543,1.168v0.439C139.652,146.653,139.165,147.165,138.277,147.165z
	 M137.781,143.191c0,0.447,0.208,0.592,0.496,0.592c0.28,0,0.496-0.145,0.496-0.592v-0.313c0-0.504-0.216-0.639-0.496-0.639
	c-0.279,0-0.496,0.135-0.496,0.639V143.191z M138.277,146.365c0.28,0,0.488-0.136,0.496-0.631v-0.521
	c0-0.439-0.185-0.632-0.496-0.632s-0.496,0.192-0.496,0.632v0.521C137.781,146.229,137.998,146.365,138.277,146.365z"/>
<path d="M142.046,142.072v5.029h-0.615v-5.598h2.23v0.568H142.046z"/>
<path d="M144.222,142.855c0-0.855,0.424-1.407,1.279-1.407c0.864,0,1.288,0.552,1.288,1.407v2.895c0,0.848-0.424,1.407-1.288,1.407
	c-0.855,0-1.279-0.56-1.279-1.407V142.855z M144.838,145.781c0,0.512,0.216,0.809,0.663,0.809c0.456,0,0.664-0.297,0.664-0.809
	v-2.958c0-0.503-0.208-0.808-0.664-0.808c-0.447,0-0.663,0.305-0.663,0.808V145.781z"/>
<path d="M150.141,147.869v-0.768h-2.286v0.768h-0.601v-1.32h0.36c0.191-0.215,0.231-0.471,0.248-0.814l0.216-4.23h2.246v5.045h0.424
	v1.32H150.141z M148.47,145.726c-0.024,0.399-0.08,0.64-0.256,0.823h1.479v-4.477h-1.04L148.47,145.726z"/>
<path d="M152.974,145.869c-0.192,0.84-0.479,1.288-1.495,1.24v-0.561c0.479,0.024,0.695-0.127,0.8-0.551l0.128-0.368l-1.288-4.126
	h0.624l0.567,1.943l0.384,1.407l0.328-1.407l0.504-1.943h0.647L152.974,145.869z"/>
<rect x="188.172" y="0.493" fill="#FFFFFF" stroke="#E2E2E2" stroke-width="1.5" stroke-miterlimit="10" width="86.44" height="22.773"/>
<g opacity="0.1">
	<g>
		<defs>
			<rect id="SVGID_5_" x="196.267" y="7.922" width="72.757" height="9.345"/>
		</defs>
		<clipPath id="SVGID_38_">
			<use xlink:href="#SVGID_5_"  overflow="visible"/>
		</clipPath>
		<rect x="196.266" y="7.922" clip-path="url(#SVGID_38_)" width="72.758" height="0.884"/>
		<rect x="196.266" y="12.153" clip-path="url(#SVGID_38_)" width="72.758" height="0.884"/>
		<rect x="196.266" y="16.383" clip-path="url(#SVGID_38_)" width="72.758" height="0.884"/>
	</g>
</g>
<rect id="SVGID_7_" x="197.48" y="14.919" fill="none" width="76.126" height="8.347"/>
<polygon opacity="0.1" points="273.604,23.266 273.605,23.266 266.602,14.919 266.337,14.919 266.337,16.622 202.494,16.622 
	202.494,15.662 201.213,15.662 201.016,15.374 197.48,14.919 198.104,15.662 198.103,15.662 205.107,24.008 274.228,24.008 "/>
<rect id="SVGID_1_" x="198.103" y="15.662" fill="none" width="76.126" height="8.347"/>
<rect x="198.165" y="23.266" fill="#6C6A62" width="3.008" height="6.161"/>
<rect x="261.648" y="23.266" fill="#6C6A62" width="3.008" height="6.161"/>
<g>
	<g>
		<g>
			<g>
				<path fill-rule="evenodd" clip-rule="evenodd" fill="#EE4941" d="M210.073,8.701c0,0,0.031-0.357-0.054-0.542
					c-0.098-0.212-0.313-0.379-0.313-0.379l-5.377-3.207c0,0-0.245-0.145-0.482-0.148c-0.223-0.004-0.564,0.179-0.564,0.179
					l-5.221,3.083c0,0-0.303,0.18-0.446,0.37c-0.134,0.177-0.108,0.568-0.108,0.568l0.024,5.697c0,0-0.007,0.373,0.082,0.58
					c0.091,0.211,0.293,0.364,0.293,0.364l5.354,3.13c0,0,0.423,0.125,0.633,0.125c0.188,0,0.631-0.141,0.631-0.141l5.058-3.003
					c0,0,0.356-0.153,0.438-0.349c0.09-0.22,0.047-0.549,0.047-0.549L210.073,8.701z M207.985,13.863l-4.149,2.39l-4.146-2.39V9.081
					l4.146-2.39l4.149,2.39V13.863z"/>
			</g>
		</g>
		<path fill-rule="evenodd" clip-rule="evenodd" fill="#B32B2B" d="M203.837,16.253L203.837,16.253l-4.147-2.39V9.081l4.146-2.39
			h0.001V4.425c-0.222,0.001-0.554,0.179-0.554,0.179l-5.221,3.083c0,0-0.303,0.18-0.446,0.37c-0.134,0.177-0.108,0.568-0.108,0.568
			l0.024,5.697c0,0-0.007,0.373,0.082,0.58c0.091,0.211,0.293,0.364,0.293,0.364l5.354,3.13c0,0,0.357,0.104,0.576,0.122V16.253z"/>
	</g>
	<g>
		<path fill="#333333" d="M218.621,18.406h-1.723v-1.03h-3.895v1.03h-1.724v-2.58h0.619c0.335-0.434,1.265-1.736,1.265-3.175V10.37
			h4.875v5.457h0.582V18.406z M214.901,12.639c0,1.773-0.708,2.802-1.018,3.188h2.419V11.92h-1.401V12.639z"/>
		<path fill="#333333" d="M224.922,16.62h-1.724v-3.447l-2.096,3.447h-1.725v-6.25h1.725v3.423l2.096-3.423h1.724V16.62z"/>
		<path fill="#333333" d="M231.308,16.62h-1.724v-2.393h-1.934v2.393h-1.725v-6.25h1.725v2.307h1.934V10.37h1.724V16.62z"/>
		<path fill="#333333" d="M244.28,16.62h-12.092V7.939h1.86v7.093h3.249V7.939h1.86v7.093h3.273V7.939h1.849V16.62z"/>
		<path fill="#333333" d="M250.518,13.061v3.559h-1.364l-0.099-0.545c-0.695,0.409-1.377,0.645-1.984,0.645
			c-1.167,0-2.035-0.732-2.035-1.811c0-2.331,2.432-2.282,3.759-2.282c-0.074-0.781-0.546-1.029-1.141-1.029
			c-0.435,0-0.893,0.186-1.129,0.583l-1.153-0.583c0.298-0.781,1.364-1.327,2.43-1.327
			C249.129,10.271,250.518,11.077,250.518,13.061z M248.818,14.488l-0.013-0.819h-0.359c-0.657,0-1.686,0.05-1.686,0.967
			c0,0.559,0.421,0.868,0.954,0.868C248.26,15.503,248.818,15.182,248.818,14.488z"/>
		<path fill="#333333" d="M253.01,11.908v4.712h-1.735v-6.25h4.539v1.538H253.01z"/>
		<path fill="#666666" d="M256.92,15.755c0.144,0,0.263,0.047,0.359,0.14c0.096,0.093,0.145,0.211,0.145,0.354
			c0,0.136-0.049,0.251-0.145,0.345c-0.097,0.093-0.216,0.139-0.359,0.139c-0.136,0-0.251-0.046-0.348-0.139
			c-0.097-0.094-0.145-0.208-0.145-0.345c0-0.143,0.048-0.261,0.145-0.354S256.784,15.755,256.92,15.755z"/>
		<path fill="#666666" d="M260.512,11.821c0.391,0,0.726,0.081,1.008,0.242c0.283,0.16,0.511,0.39,0.684,0.688
			c0.113,0.193,0.186,0.4,0.219,0.624c0.035,0.223,0.053,0.461,0.053,0.716v0.596c0,0.292-0.041,0.562-0.122,0.813
			s-0.2,0.468-0.358,0.651c-0.159,0.184-0.354,0.326-0.586,0.428c-0.231,0.102-0.5,0.154-0.805,0.154
			c-0.167,0-0.325-0.026-0.475-0.079s-0.282-0.114-0.403-0.182c-0.12-0.068-0.224-0.135-0.309-0.205
			c-0.082-0.068-0.144-0.121-0.181-0.158v2.316h-0.8v-5.339c0-0.328-0.071-0.635-0.214-0.921l0.735-0.344
			c0.049,0.087,0.092,0.173,0.13,0.26c0.037,0.087,0.068,0.183,0.094,0.289h0.055c0.144-0.155,0.325-0.285,0.55-0.39
			C260.009,11.873,260.25,11.821,260.512,11.821z M260.493,12.509c-0.299,0-0.551,0.057-0.759,0.172
			c-0.207,0.114-0.374,0.243-0.498,0.385v2.241c0.242,0.267,0.486,0.457,0.729,0.568c0.246,0.111,0.458,0.168,0.638,0.168
			c0.204,0,0.375-0.036,0.512-0.107c0.137-0.071,0.246-0.168,0.33-0.293c0.084-0.124,0.144-0.269,0.178-0.433
			c0.033-0.164,0.05-0.343,0.05-0.535V14.09c0-0.186-0.013-0.364-0.041-0.535c-0.028-0.17-0.067-0.305-0.116-0.404
			c-0.087-0.192-0.229-0.348-0.429-0.465C260.89,12.568,260.69,12.509,260.493,12.509z"/>
		<path fill="#666666" d="M265.71,17.616c-0.106,0.272-0.246,0.494-0.424,0.665c-0.176,0.17-0.395,0.255-0.654,0.255
			c-0.088,0-0.18-0.008-0.274-0.023c-0.097-0.016-0.216-0.045-0.357-0.088v-0.586h0.391c0.142,0,0.263-0.021,0.361-0.061
			c0.1-0.041,0.174-0.132,0.224-0.274l0.315-0.911c-0.179-0.044-0.333-0.127-0.459-0.251c-0.127-0.124-0.227-0.273-0.294-0.447
			l-1.47-3.851l0.773-0.223l1.449,3.795c0.025,0.062,0.055,0.111,0.089,0.149c0.034,0.037,0.085,0.056,0.154,0.056h0.037l1.44-4
			l0.772,0.223L265.71,17.616z"/>
	</g>
</g>
</svg>
