<?xml version="1.0" encoding="utf-8"?>
<!-- Generator: Adobe Illustrator 16.0.3, SVG Export Plug-In . SVG Version: 6.00 Build 0)  -->
<!DOCTYPE svg PUBLIC "-//W3C//DTD SVG 1.1//EN" "http://www.w3.org/Graphics/SVG/1.1/DTD/svg11.dtd">
<svg version="1.1" xmlns="http://www.w3.org/2000/svg" xmlns:xlink="http://www.w3.org/1999/xlink" x="0px" y="0px" width="100px"
	 height="90px" viewBox="0 0 100 90" enable-background="new 0 0 100 90" xml:space="preserve">
<g id="телега">
	<g>
		<path fill-rule="evenodd" clip-rule="evenodd" fill="#B58C75" d="M13.577,77.783c2.051-1.024,4.112-1.187,6.238-0.344
			c0.131,0.053,0.395-0.021,0.5-0.129c2.088-2.186,4.167-4.382,6.235-6.584c0.517-0.549,0.459-1.209-0.134-1.77
			c-1.939-1.84-3.883-3.673-5.827-5.509c-2.442-2.305-4.881-4.61-7.324-6.915c-0.826-0.78-1.38-0.754-2.165,0.078
			c-2.808,2.978-5.618,5.954-8.427,8.929c-0.698,0.738-0.693,1.313,0.052,2.019c3.567,3.375,7.138,6.746,10.708,10.116
			C13.469,77.708,13.513,77.734,13.577,77.783z"/>
		<path fill-rule="evenodd" clip-rule="evenodd" fill="#D5A888" d="M22.514,74.997c-3.34-3.16-6.684-6.316-10.028-9.476
			c-1.727-1.63-3.453-3.259-5.178-4.89c1.263-1.34,2.529-2.681,3.793-4.021c0.784-0.832,1.338-0.858,2.165-0.078
			c2.443,2.305,4.882,4.61,7.324,6.915c1.943,1.836,3.887,3.669,5.827,5.509c0.593,0.561,0.651,1.221,0.134,1.77
			C25.21,72.153,23.863,73.576,22.514,74.997z"/>
		<path fill-rule="evenodd" clip-rule="evenodd" fill="#404654" d="M25.468,54.181c-0.4-0.231-0.712-0.164-0.968,0.106
			c-1.78,1.876-3.559,3.753-5.325,5.642c-0.361,0.385-0.302,0.759,0.14,1.176c1.686,1.595,3.374,3.185,5.063,4.775
			c0.936,0.883,1.871,1.762,2.805,2.644c0.555,0.523,0.871,0.524,1.391-0.026c1.689-1.781,3.373-3.565,5.054-5.351
			c0.476-0.504,0.462-0.853-0.04-1.326c-2.623-2.475-5.246-4.946-7.871-7.419C25.621,54.312,25.518,54.226,25.468,54.181z"/>
		<path fill-rule="evenodd" clip-rule="evenodd" fill="#8E8E8E" d="M20.866,77.944c0.716,0.663,1.385,1.282,2.098,1.944
			c0.266-0.276,0.568-0.578,0.858-0.888c5.694-6.112,11.388-12.223,17.078-18.34c0.239-0.257,0.48-0.399,0.85-0.426
			c2.318-0.16,4.635-0.349,6.952-0.529c0.65-0.05,1.104-0.38,1.32-0.99c0.196-0.555,0.092-1.106-0.362-1.46
			c-0.304-0.237-0.757-0.427-1.13-0.404c-2.786,0.176-5.57,0.402-8.353,0.635c-0.187,0.015-0.397,0.164-0.533,0.31
			c-5.507,5.9-11.006,11.805-16.507,17.708C22.377,76.323,21.615,77.142,20.866,77.944z"/>
		<path fill-rule="evenodd" clip-rule="evenodd" fill="#8E8E8E" d="M10.893,80.32c0.649-0.696,1.278-1.375,1.947-2.095
			c-0.75-0.703-1.536-1.439-2.324-2.176c-2.562-2.392-5.14-4.766-7.679-7.181c-1.015-0.965-2.179-0.476-2.501,0.311
			c-0.25,0.605-0.11,1.218,0.465,1.755c1.28,1.195,2.564,2.388,3.848,3.582c2.027,1.888,4.056,3.775,6.083,5.663
			C10.789,80.233,10.851,80.285,10.893,80.32z"/>
		<path fill-rule="evenodd" clip-rule="evenodd" fill="#5B5B5A" d="M14.264,89.209c-2.798-1.544-3.822-5.089-2.275-7.883
			c1.554-2.808,5.077-3.825,7.881-2.277c2.805,1.548,3.826,5.077,2.281,7.884C20.609,89.73,17.063,90.754,14.264,89.209z
			 M19.268,80.142c-2.205-1.224-4.989-0.424-6.203,1.778c-1.202,2.181-0.382,5.021,1.793,6.214c2.205,1.21,4.98,0.4,6.2-1.805
			C22.283,84.115,21.49,81.371,19.268,80.142z"/>
		<path fill-rule="evenodd" clip-rule="evenodd" fill="#B0B0B0" d="M14.858,88.134c-2.176-1.192-2.995-4.033-1.793-6.214
			c1.214-2.202,3.999-3.002,6.203-1.778c2.223,1.229,3.015,3.974,1.791,6.188C19.838,88.534,17.063,89.344,14.858,88.134z
			 M18.529,81.444c-1.486-0.813-3.358-0.269-4.16,1.213c-0.794,1.466-0.227,3.391,1.231,4.173c1.491,0.8,3.34,0.248,4.156-1.242
			C20.573,84.097,20.031,82.268,18.529,81.444z"/>
		<path fill-rule="evenodd" clip-rule="evenodd" fill="#EE4941" d="M15.6,86.83c-1.458-0.782-2.025-2.707-1.231-4.173
			c0.802-1.481,2.674-2.026,4.16-1.213c1.502,0.823,2.044,2.652,1.227,4.144C18.94,87.078,17.091,87.63,15.6,86.83z M15.956,86.061
			c1.065,0.615,2.434,0.251,3.043-0.81c0.619-1.082,0.267-2.434-0.795-3.042c-1.114-0.637-2.447-0.282-3.07,0.815
			C14.521,84.104,14.884,85.441,15.956,86.061z"/>
		<path fill-rule="evenodd" clip-rule="evenodd" fill="#181818" d="M15.134,83.024c-0.613,1.079-0.25,2.417,0.822,3.036
			c1.065,0.615,2.434,0.251,3.043-0.81c0.619-1.082,0.267-2.434-0.795-3.042C17.09,81.572,15.757,81.927,15.134,83.024z"/>
	</g>
</g>
<g id="товарищ">
	<polygon fill="#107D9E" points="56.026,55.707 55.409,71.372 55.409,89.267 63.597,89.267 63.597,77.97 63.565,77.97 
		66.278,64.022 66.479,64.022 69.192,77.97 69.158,77.97 69.158,89.267 77.349,89.267 77.349,71.372 76.732,55.707 	"/>
	<polygon opacity="0.13" points="60.418,55.707 55.975,55.707 55.355,71.45 55.355,89.432 59.799,89.432 59.799,71.45 	"/>
	<polygon opacity="0.13" points="72.342,55.707 76.785,55.707 77.403,71.45 77.403,89.432 72.96,89.432 72.96,71.45 	"/>
	<path fill="#704623" d="M81.06,25.585l-0.429-0.025c-1.01-0.405-2.314-0.732-4.028-0.978c0,0-0.49-0.07-1.359-0.313
		c-1.065,1.174-2.748,1.263-4.46,1.263l-8.694-0.146c-1.715,0-3.487,0.056-4.554-1.122c-0.878,0.247-1.379,0.318-1.379,0.318
		c-6.095,0.874-7.162,2.74-7.269,5.733c-0.128,0.352-0.209,0.726-0.209,1.121v24.317h6.677V37.49h1.336l-0.773,19.679h20.923
		l0.563-22.535l4.112-0.273L81.06,25.585z"/>
	<path fill="#343433" d="M77.403,86.533c0-1.835-1.501-3.339-3.337-3.339h-1.508c-1.836,0-3.338,1.504-3.338,3.339v2.898h8.183
		V86.533z"/>
	<path fill="#343433" d="M77.403,86.533c0-1.835-1.501-3.339-3.337-3.339h-1.508c-1.836,0-3.338,1.504-3.338,3.339v2.898h8.183
		V86.533z"/>
	<path fill="#454544" d="M74.066,83.194h-1.508c-1.836,0-3.338,1.504-3.338,3.339v1.168c0-1.835,1.502-3.338,3.338-3.338h1.508
		c1.836,0,3.337,1.503,3.337,3.338v-1.168C77.403,84.698,75.902,83.194,74.066,83.194z"/>
	<path fill="#343433" d="M63.538,86.533c0-1.835-1.502-3.339-3.338-3.339h-1.508c-1.836,0-3.337,1.504-3.337,3.339v2.898h8.183
		V86.533z"/>
	<path fill="#454544" d="M60.2,83.194h-1.508c-1.836,0-3.337,1.504-3.337,3.339v1.168c0-1.835,1.501-3.338,3.337-3.338H60.2
		c1.836,0,3.338,1.503,3.338,3.338v-1.168C63.538,84.698,62.036,83.194,60.2,83.194z"/>
	<path opacity="0.2" fill="#FFFCFF" d="M59.005,84.363h-0.313c-0.709,0-1.366,0.229-1.907,0.61c0.238,0.177,0.56,0.286,0.92,0.286
		C58.386,85.26,58.924,84.866,59.005,84.363z"/>
	<path opacity="0.2" fill="#FFFCFF" d="M72.959,84.363h-0.313c-0.71,0-1.367,0.229-1.908,0.61c0.238,0.177,0.562,0.286,0.919,0.286
		C72.34,85.26,72.879,84.866,72.959,84.363z"/>
	<path fill="#FFDBB9" d="M48.678,55.753v0.684c0,1.835,1.501,3.338,3.338,3.338c1.836,0,3.338-1.503,3.338-3.338v-0.684H48.678z"/>
	<path fill="#FB922A" d="M62.758,89.269c-0.557,0-0.557-0.406-1.109-0.406s-0.553,0.406-1.104,0.406
		c-0.553,0-0.553-0.406-1.107-0.406l0,0v0.001c-0.533,0.011-0.541,0.405-1.087,0.405c-0.552,0-0.552-0.406-1.107-0.406
		c-0.553,0-0.553,0.406-1.105,0.406c-0.408,0-0.525-0.26-0.781-0.366v0.778C55.622,89.804,55.713,90,56.137,90
		c0.555,0,0.555-0.406,1.105-0.406c0.556,0,0.556,0.406,1.107,0.406c0.548,0,0.556-0.396,1.087-0.405v-0.001l0,0
		c0.553,0,0.553,0.406,1.107,0.406c0.552,0,0.552-0.406,1.104-0.406C62.2,89.594,62.2,90,62.758,90c0.42,0,0.514-0.196,0.78-0.319
		v-0.778C63.281,89.009,63.165,89.269,62.758,89.269z"/>
	<path fill="#FB922A" d="M76.622,89.269c-0.555,0-0.555-0.406-1.107-0.406c-0.552,0-0.552,0.406-1.106,0.406
		c-0.551,0-0.551-0.406-1.105-0.406l0,0v0.001c-0.533,0.011-0.54,0.405-1.087,0.405c-0.553,0-0.553-0.406-1.107-0.406
		c-0.552,0-0.552,0.406-1.106,0.406c-0.408,0-0.525-0.26-0.781-0.366v0.778C69.488,89.804,69.578,90,70.002,90
		c0.557,0,0.557-0.406,1.106-0.406c0.555,0,0.555,0.406,1.107,0.406c0.548,0,0.556-0.396,1.087-0.405v-0.001l0,0
		c0.553,0,0.553,0.406,1.105,0.406c0.555,0,0.555-0.406,1.106-0.406c0.551,0,0.551,0.406,1.107,0.406
		c0.423,0,0.516-0.196,0.781-0.319v-0.778C77.146,89.009,77.031,89.269,76.622,89.269z"/>
	<path fill="#FFDBB9" d="M66.38,24.815L66.38,24.815c-1.866,0-3.394-1.171-3.394-2.607v-4.414c0-1.435,1.527-2.608,3.394-2.608
		c1.864,0,3.392,1.174,3.392,2.608v4.414C69.771,23.644,68.244,24.815,66.38,24.815"/>
	<path opacity="0.2" d="M66.38,15.185c-1.866,0-3.394,1.527-3.394,3.394v1.901c0.994,0.605,2.149,0.976,3.394,0.976
		c1.242,0,2.396-0.371,3.392-0.976v-1.901C69.771,16.712,68.244,15.185,66.38,15.185z"/>
	<path fill="#FFDBB9" d="M66.391,19.929L66.391,19.929c-3.619,0-6.581-2.963-6.581-6.58V8.712c0-3.617,2.962-6.579,6.581-6.579
		c3.617,0,6.579,2.962,6.579,6.579v4.636C72.97,16.966,70.008,19.929,66.391,19.929"/>
	<path fill="#704623" d="M73.877,7.746V4.723c-0.256-0.628-0.568-1.227-0.963-1.767c-1.916-1.082-4.108-1.726-6.458-1.726
		c-2.377,0-4.606,0.64-6.546,1.74c0.002-0.001,0.004-0.001,0.005-0.001c-0.054,0.019-0.097,0.059-0.149,0.082
		c-0.349,0.493-0.625,1.036-0.86,1.6v3.096c0,1.813,0.324,3.52,0.894,5.011v-2.534c0-3.618,2.963-6.581,6.581-6.581
		c3.617,0,6.579,2.962,6.579,6.581v2.599C73.545,11.315,73.877,9.586,73.877,7.746z"/>
	<g>
		<g>
			<path fill="#492B15" d="M71.433,2.233c0.258,0.105,0.508,0.223,0.76,0.339C71.942,2.452,71.69,2.338,71.433,2.233z"/>
			<path fill="#492B15" d="M72.914,2.956c-0.478-0.27-0.972-0.512-1.481-0.723C69.892,1.6,68.221,1.23,66.456,1.23
				c-1.421,0-2.779,0.252-4.064,0.671c0.504,2.574,2.766,4.517,5.485,4.517h6V4.723C73.621,4.095,73.309,3.496,72.914,2.956z"/>
		</g>
		<g>
			<path fill="#613C1F" d="M71.433,2.233c0.258,0.105,0.508,0.223,0.76,0.339C71.942,2.452,71.69,2.338,71.433,2.233z"/>
			<path fill="#613C1F" d="M72.914,2.956c-0.478-0.27-0.972-0.512-1.481-0.723C69.892,1.6,68.221,1.23,66.456,1.23
				c-1.421,0-2.779,0.252-4.064,0.671c0.504,2.574,2.766,4.517,5.485,4.517h6V4.723C73.621,4.095,73.309,3.496,72.914,2.956z"/>
		</g>
	</g>
	<path opacity="0.2" d="M66.38,57.169v-32.08h-3.507c-1.034,0-1.871-0.837-1.871-1.872v-0.239c-2.957,1.341-4.846,1.604-4.846,1.604
		c-6.095,0.874-7.162,2.74-7.269,5.733c-0.128,0.352-0.209,0.726-0.209,1.121v24.317h6.677V37.49h1.336l-0.773,19.679H66.38z"/>
	<path fill="#FFDBB9" d="M61.005,23.217c0,1.035,0.838,1.872,1.871,1.872h7.014c1.033,0,1.87-0.837,1.87-1.872v-0.233
		c-0.482-0.219-1.45-0.758-1.988-1.041l-3.392,0.293l-3.394-0.293c-0.537,0.282-1.501,0.819-1.981,1.036V23.217z"/>
	<path fill="#EDEDED" d="M57.539,24.264c1.066,1.178,2.59,1.929,4.305,1.929h9.103c1.711,0,3.235-0.75,4.299-1.924
		c-0.839-0.235-2.031-0.631-3.485-1.291v0.239c0,1.035-0.837,1.872-1.87,1.872h-7.014c-1.033,0-1.871-0.837-1.871-1.872v-0.239
		C59.562,23.633,58.376,24.027,57.539,24.264z"/>
	<path fill="#704623" d="M84.081,31.436"/>
	<path fill="#C19C91" d="M69.396,14.207c-0.053-0.02-0.11-0.031-0.171-0.031c-0.196,0-0.368,0.109-0.465,0.265
		c-0.053,0.094-0.103,0.192-0.147,0.289c-0.429,0.959-1.375,1.438-2.322,1.44c-0.947-0.002-1.895-0.481-2.322-1.44
		c-0.045-0.097-0.095-0.195-0.148-0.289c-0.096-0.155-0.269-0.265-0.465-0.265c-0.06,0-0.118,0.011-0.171,0.031
		c-0.2,0.064-0.344,0.251-0.361,0.457c0.011,0.177,0.05,0.367,0.133,0.553c0.613,1.375,1.97,2.063,3.327,2.067v0.001
		c0.003,0,0.005,0,0.008,0c0.001,0,0.005,0,0.007,0v-0.001c1.359-0.004,2.714-0.692,3.328-2.067
		c0.083-0.186,0.123-0.376,0.133-0.553C69.74,14.458,69.597,14.271,69.396,14.207z"/>
</g>
<g id="рука">
	<g>
		<path fill="#EECCB0" d="M99.801,16.348h-0.087c-0.338-1.486-1.667-2.606-3.253-2.606c-1.584,0-2.912,1.12-3.249,2.606h-0.088
			v0.683c0,0.009,0.002,0.017,0.002,0.025c0,0.009-0.002,0.018-0.002,0.025v0.683h0.088c0.337,1.486,1.665,2.606,3.249,2.606
			c1.586,0,2.915-1.12,3.253-2.606h0.087v-0.683c0-0.008-0.004-0.017-0.004-0.025c0-0.008,0.004-0.016,0.004-0.025V16.348z"/>
		<polygon fill="#704623" points="80.633,25.559 80.633,34.42 81.782,34.344 98.103,20.02 93.903,14.828 		"/>
		<path fill="#EECCB0" d="M96.796,11.458c0-0.509-0.412-0.92-0.92-0.92l0,0c-0.509,0-0.92,0.412-0.92,0.92v2.302
			c0,0.508,0.411,0.92,0.92,0.92l0,0c0.508,0,0.92-0.412,0.92-0.92V11.458z"/>
	</g>
</g>
<g id="глаза">
	<g>
		<path fill="#472A14" d="M69.255,9.132c-0.112,0-0.223,0.016-0.323,0.05c-0.469,0.134-0.815,0.599-0.802,1.074
			c-0.011,0.282,0.104,0.568,0.313,0.785c0.214,0.223,0.503,0.35,0.791,0.35c0.044,0,0.089-0.003,0.122-0.008
			c0.311-0.015,0.604-0.178,0.807-0.448c0.203-0.273,0.276-0.607,0.201-0.907C70.271,9.526,69.783,9.132,69.255,9.132z"/>
		<path fill="#472A14" d="M63.512,9.132c-0.111,0-0.222,0.016-0.322,0.05c-0.47,0.134-0.815,0.599-0.802,1.074
			c-0.01,0.282,0.104,0.568,0.313,0.785c0.213,0.223,0.502,0.35,0.791,0.35c0.044,0,0.087-0.003,0.121-0.008
			c0.312-0.015,0.605-0.178,0.806-0.448c0.203-0.273,0.278-0.607,0.201-0.907C64.527,9.526,64.041,9.132,63.512,9.132z"/>
	</g>
</g>
</svg>
