<?xml version="1.0" encoding="utf-8"?>
<!-- Generator: Adobe Illustrator 16.0.3, SVG Export Plug-In . SVG Version: 6.00 Build 0)  -->
<!DOCTYPE svg PUBLIC "-//W3C//DTD SVG 1.1//EN" "http://www.w3.org/Graphics/SVG/1.1/DTD/svg11.dtd">
<svg version="1.1" id="Слой_1" xmlns="http://www.w3.org/2000/svg" xmlns:xlink="http://www.w3.org/1999/xlink" x="0px" y="0px"
	 width="37px" height="37px" viewBox="0 0 37 37" enable-background="new 0 0 37 37" xml:space="preserve">
<g>
	<polygon fill="#DDDDDD" points="0,0 0,37 37,37 37,0 	"/>
	<path fill="#838383" d="M13.327,14.848h2.329v-1.057v-1.035v-0.173c0-0.996,0.023-2.536,0.75-3.489
		c0.764-1.009,1.812-1.693,3.612-1.693c2.939,0,4.178,0.419,4.178,0.419l-0.582,3.448c0,0-0.973-0.279-1.877-0.279
		c-0.906,0-1.717,0.322-1.717,1.229v0.366v1.208v1.057h3.713l-0.26,3.368H20.02v11.705h-4.364V18.215h-2.329V14.848L13.327,14.848z"
		/>
</g>
</svg>
