<?xml version="1.0"?>
<svg width="17" height="17" xmlns="http://www.w3.org/2000/svg">
 <defs>
  <style type="text/css">
   <![CDATA[
    .fil0 {fill:black}
   ]]>
  </style>
 </defs>
 <g>
  <title>background</title>
  <rect fill="none" id="canvas_background" height="19" width="19" y="-1" x="-1"/>
 </g>
 <g>
  <title>Layer 1</title>
  <metadata stroke="null" transform="translate(-0.124998539686203,0) translate(-1.7499799728393555,-1.249985694885254) translate(-80,-74) translate(-200,-183) translate(498,410) scale(0.45665961503982544) translate(-498,-410) translate(0.547497570514679,0.3044321537017822) scale(0.5439866781234741) translate(-0.547497570514679,-0.3044321537017822) translate(0.5032731294631958,0.5596316456794739) scale(0.4063955545425415) translate(-0.5032731294631958,-0.5596316456794739) translate(1.2383824586868286,1.3770614862442017) scale(0.2958482503890991) translate(-1.2383824586868286,-1.3770614862442017) translate(4.18587064743042,4.65462064743042) scale(2.3802874088287354) translate(-4.18587064743042,-4.65462064743042) " id="CorelCorpID_0Corel-Layer"/>
  <g stroke="null" id="_240697576">
   <path stroke="null" id="svg_1" d="m0.941564,8.673347l-0.147555,0.590211c0,0 0,0 0,0l-0.221327,0.147554c-0.516438,0.368883 -0.590215,1.032875 -0.295105,1.549308c0.14755,0.295111 0.221328,0.221334 0.44266,0.442659l0,0.737767c0,0 -1.032875,0.959097 -0.221333,1.918193c0.073778,0.147552 0.221333,0.221329 0.368882,0.295106c0,0 0.073778,0 0.073778,0c0.221332,0.073777 0.147555,0.147554 0.295105,0.44266c0.073778,0.147555 0.147555,0.221333 0.221333,0.368882c-0.663993,0.88532 -0.073778,1.696862 0.442659,1.77064c0.14755,0 7.967876,0.073778 8.484309,0c0.516438,-0.073778 0.959097,-0.368883 1.401758,-0.737766c0.221327,-0.147554 0.295103,-0.147554 0.295103,-0.442659c0,-2.729738 0.073777,-5.828352 0,-8.484313c-0.14755,-0.073777 -0.221326,-0.14755 -0.368881,-0.295105l-2.655961,-1.91819c-0.14755,-0.147555 -0.14755,-0.221332 -0.221327,-0.442659l-0.295106,-1.696864c-0.147554,-0.885319 -0.073776,-1.623085 -0.073776,-2.508405c-1.401758,-0.959098 -2.139523,0.14755 -2.139523,1.47553l0,3.319948c0,0.44266 0.073778,0.663993 -0.147555,0.959098c-0.44266,0.663987 -0.737765,0.516438 -1.696858,0.516438c-0.73777,0 -1.475535,0 -2.2133,0c-0.811543,0 -1.32798,-0.147555 -1.696863,0.442659c-0.368883,0.663988 -0.073778,1.254202 0.368883,1.47553l0,0.073777z" class="fil0"/>
   <polygon stroke="null" id="svg_2" points="12.59826947003603,16.567445755004883 16.877313621342182,16.567445755004883 16.877313621342182,6.828930377960205 12.59826947003603,6.828930377960205 " class="fil0"/>
  </g>
 </g>
</svg>