<?xml version="1.0" encoding="UTF-8"?>
<!DOCTYPE svg PUBLIC "-//W3C//DTD SVG 1.1//EN" "http://www.w3.org/Graphics/SVG/1.1/DTD/svg11.dtd">
<!-- Creator: CorelDRAW X5 -->
<svg xmlns="http://www.w3.org/2000/svg" xml:space="preserve" width="500px" height="500px" style="shape-rendering:geometricPrecision; text-rendering:geometricPrecision; image-rendering:optimizeQuality; fill-rule:evenodd; clip-rule:evenodd"
viewBox="0 0 500 500"
 xmlns:xlink="http://www.w3.org/1999/xlink">
 <defs>
  <style type="text/css">
   <![CDATA[
    .fil0 {fill:black}
   ]]>
  </style>
 </defs>
 <g id="Слой_x0020_1">
  <metadata id="CorelCorpID_0Corel-Layer"/>
  <g id="_240697576">
   <path class="fil0" d="M42 203l-2 8c0,0 0,0 0,0l-3 2c-7,5 -8,14 -4,21 2,4 3,3 6,6l0 10c0,0 -14,13 -3,26 1,2 3,3 5,4 0,0 1,0 1,0 3,1 2,2 4,6 1,2 2,3 3,5 -9,12 -1,23 6,24 2,0 108,1 115,0 7,-1 13,-5 19,-10 3,-2 4,-2 4,-6 0,-37 1,-79 0,-115 -2,-1 -3,-2 -5,-4l-36 -26c-2,-2 -2,-3 -3,-6l-4 -23c-2,-12 -1,-22 -1,-34 -19,-13 -29,2 -29,20l0 45c0,6 1,9 -2,13 -6,9 -10,7 -23,7 -10,0 -20,0 -30,0 -11,0 -18,-2 -23,6 -5,9 -1,17 5,20z"/>
   <polygon class="fil0" points="200,310 258,310 258,178 200,178 "/>
  </g>
  <g id="_240695512">
   <path class="fil0" d="M481 285l2 -8c0,0 0,0 0,0l3 -2c7,-5 8,-14 4,-21 -2,-4 -3,-3 -6,-6l0 -10c0,0 14,-13 3,-26 -1,-2 -3,-3 -5,-4 0,0 -1,0 -1,0 -3,-1 -2,-2 -4,-6 -1,-2 -2,-3 -3,-5 9,-12 1,-23 -6,-24 -2,0 -108,-1 -115,0 -7,1 -13,5 -19,10 -3,2 -4,2 -4,6 0,37 -1,79 0,115 2,1 3,2 5,4l36 26c2,2 2,3 3,6l4 23c2,12 1,22 1,34 19,13 29,-2 29,-20l0 -45c0,-6 -1,-9 2,-13 6,-9 10,-7 23,-7 10,0 20,0 30,0 11,0 18,2 23,-6 5,-9 1,-17 -5,-20z"/>
   <polygon class="fil0" points="323,179 265,179 265,310 323,310 "/>
  </g>
 </g>
</svg>
