<?xml version="1.0" encoding="utf-8"?>
<!-- Generator: Adobe Illustrator 16.0.3, SVG Export Plug-In . SVG Version: 6.00 Build 0)  -->
<!DOCTYPE svg PUBLIC "-//W3C//DTD SVG 1.1//EN" "http://www.w3.org/Graphics/SVG/1.1/DTD/svg11.dtd">
<svg version="1.1" id="Слой_1" xmlns="http://www.w3.org/2000/svg" xmlns:xlink="http://www.w3.org/1999/xlink" x="0px" y="0px"
	 width="37px" height="37px" viewBox="0 0 37 37" enable-background="new 0 0 37 37" xml:space="preserve">
<g>
	<polygon fill="#DDDDDD" points="0,0 0,37 37,37 37,0 	"/>
	<path fill="#838383" d="M26.193,19.476c-0.377-0.757-1.42-1.388-2.809-0.294c-1.873,1.478-4.884,1.478-4.884,1.478
		s-3.01,0-4.884-1.478c-1.389-1.094-2.433-0.463-2.809,0.294c-0.655,1.318,0.085,1.957,1.762,3.032
		c1.431,0.918,3.396,1.261,4.665,1.389l-1.062,1.061c-1.492,1.492-2.933,2.934-3.933,3.934c-0.6,0.598-0.6,1.564,0,2.163
		l0.181,0.182c0.298,0.298,0.688,0.446,1.079,0.447h0.006c0.393-0.001,0.781-0.149,1.079-0.447l3.931-3.934
		c1.492,1.491,2.935,2.934,3.933,3.934c0.598,0.597,1.564,0.597,2.164,0l0.182-0.182c0.598-0.599,0.598-1.565,0-2.164l-3.934-3.933
		l-1.063-1.063c1.271-0.131,3.213-0.477,4.633-1.386C26.109,21.433,26.848,20.795,26.193,19.476L26.193,19.476z M18.502,8.706
		c1.812,0,3.281,1.471,3.281,3.282c0,1.813-1.469,3.282-3.281,3.282c-1.814,0-3.283-1.47-3.283-3.282S16.688,8.706,18.502,8.706
		L18.502,8.706z M18.502,18.662c3.683,0,6.671-2.986,6.671-6.673c0-3.686-2.988-6.673-6.671-6.673c-3.685,0-6.673,2.987-6.673,6.673
		C11.829,15.674,14.817,18.662,18.502,18.662L18.502,18.662z"/>
</g>
</svg>
