<?xml version="1.0" encoding="utf-8"?>
<!-- Generator: Adobe Illustrator 16.0.3, SVG Export Plug-In . SVG Version: 6.00 Build 0)  -->
<!DOCTYPE svg PUBLIC "-//W3C//DTD SVG 1.1//EN" "http://www.w3.org/Graphics/SVG/1.1/DTD/svg11.dtd">
<svg version="1.1" id="Слой_1" xmlns="http://www.w3.org/2000/svg" xmlns:xlink="http://www.w3.org/1999/xlink" x="0px" y="0px"
	 width="37px" height="37px" viewBox="0 0 37 37" enable-background="new 0 0 37 37" xml:space="preserve">
<polygon fill="#DDDDDD" points="0,0 0,37 37,37 37,0 "/>
<path fill="#838383" d="M11.059,8.452h8.781c2.893,0,5.352,1.416,5.35,4.279c-0.002,2.39-0.867,3.319-2.646,4.371
	c0.152,0.125,1.172,0.429,1.514,0.598c0.549,0.271,0.869,0.543,1.23,0.909c1.008,1.025,1.197,1.964,1.197,3.572
	c0,3.731-3.611,5.607-7.088,5.607h-8.374L11.059,8.452L11.059,8.452z M15.832,13.533v2.512c2.262,0,4.387,0.299,4.387-2.154
	c0-2.271-2.405-1.896-4.389-1.896L15.832,13.533L15.832,13.533z M15.831,24.23c2.479,0,5.541,0.408,5.595-2.405
	c0.059-2.937-3.146-2.405-5.593-2.405L15.831,24.23L15.831,24.23z"/>
</svg>
